<?xml version="1.0" standalone="no"?>
<!DOCTYPE svg PUBLIC "-//W3C//DTD SVG 20010904//EN"
 "http://www.w3.org/TR/2001/REC-SVG-20010904/DTD/svg10.dtd">
<svg version="1.0" xmlns="http://www.w3.org/2000/svg"
 width="80" height="80" viewBox="0 0 584.843964 622.079526"
 preserveAspectRatio="xMidYMid meet">
<metadata>Created by Svg.la</metadata>
<g transform="translate(-212.017271,856.598050) scale(0.100000,-0.100000)"
fill="#ffffff" stroke="none">
<path d="M4845 8559 c-221 -21 -500 -92 -720 -184 -293 -121 -612 -336 -811
-548 -217 -229 -454 -590 -605 -917 -93 -203 -129 -299 -190 -503 l-53 -179
-58 -29 c-79 -40 -158 -92 -186 -122 -30 -32 -67 -140 -87 -251 -20 -117 -20
-385 0 -525 28 -190 65 -296 127 -367 37 -42 158 -133 216 -163 36 -18 43 -28
62 -88 81 -246 335 -775 533 -1108 l72 -120 6 -145 c7 -177 25 -232 101 -316
238 -260 731 -500 1230 -598 224 -44 301 -51 583 -51 282 0 362 7 581 51 525
105 975 327 1213 599 72 82 91 145 98 325 5 136 7 148 33 190 70 114 171 301
279 518 129 262 191 404 261 594 l47 128 89 56 c166 104 216 170 258 342 37
151 49 297 43 504 -5 186 -13 232 -59 361 -19 53 -28 64 -92 109 -39 28 -94
62 -123 76 l-52 25 -22 91 c-80 331 -159 555 -285 816 -159 326 -328 565 -560
790 -281 273 -602 448 -1057 576 -213 60 -266 67 -527 70 -135 1 -290 -2 -345
-7z m431 -49 c153 -12 253 -25 349 -46 97 -21 306 -93 329 -113 35 -31 59 -94
64 -167 5 -80 -10 -132 -23 -76 -9 44 -86 126 -137 146 -55 23 -109 13 -148
-26 -60 -60 -38 -184 45 -256 48 -43 89 -59 220 -87 61 -13 121 -28 135 -33
14 -6 43 -18 65 -27 l40 -16 -25 21 c-28 22 -150 64 -220 75 -70 10 -110 25
-173 62 -78 47 -107 91 -107 163 1 58 9 75 50 103 71 49 218 -30 240 -129 11
-48 -1 -64 -46 -64 -29 0 -36 6 -53 38 -11 20 -20 33 -21 27 0 -5 9 -24 19
-42 26 -42 73 -53 110 -26 56 42 63 142 17 256 -15 34 -19 57 -13 57 15 0 307
-142 307 -149 0 -3 -27 -24 -60 -46 -69 -46 -90 -82 -90 -154 0 -58 27 -119
83 -191 20 -24 35 -45 34 -46 -1 -2 -47 13 -102 32 -211 74 -490 126 -777 145
-164 11 -213 10 -197 -5 2 -2 78 -9 169 -15 374 -27 590 -72 895 -184 346
-127 629 -309 875 -561 80 -82 82 -68 3 20 -185 205 -461 396 -745 514 -43 17
-78 35 -78 38 0 4 -28 39 -61 77 -34 39 -68 84 -75 102 -26 60 -14 151 24 179
21 17 108 18 153 2 104 -35 163 -149 103 -199 -37 -30 -124 7 -124 53 0 15 5
17 28 13 25 -5 26 -5 5 6 -32 17 -56 5 -48 -23 11 -34 33 -56 71 -68 45 -15
72 -5 91 35 45 95 -59 204 -196 205 -62 0 -59 14 9 45 l40 18 82 -54 c89 -58
241 -176 246 -190 2 -5 -4 -9 -13 -9 -9 0 -30 -14 -47 -30 -28 -29 -30 -35
-26 -93 8 -126 91 -233 208 -267 74 -21 240 -37 240 -22 0 5 -46 12 -102 15
-130 7 -189 28 -246 87 -57 59 -83 111 -89 179 -4 47 -2 60 17 84 32 41 76 37
131 -12 24 -21 41 -42 37 -46 -4 -4 -13 -3 -20 1 -16 10 -48 6 -65 -8 -37 -30
11 -108 66 -108 36 0 68 39 55 67 -6 15 -8 14 -11 -9 -5 -35 -27 -52 -58 -44
-58 15 -71 96 -15 96 16 0 32 -4 35 -10 3 -5 11 -10 16 -10 6 0 7 5 4 10 -3 6
-2 10 4 10 11 0 151 -151 151 -162 0 -14 -65 -8 -88 8 -13 9 -25 14 -28 11
-10 -10 53 -40 94 -45 49 -5 83 -36 130 -113 l23 -38 -23 -13 c-13 -7 -55 -13
-95 -13 -40 0 -65 -3 -55 -7 9 -4 59 -7 110 -7 l92 -1 37 -57 c200 -313 365
-725 457 -1143 81 -370 80 -358 80 -600 1 -301 -33 -512 -135 -851 -88 -291
-303 -757 -539 -1169 l-100 -175 0 -71 c0 -61 -4 -76 -29 -115 -139 -208 -517
-433 -946 -563 -258 -79 -504 -102 -975 -93 -345 7 -405 13 -615 64 -319 76
-620 208 -846 370 -105 75 -183 146 -222 201 -27 40 -33 59 -38 130 -6 73 -11
91 -49 155 -143 241 -197 339 -316 577 -189 378 -264 569 -363 925 -42 154
-51 194 -66 325 -34 279 -5 518 116 937 129 451 298 798 582 1198 73 102 241
298 280 325 20 14 20 14 13 -5 -13 -34 -20 -129 -9 -122 6 4 13 30 15 58 6 54
18 69 57 69 40 0 61 -27 61 -80 0 -85 -77 -160 -165 -160 -47 0 -71 14 -95 53
-17 28 -20 29 -20 10 0 -28 51 -70 95 -79 48 -9 98 11 144 58 44 44 63 93 54
142 -11 56 -61 89 -103 66 -40 -21 -20 12 48 80 85 85 217 173 246 164 43 -12
66 -51 66 -110 0 -48 -4 -60 -29 -85 -22 -22 -39 -29 -68 -29 -44 0 -55 6 -72
38 -20 38 9 71 54 62 6 -1 5 4 -2 11 -9 9 -17 9 -37 -4 -35 -24 -42 -54 -19
-86 57 -76 173 -33 189 71 5 30 -4 63 -34 121 -6 12 40 8 117 -9 170 -38 341
37 341 151 0 44 -14 59 -53 58 -48 -1 -73 -17 -86 -55 -8 -27 -8 -29 2 -14 24
39 48 56 76 56 42 0 56 -21 41 -65 -15 -44 -44 -65 -93 -65 -82 0 -118 44 -94
116 16 50 67 76 292 149 237 78 375 104 680 128 85 7 137 7 261 -3z m-1246
-269 c-38 -72 43 -156 128 -132 43 13 32 -6 -15 -25 -69 -29 -129 -34 -216
-19 -45 8 -98 15 -117 16 -77 1 -77 12 -4 56 232 137 246 143 224 104z m-1601
-2148 c-11 -38 -31 -126 -46 -198 -24 -115 -27 -152 -27 -325 0 -216 15 -325
79 -579 19 -74 33 -137 31 -139 -19 -18 -82 185 -118 378 -29 152 -31 456 -5
600 17 92 58 256 77 306 20 52 26 20 9 -43z m5248 30 c8 -21 29 -101 45 -178
66 -311 42 -697 -63 -1012 -17 -51 -34 -93 -39 -93 -4 0 0 33 11 73 20 77 70
331 90 462 21 128 15 368 -11 520 -12 71 -31 157 -41 190 -20 64 -22 75 -13
75 3 0 12 -17 21 -37z m-5292 -20 c-4 -10 -18 -54 -31 -98 -69 -226 -84 -508
-39 -760 21 -121 57 -267 81 -329 7 -19 7 -19 -25 0 -101 60 -151 162 -184
379 -35 227 -30 443 14 605 30 112 45 135 111 180 66 44 84 49 73 23z m5376
-8 c88 -49 111 -88 145 -246 23 -104 25 -371 5 -504 -27 -182 -60 -298 -103
-357 -20 -30 -106 -93 -114 -85 -3 2 7 44 21 93 64 219 100 585 76 765 -10 78
-60 298 -76 342 -9 22 -6 22 46 -8z m-4316 -3072 c263 -196 644 -359 966 -412
362 -59 1005 -55 1354 10 368 68 816 294 1042 526 73 75 88 86 79 56 -2 -10
-10 -44 -16 -76 -11 -55 -15 -60 -109 -145 -106 -95 -224 -177 -341 -239 -256
-135 -507 -228 -755 -281 -240 -52 -298 -57 -605 -56 -244 0 -304 3 -420 22
-486 80 -988 298 -1298 564 -81 69 -106 108 -116 183 l-7 50 73 -71 c40 -39
109 -98 153 -131z"/>
<path d="M4825 7939 c-571 -43 -1125 -242 -1514 -542 -141 -109 -372 -339
-356 -355 3 -3 37 29 76 72 215 232 572 473 877 591 353 136 641 196 1027 215
105 5 193 9 198 10 4 0 7 5 7 10 0 12 -152 11 -315 -1z"/>
<path d="M4855 7830 c-329 -34 -722 -135 -1021 -264 -153 -67 -304 -152 -464
-264 -380 -266 -655 -673 -780 -1156 -45 -173 -60 -301 -60 -514 0 -618 195
-1122 570 -1475 233 -219 462 -340 845 -445 216 -60 552 -113 840 -133 565
-39 1367 82 1777 269 158 72 387 246 519 393 143 160 296 432 372 660 92 273
143 691 118 943 -41 389 -192 821 -393 1122 -100 150 -302 352 -453 453 -291
195 -703 335 -1170 397 -132 18 -573 26 -700 14z m670 -87 l120 -19 62 -64
c258 -272 464 -594 548 -860 95 -304 123 -599 106 -1109 -6 -162 -9 -296 -7
-298 11 -12 56 561 56 722 0 214 -48 519 -113 715 -93 284 -215 470 -507 773
-95 100 -109 117 -84 111 310 -75 558 -160 745 -255 l117 -59 6 -45 c5 -33 16
-51 41 -74 37 -33 37 -33 -36 -45 -20 -4 -54 -22 -76 -41 -23 -19 -43 -35 -46
-35 -3 0 0 17 5 38 19 77 -37 180 -108 198 -57 15 -145 -30 -143 -73 0 -16 1
-16 8 2 16 39 49 59 100 59 54 1 89 -22 118 -78 21 -40 12 -146 -17 -210 -17
-38 -21 -62 -18 -107 8 -110 82 -179 192 -179 47 0 60 4 90 30 42 38 60 87 53
148 -4 37 -12 53 -41 79 -30 28 -43 33 -85 33 -38 0 -56 -6 -80 -25 -83 -70
-50 -191 51 -189 28 1 46 8 55 20 26 35 10 85 -26 83 -11 0 -8 -4 7 -11 48
-24 15 -78 -48 -78 -32 0 -43 5 -57 26 -45 70 12 164 100 164 98 0 144 -94 98
-197 -26 -55 -67 -77 -138 -71 -135 11 -205 157 -135 282 50 91 146 136 289
136 l65 0 81 -77 c98 -95 215 -235 272 -323 44 -68 125 -213 125 -222 0 -3
-13 -8 -30 -11 -35 -7 -61 -50 -59 -99 1 -30 2 -29 8 10 8 48 24 68 62 77 25
6 28 3 56 -72 45 -117 47 -124 32 -134 -37 -23 -91 -8 -242 66 -185 90 -218
120 -225 198 -5 69 16 113 65 134 43 17 83 12 123 -17 56 -40 47 -129 -14
-159 -25 -12 -33 -11 -62 3 -34 16 -52 52 -40 81 7 20 53 19 59 0 4 -12 5 -12
3 1 -2 25 -42 37 -61 18 -24 -24 -18 -63 14 -95 33 -32 58 -36 100 -15 74 39
67 153 -15 263 -33 44 -87 60 -134 41 l-35 -15 58 5 c54 4 61 2 89 -24 30 -29
63 -82 55 -90 -2 -2 -21 3 -42 12 -95 39 -175 -22 -175 -134 0 -53 27 -101 76
-133 l27 -17 -49 -8 c-39 -5 -57 -15 -91 -49 -24 -23 -43 -51 -43 -61 0 -13 6
-8 17 14 9 18 31 45 50 59 28 21 41 25 79 20 82 -9 134 -81 134 -186 0 -39 4
-61 11 -61 8 0 10 20 5 68 -5 49 -15 80 -37 116 -16 27 -28 51 -25 53 2 2 50
-19 107 -48 118 -59 158 -71 200 -59 28 8 31 6 44 -23 29 -72 29 -73 -14 -69
-81 8 -107 -69 -51 -147 17 -23 35 -39 39 -36 5 3 -6 20 -25 39 -56 56 -39
136 30 136 41 0 49 -10 70 -79 21 -72 20 -81 -6 -81 -13 0 -30 -5 -38 -10 -11
-7 -4 -10 27 -10 41 0 41 0 51 -47 20 -91 26 -193 12 -193 -7 0 -40 -24 -74
-54 -86 -75 -129 -96 -199 -96 -66 0 -134 29 -179 77 -41 43 -69 114 -62 154
16 81 77 156 129 159 52 4 63 1 97 -27 27 -23 30 -23 13 -4 -49 57 -109 62
-173 14 -57 -43 -77 -95 -77 -198 0 -76 5 -99 27 -147 32 -69 70 -120 106
-144 17 -11 8 3 -25 39 -31 35 -60 79 -72 112 -34 89 -28 95 31 34 53 -54 118
-83 188 -83 69 1 118 25 201 99 34 31 67 54 73 52 6 -2 12 -34 14 -71 l3 -67
-44 -43 c-24 -23 -69 -53 -100 -65 -65 -27 -129 -90 -159 -157 -14 -33 -21
-76 -25 -157 l-5 -112 27 37 c39 52 97 90 147 95 79 7 151 -56 120 -105 -7
-11 -16 -10 -45 4 -48 23 -94 10 -124 -35 -43 -64 -24 -188 40 -266 35 -43 36
-58 5 -116 l-20 -39 -34 30 c-41 36 -71 44 -128 37 l-43 -6 33 62 c59 110 41
211 -46 255 -55 28 -92 28 -147 1 -47 -23 -77 -66 -70 -102 4 -18 5 -17 6 5 3
66 103 120 181 98 126 -36 133 -190 15 -330 -45 -54 -75 -115 -68 -141 3 -11
18 -33 33 -49 36 -38 91 -42 114 -8 22 31 21 107 0 115 -19 7 -46 -7 -52 -28
-4 -10 1 -8 16 4 11 11 26 16 31 12 17 -10 13 -76 -6 -97 -43 -47 -130 4 -119
71 17 106 125 161 215 110 66 -37 67 -47 17 -147 -48 -95 -158 -248 -254 -352
l-59 -65 -37 17 c-41 20 -50 6 -10 -15 l26 -14 -52 -46 c-50 -45 -70 -51 -70
-22 0 21 -51 177 -56 172 -3 -2 7 -39 21 -82 26 -75 30 -136 10 -141 -5 -2
-31 41 -57 94 -26 53 -72 144 -103 202 -30 58 -64 128 -76 155 -12 31 -18 39
-14 20 6 -32 63 -149 171 -355 l65 -125 -28 -23 c-32 -26 -134 -85 -138 -80
-2 2 3 28 11 58 8 30 14 85 14 123 0 67 -1 71 -39 108 -33 33 -45 39 -81 39
-51 0 -106 -25 -127 -56 -60 -92 -11 -214 87 -214 41 0 80 29 80 59 -1 10 -7
5 -15 -11 -37 -67 -141 -36 -164 48 -19 72 33 151 107 161 90 12 142 -38 142
-136 0 -61 -26 -191 -39 -191 -3 0 -31 9 -61 21 -34 13 -107 26 -189 34 -104
11 -145 19 -185 39 -84 42 -180 121 -272 224 -172 192 -317 326 -411 379 -110
61 -180 78 -323 77 -109 0 -135 -4 -205 -28 -155 -53 -291 -161 -469 -370
-209 -246 -343 -325 -548 -326 -65 0 -68 1 -68 24 0 40 -46 76 -96 76 -24 0
-44 5 -44 10 0 6 4 10 8 10 5 0 25 16 45 36 103 103 83 263 -37 309 -80 31
-151 0 -187 -79 l-18 -40 -7 29 c-3 17 -39 93 -78 169 l-71 140 0 92 c0 86 2
95 30 136 35 50 120 98 174 98 50 0 130 -40 168 -83 64 -73 51 -213 -25 -261
-57 -36 -94 -41 -144 -18 -56 25 -87 60 -95 105 -7 43 15 83 53 97 49 19 111
-31 83 -68 -12 -16 -12 -16 5 -1 26 24 12 58 -30 75 -65 27 -124 -14 -124 -86
0 -77 69 -142 157 -148 48 -3 64 0 92 20 72 49 104 172 65 254 -47 99 -197
152 -299 105 -84 -38 -129 -121 -128 -233 1 -72 14 -113 72 -218 25 -47 55
-107 67 -135 34 -82 59 -119 94 -142 35 -24 60 -30 60 -13 0 6 -9 10 -20 10
-35 0 -70 44 -70 89 0 32 6 44 35 70 31 27 44 31 90 31 46 0 59 -5 88 -30 45
-39 61 -79 54 -136 -6 -60 -46 -116 -127 -179 -35 -27 -83 -68 -105 -90 -23
-22 -29 -30 -15 -19 14 12 46 33 71 48 83 48 209 27 197 -32 -3 -14 -15 -17
-58 -17 -30 0 -57 -2 -60 -5 -3 -3 -33 -19 -67 -36 l-62 -31 -68 36 c-37 20
-88 50 -113 67 l-45 30 4 116 c2 77 -1 122 -8 134 -10 16 -11 13 -6 -19 8 -53
-1 -75 -35 -82 -48 -11 -83 3 -107 40 -28 42 -30 111 -7 160 15 33 64 65 98
65 53 0 140 -70 177 -142 12 -24 24 -73 28 -122 l8 -81 2 67 c2 98 -26 164
-94 227 -81 73 -153 80 -211 20 -25 -26 -29 -39 -32 -103 -4 -71 -3 -74 29
-111 33 -37 34 -37 92 -32 l59 5 -6 -36 c-3 -21 -6 -50 -6 -65 0 -36 -7 -32
-115 67 -82 74 -85 79 -85 121 0 24 7 74 16 112 17 73 15 149 -7 223 -10 33
-31 63 -81 112 -37 38 -68 64 -68 59 0 -4 23 -30 51 -56 97 -91 123 -181 95
-321 -9 -44 -17 -97 -18 -119 l-1 -39 -72 77 c-39 42 -80 92 -90 111 -17 32
-17 36 -2 69 30 62 18 107 -28 107 -22 0 -45 -17 -45 -34 0 -5 9 -1 21 10 43
39 76 -22 41 -77 l-19 -31 -48 88 -48 87 23 19 c31 25 77 23 135 -7 59 -29 66
-28 19 4 -44 31 -112 38 -154 18 l-32 -16 -33 72 c-36 80 -95 256 -95 287 0
18 2 18 37 -6 39 -26 80 -40 90 -30 4 3 -1 6 -11 6 -27 0 -92 37 -115 66 -15
19 -21 41 -21 74 0 43 4 51 39 82 67 62 165 72 254 26 22 -11 36 -15 32 -9
-13 21 -65 41 -124 48 -52 5 -67 2 -115 -21 -31 -15 -64 -38 -75 -52 -10 -13
-22 -24 -25 -24 -14 0 -4 42 19 76 14 20 25 51 25 69 0 35 -30 80 -59 90 -14
4 -20 20 -25 65 -9 76 -3 86 36 58 19 -13 51 -23 82 -26 45 -4 57 0 104 31 28
20 52 31 52 26 0 -19 -57 -134 -75 -152 -15 -16 -16 -20 -4 -33 8 -7 35 -17
60 -20 39 -5 49 -3 76 20 34 28 83 121 83 155 0 40 18 29 24 -16 15 -113 2
-211 -42 -301 -13 -28 -16 -39 -7 -32 8 7 24 37 37 68 19 48 22 77 23 182 l0
126 -38 77 c-38 76 -89 127 -127 127 -8 0 4 -10 28 -21 29 -15 51 -36 69 -67
38 -65 36 -131 -6 -217 -41 -83 -64 -99 -121 -86 -23 5 -44 12 -47 15 -3 2 4
18 16 34 65 91 87 233 45 289 -30 39 -86 38 -137 -2 -20 -16 -34 -31 -31 -34
2 -2 14 5 27 17 72 68 147 37 147 -62 0 -53 -79 -116 -145 -116 -68 0 -119 46
-131 116 -6 41 9 198 27 283 l11 51 25 -20 c14 -11 37 -20 50 -20 28 0 73 42
72 67 0 15 -2 14 -9 -4 -12 -30 -55 -56 -79 -48 -30 9 -51 33 -51 58 0 151
175 228 275 122 37 -39 56 -94 66 -195 l8 -75 -4 85 c-3 94 -21 149 -63 194
-54 57 -119 69 -196 36 -50 -21 -50 -21 -36 30 18 62 25 68 54 40 21 -19 26
-20 26 -7 0 9 -11 24 -25 33 -14 9 -25 24 -25 33 0 34 144 309 211 403 38 54
74 98 79 98 6 0 10 -15 10 -34 0 -66 72 -123 142 -112 l40 6 -7 -137 c-4 -76
-11 -165 -15 -198 -18 -121 -22 -243 -11 -355 12 -129 38 -292 53 -330 9 -25
10 -25 21 -4 32 56 123 112 197 121 74 9 117 -4 165 -48 54 -50 77 -97 86
-179 l7 -65 -2 71 c-1 60 -6 79 -31 119 -17 26 -50 62 -74 79 -40 29 -49 31
-125 31 -70 0 -87 -4 -127 -27 -25 -15 -60 -40 -77 -56 -37 -34 -34 -39 -57
93 -36 210 -27 328 40 530 4 13 1 11 -8 -5 -8 -14 -22 -54 -32 -90 -23 -89
-25 -94 -30 -88 -3 3 0 47 5 99 6 52 15 159 21 239 24 360 83 522 250 693 34
34 73 79 86 99 14 21 46 50 72 66 71 45 228 124 309 157 85 33 92 30 92 -46 0
-32 -6 -55 -21 -72 -22 -29 -88 -54 -113 -44 -24 10 -37 52 -26 83 9 23 15 26
45 22 22 -2 34 0 32 6 -6 17 -70 9 -84 -10 -32 -44 0 -114 53 -114 37 0 90 28
109 57 12 18 16 42 13 91 l-3 65 100 34 c88 30 388 109 485 128 l35 7 -30 -33
c-16 -19 -32 -36 -35 -39 -29 -27 -153 -178 -210 -255 -361 -488 -513 -869
-550 -1374 -14 -191 5 -604 41 -876 14 -113 60 -389 65 -394 7 -7 4 44 -6 121
-13 98 -37 389 -51 623 -19 320 1 664 52 904 79 363 331 829 663 1223 l90 107
65 11 c211 34 567 36 776 3z m1166 -425 c67 -50 69 -53 45 -59 -61 -17 -146
41 -146 98 0 32 11 28 101 -39z m-3141 -16 c0 -5 -28 -37 -61 -73 -152 -159
-222 -291 -253 -480 -6 -34 -9 -37 -48 -42 -49 -7 -75 2 -106 36 -36 39 -40
99 -10 145 39 58 216 231 304 296 43 33 99 75 123 93 48 36 51 37 51 25z
m3930 -1677 l0 -45 -36 17 -36 18 31 27 c17 16 33 28 36 28 3 0 5 -20 5 -45z
m-21 -52 c23 -14 23 -18 16 -97 -3 -44 -10 -85 -15 -89 -4 -5 -25 -9 -45 -10
-30 -1 -42 5 -61 28 -18 23 -24 26 -24 12 0 -28 59 -59 102 -52 l37 5 -5 -37
c-9 -64 -9 -64 -56 -43 -24 11 -57 20 -74 20 -39 0 -128 -44 -154 -77 l-20
-26 0 40 c0 120 44 230 115 288 76 63 128 73 184 38z m-4778 -175 c6 -14 8
-40 4 -57 -6 -30 -31 -59 -41 -48 -8 8 -24 139 -18 149 8 13 43 -15 55 -44z
m4725 -222 c27 -23 28 -24 16 -77 -17 -73 -26 -87 -49 -73 -31 19 -39 59 -20
99 21 43 13 47 -9 4 -20 -39 -13 -80 21 -125 24 -31 24 -33 9 -78 -9 -25 -19
-46 -24 -46 -14 0 -60 68 -75 111 -8 23 -15 64 -15 91 0 43 4 54 34 84 41 41
74 44 112 10z m-2157 -511 c35 -9 103 -36 152 -61 101 -52 219 -157 358 -319
47 -55 112 -126 144 -159 32 -32 56 -60 54 -62 -5 -5 -131 77 -162 106 -54 51
-249 176 -356 229 -144 71 -246 95 -369 88 -52 -3 -120 -13 -150 -22 -114 -35
-247 -113 -389 -230 -143 -117 -241 -186 -241 -169 0 4 18 22 40 41 22 19 86
91 143 161 150 184 268 292 372 342 138 67 273 85 404 55z m26 -235 c140 -39
319 -143 535 -310 140 -108 276 -154 495 -170 72 -5 145 -14 164 -21 l34 -12
-57 -29 c-133 -67 -442 -162 -657 -202 -289 -53 -389 -61 -769 -61 -336 1
-364 2 -533 28 -320 49 -698 162 -826 246 l-24 16 41 12 c23 6 101 15 174 18
236 11 411 54 520 128 35 23 104 76 153 118 144 122 285 207 400 240 87 25
259 25 350 -1z"/>
<path d="M4165 7479 c-30 -27 -35 -37 -35 -75 0 -38 4 -46 25 -56 34 -15 75 3
75 34 0 23 0 23 -13 -2 -24 -48 -77 -33 -77 22 0 40 15 65 50 83 39 20 73 19
101 -4 33 -26 29 -90 -8 -143 -33 -49 -112 -96 -173 -103 -96 -12 -110 -17
-140 -41 -23 -20 -30 -34 -30 -63 0 -20 5 -42 12 -49 13 -13 58 -16 58 -4 0 4
-12 8 -27 7 -33 0 -42 29 -24 74 16 38 42 50 128 61 145 19 238 99 238 207 0
65 -17 83 -82 83 -33 0 -50 -7 -78 -31z"/>
<path d="M6211 7277 c-2 -42 47 -87 94 -87 20 0 45 5 56 10 38 21 15 100 -29
100 -12 0 -9 -4 8 -13 28 -14 38 -51 20 -73 -7 -8 -30 -14 -51 -14 -44 0 -79
31 -90 78 l-7 27 -1 -28z"/>
<path d="M3661 7274 c-50 -21 -261 -238 -295 -302 -15 -29 -25 -56 -22 -59 3
-3 12 9 20 28 22 51 56 94 164 203 106 108 159 140 213 130 67 -13 101 -51
119 -137 l9 -42 -3 51 c-6 109 -107 171 -205 128z"/>
<path d="M3891 7228 c6 -23 7 -55 4 -72 -9 -43 -27 -88 -33 -81 -3 3 -12 -5
-20 -16 -15 -22 -69 -49 -97 -49 -27 0 -65 46 -65 80 0 38 16 70 35 70 7 0 17
5 21 11 10 17 -39 0 -53 -19 -23 -28 -16 -97 13 -131 21 -26 30 -29 57 -24
113 21 175 120 151 242 -4 17 -10 31 -14 31 -4 0 -4 -19 1 -42z"/>
<path d="M6679 7167 c18 -7 51 -28 72 -46 138 -116 112 -357 -69 -638 -91
-142 -121 -211 -122 -278 0 -119 106 -188 210 -135 67 34 98 106 66 154 l-16
25 30 -10 c61 -22 141 47 126 107 -10 37 -49 51 -81 30 -15 -10 -24 -20 -21
-23 3 -4 15 2 25 11 38 35 79 -2 65 -58 -9 -36 -41 -56 -90 -56 -35 0 -47 5
-68 31 -27 31 -33 31 -17 0 9 -15 6 -17 -20 -13 -37 5 -59 -13 -59 -48 0 -50
75 -90 109 -57 11 10 12 7 6 -13 -8 -28 -47 -65 -83 -80 -82 -35 -172 36 -172
136 0 60 25 115 115 259 37 58 82 138 100 178 73 159 85 334 28 425 -32 52
-92 98 -138 107 -29 5 -29 5 4 -8z m133 -934 c24 -22 23 -50 -3 -63 -46 -25
-97 16 -84 67 5 22 10 25 37 19 18 -3 40 -14 50 -23z"/>
<path d="M3990 7160 c-10 -6 -4 -8 21 -4 29 5 41 2 58 -15 28 -28 28 -89 -1
-126 -49 -63 -175 -92 -258 -61 -70 26 -74 27 -30 2 64 -36 156 -36 228 0 70
35 92 65 92 125 0 39 -4 51 -26 68 -29 22 -60 27 -84 11z"/>
<path d="M3489 6975 c-20 -7 -55 -26 -79 -41 -24 -16 -52 -35 -64 -41 -12 -7
-15 -13 -7 -13 7 0 40 18 72 39 109 73 221 74 303 2 52 -46 66 -172 26 -236
-60 -97 -180 -112 -261 -32 -27 27 -30 28 -17 7 36 -60 144 -88 207 -56 65 34
111 114 111 195 0 129 -159 225 -291 176z"/>
<path d="M3470 6906 c-14 -8 -34 -27 -46 -43 -39 -54 -37 -58 7 -10 35 38 54
50 89 56 43 8 43 9 10 10 -19 0 -46 -6 -60 -13z"/>
<path d="M3630 6877 c0 -2 7 -17 15 -34 30 -61 -12 -133 -77 -133 -45 0 -68
17 -68 50 0 38 28 55 58 34 19 -13 22 -13 22 -1 0 8 -12 18 -26 21 -35 9 -77
-28 -68 -58 12 -40 35 -56 79 -56 75 0 121 73 90 146 -12 28 -25 45 -25 31z"/>
<path d="M3356 6721 c-14 -45 -28 -101 -31 -124 -4 -30 0 -22 14 28 11 39 27
92 35 120 8 27 14 51 11 53 -2 2 -15 -33 -29 -77z"/>
<path d="M2925 6565 c-64 -27 -111 -78 -102 -112 4 -15 5 -15 6 3 2 36 37 69
102 99 56 25 66 26 101 16 79 -24 96 -105 58 -271 -13 -56 -19 -117 -18 -180
l1 -95 7 105 c4 58 15 138 24 178 9 40 16 102 16 138 0 59 -3 67 -32 99 -44
48 -85 53 -163 20z"/>
<path d="M3312 6469 c-3 -138 34 -279 91 -351 19 -24 79 -48 119 -48 17 0 52
10 76 21 70 34 103 130 67 198 -14 27 -69 62 -97 60 -7 0 6 -9 29 -19 56 -25
77 -59 70 -112 -11 -80 -70 -132 -152 -132 -121 0 -180 109 -195 364 l-7 105
-1 -86z"/>
<path d="M7270 6511 c0 -5 7 -12 15 -15 13 -4 14 -10 5 -26 -19 -35 -45 -42
-74 -19 -14 11 -26 16 -26 10 0 -6 11 -18 24 -26 40 -27 106 16 90 59 -6 16
-34 30 -34 17z"/>
<path d="M2942 6478 c-7 -7 -12 -21 -12 -32 0 -19 2 -18 13 4 18 35 66 35 86
-1 31 -56 -23 -119 -102 -119 -50 0 -76 15 -92 53 -11 25 -14 27 -15 11 0 -36
53 -76 109 -82 47 -4 53 -2 86 31 22 22 35 44 35 62 0 28 -16 65 -34 77 -17
12 -61 9 -74 -4z"/>
<path d="M6772 6350 c0 -14 2 -19 5 -12 2 6 2 18 0 25 -3 6 -5 1 -5 -13z"/>
<path d="M3510 6320 c-41 -41 -15 -109 35 -89 16 6 14 8 -12 8 -30 1 -33 4
-33 31 0 17 9 38 22 50 12 11 19 20 15 20 -4 0 -16 -9 -27 -20z"/>
<path d="M7350 6210 c0 -5 9 -10 19 -10 11 0 23 5 26 10 4 6 -5 10 -19 10 -14
0 -26 -4 -26 -10z"/>
<path d="M7020 6204 c-54 -22 -113 -72 -145 -122 -19 -31 -35 -61 -35 -67 0
-5 12 10 26 35 91 160 235 189 364 73 60 -54 80 -93 80 -155 0 -87 -61 -148
-148 -148 -51 0 -88 33 -95 83 l-4 32 -1 -32 c-2 -23 6 -42 26 -64 23 -26 35
-31 74 -31 55 -1 104 24 135 72 28 40 31 125 7 176 -18 37 -91 107 -138 131
-31 16 -122 26 -146 17z"/>
<path d="M2727 6122 c-20 -22 -22 -38 -5 -48 7 -5 8 -3 4 5 -13 20 24 51 60
51 48 0 84 -47 83 -108 -1 -83 -17 -114 -79 -145 -52 -26 -89 -60 -90 -82 0
-5 11 4 25 21 13 17 48 41 77 54 63 27 148 24 221 -8 62 -28 139 -109 165
-175 11 -28 21 -45 21 -36 1 9 -17 51 -38 94 -23 46 -48 118 -62 178 -13 55
-25 95 -27 89 -2 -6 6 -49 17 -97 12 -48 21 -89 21 -91 0 -2 -17 7 -38 20 -53
33 -125 56 -177 56 -25 0 -45 2 -45 5 0 2 7 30 15 61 18 70 7 123 -32 153 -33
27 -94 28 -116 3z"/>
<path d="M7361 6045 c1 -19 18 -51 18 -35 0 8 -4 22 -9 30 -5 8 -9 11 -9 5z"/>
<path d="M7087 5972 c-24 -26 -21 -36 3 -12 22 22 50 25 83 9 21 -10 21 -10 3
5 -27 21 -69 20 -89 -2z"/>
<path d="M6817 5917 c-8 -60 7 -168 28 -206 19 -35 19 -23 -1 30 -10 28 -16
77 -16 137 0 50 -1 92 -3 92 -1 0 -5 -24 -8 -53z"/>
<path d="M6562 5803 c-7 -3 -19 -18 -28 -35 -20 -39 -4 -90 34 -107 27 -11 27
-11 6 6 -68 57 -41 133 47 133 45 0 104 -61 113 -116 26 -152 -171 -212 -241
-74 -26 50 -32 36 -7 -16 21 -45 73 -76 128 -76 135 -3 186 180 74 266 -33 25
-90 34 -126 19z"/>
<path d="M3373 5711 c-81 -37 -116 -136 -77 -216 8 -16 12 -21 8 -10 -26 89
-7 159 54 201 106 73 232 10 232 -114 0 -98 -76 -147 -135 -87 -29 28 -31 42
-9 73 8 12 11 22 5 22 -18 0 -33 -40 -26 -71 8 -37 40 -59 85 -59 68 0 111 80
90 162 -28 102 -125 145 -227 99z"/>
<path d="M2691 5703 c-2 -50 43 -100 84 -91 10 1 25 14 33 28 l16 25 -25 -22
c-14 -13 -32 -23 -41 -23 -22 0 -49 34 -58 72 -6 23 -8 26 -9 11z"/>
<path d="M6881 5643 c12 -23 42 -64 66 -90 l43 -48 -47 65 c-27 36 -56 76 -66
90 -12 16 -10 10 4 -17z"/>
<path d="M3211 5614 c0 -11 3 -14 6 -6 3 7 2 16 -1 19 -3 4 -6 -2 -5 -13z"/>
<path d="M3219 5505 c-8 -113 -33 -178 -110 -291 -47 -70 -52 -80 -22 -46 46
50 64 52 199 22 49 -11 107 -20 129 -20 92 0 192 78 249 193 20 40 38 88 41
107 5 32 4 31 -13 -11 -69 -168 -178 -268 -292 -269 -37 0 -249 35 -256 43 -1
1 15 38 36 81 41 83 54 146 48 231 -2 40 -4 31 -9 -40z"/>
<path d="M6789 5560 c-52 -27 -135 -124 -154 -178 -29 -86 -14 -174 43 -259
50 -74 69 -112 76 -150 l6 -33 -56 0 c-63 0 -96 -15 -140 -62 -48 -51 -64
-105 -62 -206 l1 -87 7 95 c8 117 34 179 91 217 85 56 182 37 270 -53 39 -39
43 -49 47 -102 2 -35 -1 -68 -8 -81 -6 -13 -9 -25 -7 -28 12 -11 29 43 29 94
1 45 -5 62 -29 96 -17 23 -52 57 -79 75 -44 30 -50 39 -59 87 -7 32 -30 84
-59 132 -62 100 -77 171 -53 253 29 96 121 181 217 201 l35 7 -40 0 c-22 1
-56 -8 -76 -18z"/>
<path d="M7112 5554 c10 -10 20 -16 22 -13 3 3 -5 11 -17 18 -21 13 -21 12 -5
-5z"/>
<path d="M7011 5471 c15 -23 24 -54 27 -93 4 -57 3 -59 -36 -98 -34 -34 -46
-40 -81 -40 -72 0 -118 72 -73 113 24 22 31 21 60 -5 23 -22 24 -22 20 -3 -4
25 -53 43 -76 29 -9 -6 -21 -23 -26 -37 -23 -64 56 -131 127 -108 106 35 137
159 61 246 l-26 30 23 -34z"/>
<path d="M6925 5472 c42 -26 57 -46 71 -100 10 -37 13 -41 13 -19 1 42 -28 97
-63 118 -17 10 -35 19 -41 19 -5 0 4 -8 20 -18z"/>
<path d="M3310 5451 c0 -6 4 -13 10 -16 6 -3 7 1 4 9 -7 18 -14 21 -14 7z"/>
<path d="M2796 5239 c-59 -69 -2 -160 75 -119 10 6 19 17 19 25 0 11 -5 10
-20 -5 -34 -34 -73 -19 -85 32 -6 22 -1 33 23 58 36 35 53 37 97 10 60 -37 81
-130 46 -205 -32 -71 -93 -121 -162 -134 -40 -8 -41 -9 -11 -10 18 -1 50 8 71
18 43 22 105 87 117 122 7 22 9 21 20 -16 l13 -40 -5 55 c-12 123 -25 163 -64
202 -50 50 -96 52 -134 7z"/>
<path d="M3129 5145 c-26 -8 -53 -22 -60 -31 -11 -13 -5 -12 28 5 47 24 115
27 153 8 67 -33 82 -167 35 -316 -15 -46 -24 -85 -21 -88 10 -10 55 158 61
228 11 157 -67 234 -196 194z"/>
<path d="M6976 5034 c-19 -19 -20 -25 -3 -47 11 -16 12 -14 12 15 0 26 5 34
21 36 52 7 78 -94 34 -138 -14 -14 -33 -20 -61 -20 -35 0 -47 6 -75 36 -19 19
-34 43 -35 52 0 11 -3 12 -6 5 -2 -7 5 -28 16 -47 24 -38 90 -71 125 -60 54
16 91 88 67 132 -27 51 -66 66 -95 36z"/>
<path d="M3003 4920 c0 -30 2 -43 4 -27 2 15 2 39 0 55 -2 15 -4 2 -4 -28z"/>
<path d="M6681 4754 c-31 -28 -60 -104 -40 -104 5 0 9 12 9 26 0 36 16 61 51
80 56 29 113 -1 129 -68 l8 -33 1 32 c1 46 -34 83 -85 90 -35 4 -46 1 -73 -23z"/>
<path d="M3941 4714 c0 -11 3 -14 6 -6 3 7 2 16 -1 19 -3 4 -6 -2 -5 -13z"/>
<path d="M6707 4703 c-11 -10 -8 -72 3 -94 13 -24 61 -49 95 -49 30 0 82 27
89 46 3 7 -12 1 -32 -12 -42 -29 -79 -27 -122 5 -20 15 -25 27 -25 65 0 25 0
46 -1 46 0 0 -4 -3 -7 -7z"/>
<path d="M6957 4597 c-9 -30 -20 -74 -23 -100 -7 -49 -9 -50 -70 -32 -24 7
-97 -17 -130 -41 l-34 -26 -11 28 c-11 32 -35 131 -42 179 -3 17 -3 3 -1 -30
4 -63 61 -259 63 -214 3 72 137 115 221 70 19 -10 50 -37 68 -60 17 -24 32
-36 32 -29 0 8 -21 34 -46 58 -45 44 -46 46 -40 95 3 28 13 72 22 98 9 27 14
50 12 52 -2 3 -12 -19 -21 -48z"/>
<path d="M3272 4383 c-7 -3 -17 -14 -23 -26 -9 -20 -9 -20 4 -4 17 20 47 22
66 5 11 -10 12 -10 7 -1 -10 18 -38 31 -54 26z"/>
<path d="M3620 4355 c-7 -9 -10 -18 -6 -22 3 -3 6 -1 6 5 0 20 40 25 61 6 20
-18 27 -6 7 14 -17 17 -53 15 -68 -3z"/>
<path d="M6772 4344 c-12 -8 -22 -20 -22 -25 0 -5 13 0 29 12 29 21 86 24 136
5 20 -8 20 -7 1 8 -26 21 -114 21 -144 0z"/>
<path d="M3591 4214 c-33 -47 -78 -84 -96 -78 -10 4 -15 0 -15 -12 0 -11 -3
-30 -6 -44 l-5 -25 15 25 c8 14 36 44 63 66 46 40 93 104 76 104 -4 0 -19 -16
-32 -36z"/>
<path d="M6456 4182 c-2 -4 7 -8 22 -7 18 0 30 -8 39 -25 11 -22 13 -23 13 -4
0 11 -5 25 -12 32 -13 13 -54 16 -62 4z"/>
<path d="M7332 5475 c-17 -37 -14 -45 4 -12 10 18 23 27 39 27 26 0 46 -21 27
-28 -7 -2 -12 -8 -12 -13 0 -4 7 -6 15 -3 20 8 19 40 -1 48 -34 13 -61 6 -72
-19z"/>
<path d="M7400 5130 c0 -5 5 -10 10 -10 6 0 10 5 10 10 0 6 -4 10 -10 10 -5 0
-10 -4 -10 -10z"/>
<path d="M2900 4207 c0 -20 215 -226 305 -291 302 -222 639 -365 1075 -460
470 -101 1123 -97 1595 10 501 114 899 319 1204 621 58 57 102 106 98 109 -3
4 -44 -28 -89 -71 -243 -229 -629 -453 -963 -558 -169 -53 -408 -101 -640
-129 -171 -20 -734 -17 -910 5 -367 46 -673 133 -970 276 -240 116 -442 252
-608 411 -53 51 -97 86 -97 77z"/>
<path d="M3926 3663 c-14 -15 -2 -23 72 -47 197 -64 335 -95 557 -125 412 -56
728 -48 1179 30 127 22 372 88 434 116 71 32 -7 26 -139 -11 -144 -40 -280
-67 -469 -93 -111 -15 -202 -18 -505 -18 -330 0 -389 3 -540 24 -93 12 -199
29 -235 37 -101 23 -294 72 -323 83 -14 5 -28 7 -31 4z"/>
<path d="M4805 3238 c-89 -10 -169 -43 -198 -83 -24 -33 -38 -113 -27 -159 10
-46 51 -92 95 -106 29 -10 32 -15 43 -81 14 -80 36 -129 57 -129 12 0 15 22
15 129 0 70 3 149 6 174 l7 46 307 1 307 0 6 -166 c3 -91 9 -170 15 -176 16
-16 41 31 59 114 15 73 18 78 49 88 64 21 111 106 101 182 -8 58 -51 116 -102
139 -25 11 -87 24 -142 29 -120 12 -489 11 -598 -2z m689 -78 c60 -18 96 -60
96 -110 0 -47 -21 -95 -49 -110 -35 -18 -41 -12 -41 49 l0 58 -52 7 c-67 7
-523 6 -643 -3 l-90 -6 -5 -65 -5 -65 -32 31 c-42 41 -51 92 -27 146 23 51 58
67 174 78 123 12 626 5 674 -10z"/>
<path d="M5525 2544 c-55 -7 -219 -16 -365 -20 -247 -6 -326 -3 -612 23 -74 7
-78 -12 -5 -26 384 -75 649 -78 992 -10 123 24 135 28 135 40 0 11 -14 10
-145 -7z"/>
</g>
</svg>
