<?xml version="1.0" standalone="no"?>
<!DOCTYPE svg PUBLIC "-//W3C//DTD SVG 20010904//EN"
 "http://www.w3.org/TR/2001/REC-SVG-20010904/DTD/svg10.dtd">
<svg version="1.0" xmlns="http://www.w3.org/2000/svg"
 width="512" height="512" viewBox="0 0 576.509312 674.132449"
 preserveAspectRatio="xMidYMid meet">
<metadata>Created by Svg.la</metadata>
<g transform="translate(-219.500000,882.000000) scale(0.100000,-0.100000)"
fill="#ffffff" stroke="none">
<path d="M3061 8784 c-52 -88 -169 -499 -212 -744 -48 -278 -48 -465 2 -625
l21 -68 -43 -91 -42 -90 7 -97 c7 -110 39 -307 62 -389 l16 -54 -44 -39 c-23
-21 -79 -68 -122 -105 l-79 -67 54 -10 c45 -10 91 -27 108 -41 2 -2 -51 -63
-118 -136 -66 -73 -121 -136 -121 -139 0 -3 35 -4 78 -1 l77 4 17 -32 18 -31
-64 -67 c-76 -79 -359 -359 -431 -425 l-50 -46 131 6 c110 5 139 3 180 -12
l49 -17 -135 -135 -135 -135 71 6 c63 5 266 -19 322 -39 9 -4 3 -23 -23 -70
-34 -61 -35 -65 -16 -65 25 0 25 -2 5 -42 -24 -46 -161 -402 -169 -439 l-7
-32 101 6 c55 3 101 3 101 -1 0 -4 -6 -41 -14 -82 -18 -92 -25 -302 -11 -306
6 -2 27 22 47 54 29 44 136 177 198 245 4 5 5 -4 2 -19 -5 -30 -6 -30 63 16
45 31 125 73 125 66 0 -2 -11 -51 -24 -108 -14 -56 -32 -159 -41 -228 -18
-135 -25 -421 -12 -483 8 -36 10 -38 25 -23 16 14 19 8 41 -92 24 -112 57
-212 70 -212 4 0 14 33 21 72 21 122 22 123 64 39 21 -40 40 -70 43 -67 3 3 1
11 -5 18 -20 25 -62 142 -62 172 1 58 134 356 159 356 4 0 5 -27 3 -61 -3 -33
0 -65 5 -70 7 -7 41 30 98 107 71 93 90 113 95 98 6 -16 8 -14 14 9 9 36 28
35 20 0 -6 -28 -5 -28 16 5 16 24 29 32 51 32 16 0 29 -3 29 -7 0 -5 -9 -66
-20 -138 -10 -71 -24 -191 -30 -265 -11 -128 -44 -297 -76 -385 l-14 -40 6 50
c3 28 8 58 11 68 2 9 0 17 -6 17 -6 0 -11 -17 -11 -37 0 -21 -7 -60 -15 -88
-14 -47 -15 -47 -10 -10 3 22 8 83 12 135 3 52 11 98 17 102 8 5 7 8 -2 8 -7
0 -12 6 -11 13 4 31 -2 230 -6 225 -3 -3 -10 -97 -15 -209 -10 -216 -26 -316
-66 -414 -40 -96 -39 -92 -23 -77 16 15 33 16 23 1 -18 -30 87 42 138 94 l57
58 20 -40 c11 -21 41 -90 66 -151 50 -123 143 -293 190 -347 l30 -35 -3 118
c-5 153 10 275 49 405 18 57 33 106 35 108 2 2 24 -15 50 -38 25 -24 48 -41
50 -38 3 3 -4 51 -15 108 -39 210 -53 401 -42 577 l4 62 23 -21 c32 -30 40
-56 70 -224 38 -219 77 -362 124 -459 23 -47 45 -88 49 -90 3 -2 5 39 3 92 -1
54 -3 136 -5 184 -1 47 1 81 5 75 5 -8 8 -7 8 3 0 36 43 -54 76 -160 64 -209
137 -373 194 -442 l19 -23 1 50 0 50 27 -45 c30 -51 159 -227 173 -235 9 -6
107 -202 162 -325 16 -36 43 -108 60 -160 31 -95 32 -95 41 -60 55 200 180
469 272 582 34 42 84 110 111 152 27 41 52 75 57 76 4 0 7 -17 7 -37 1 -36 1
-37 16 -18 39 51 129 249 175 388 28 83 62 169 76 189 14 21 26 38 27 38 0 0
0 -84 -2 -187 l-2 -188 31 55 c63 108 108 259 149 495 24 139 36 180 62 218
38 54 41 38 35 -185 -4 -167 -11 -243 -31 -353 -34 -186 -34 -185 -27 -185 3
0 26 18 51 39 l45 39 32 -111 c19 -62 37 -146 42 -187 8 -73 5 -263 -4 -307
-26 -118 196 267 280 485 25 64 45 92 45 62 0 -16 88 -107 124 -129 17 -10 43
-21 59 -25 l27 -7 -15 37 c-8 20 -26 77 -41 128 -22 79 -27 120 -34 319 -4
126 -11 232 -15 235 -14 14 2 -441 17 -494 11 -40 12 -51 2 -51 -7 0 -11 4 -8
8 3 5 0 18 -7 30 -6 12 -15 74 -19 138 l-7 116 -2 -105 c-3 -119 -6 -115 -45
65 -13 61 -27 151 -30 200 -7 101 -33 309 -46 370 -6 26 -5 42 2 46 7 4 6 8
-3 12 -8 3 2 6 23 6 32 1 37 -3 47 -31 6 -17 14 -29 17 -25 3 3 1 15 -6 26
-12 23 -1 28 19 8 11 -9 13 -9 7 1 -4 6 -5 12 -2 12 3 0 13 -12 21 -27 9 -16
14 -20 11 -10 -3 9 -4 17 -2 17 2 0 33 -44 70 -97 79 -117 91 -133 99 -133 3
0 7 35 9 78 l3 77 37 -65 c51 -91 121 -297 114 -335 -7 -34 -65 -161 -97 -209
l-21 -31 24 27 c13 15 37 54 53 85 17 32 36 69 44 82 14 22 15 22 22 5 4 -11
8 -44 9 -74 1 -30 5 -64 9 -75 7 -18 10 -17 26 14 21 41 85 255 85 285 0 19 0
20 14 0 8 -10 17 -16 21 -12 16 15 24 207 15 346 -9 141 -37 358 -59 452 -5
24 -8 46 -6 48 2 2 40 -19 85 -47 45 -28 84 -51 87 -51 3 0 3 10 0 23 -6 21
-5 21 14 -3 11 -14 40 -48 64 -75 70 -81 105 -127 132 -173 14 -23 30 -39 35
-36 11 7 5 245 -8 346 l-7 48 97 -7 97 -6 -7 29 c-16 66 -105 314 -138 388
-40 88 -42 96 -21 96 23 0 18 16 -21 77 -19 30 -34 57 -32 59 10 10 149 27
261 33 l129 6 -126 130 c-105 108 -124 132 -112 143 21 21 114 29 211 16 50
-6 92 -9 95 -6 3 2 -56 61 -130 130 -177 165 -420 408 -420 420 0 16 48 62 62
58 32 -10 98 -15 98 -8 0 4 -54 69 -120 142 -119 134 -119 135 -95 147 13 7
47 19 74 26 29 7 47 17 43 23 -4 5 -41 37 -82 71 -41 33 -90 77 -109 96 -37
40 -37 29 -2 187 11 52 28 157 37 232 l16 137 -45 97 c-44 92 -45 99 -32 130
55 132 65 366 25 599 -56 333 -174 758 -229 826 -14 18 -21 20 -38 11 -27 -15
-224 -230 -355 -388 -211 -255 -245 -292 -432 -480 -191 -191 -287 -266 -460
-364 l-58 -33 -102 9 c-140 12 -252 10 -313 -5 -47 -12 -59 -11 -116 8 l-64
22 -74 -21 c-71 -19 -76 -19 -151 -3 -70 15 -93 15 -240 2 -90 -7 -169 -13
-175 -12 -7 0 -19 1 -27 2 -21 2 -243 138 -321 197 -129 97 -449 432 -708 743
-107 128 -304 331 -322 331 -7 0 -23 -16 -34 -36z m136 -108 c55 -60 115 -170
230 -425 41 -90 116 -246 166 -345 108 -213 103 -201 88 -192 -24 15 -171 274
-345 607 -59 114 -117 216 -129 228 -22 19 -24 20 -46 4 -13 -9 -38 -48 -56
-87 -100 -217 -148 -539 -115 -771 21 -141 87 -310 170 -430 17 -24 30 -47 30
-51 0 -4 8 -16 18 -27 16 -20 16 -20 -1 -14 -10 4 -25 7 -32 7 -7 0 -23 9 -36
21 l-24 20 28 -17 c15 -9 30 -14 33 -11 6 5 -53 37 -69 37 -5 0 -7 -7 -4 -14
4 -10 1 -13 -9 -9 -34 13 -6 -56 57 -138 30 -38 26 -65 -7 -53 -99 35 -231
263 -274 473 -49 240 -10 481 150 941 71 203 110 300 121 300 4 0 29 -24 56
-54z m3858 -126 c78 -211 154 -454 181 -585 34 -162 39 -377 11 -488 -44 -175
-167 -402 -242 -444 -22 -12 -50 -23 -63 -23 -21 0 -18 6 33 82 77 116 73 139
-16 98 -24 -11 -51 -20 -59 -20 -8 0 10 12 40 26 30 15 50 28 43 31 -6 2 -23
-3 -37 -13 -39 -25 -33 -3 27 94 109 176 147 306 154 527 8 236 -26 434 -108
631 -36 86 -58 110 -88 95 -22 -12 -71 -93 -146 -241 -82 -163 -277 -523 -308
-568 -45 -67 -44 -42 2 45 23 43 87 175 142 293 211 449 254 531 310 588 l53
53 14 -33 c7 -18 33 -85 57 -148z m-408 -307 c-139 -265 -226 -428 -342 -643
-43 -80 -105 -199 -137 -265 -54 -109 -59 -124 -54 -168 6 -54 10 -54 -78 10
-41 30 -64 41 -80 37 -22 -5 -240 66 -259 85 -10 10 28 65 72 105 23 21 24 18
11 -39 -8 -36 -7 -38 6 -20 8 11 19 38 24 60 6 22 18 54 27 72 10 18 147 164
304 325 280 286 350 363 534 580 49 59 91 105 93 103 3 -2 -52 -111 -121 -242z
m-3189 135 c49 -57 139 -159 200 -228 60 -69 235 -249 390 -401 251 -247 281
-280 287 -315 10 -62 17 -73 25 -44 8 24 8 24 9 -5 1 -16 6 -37 11 -45 7 -11
10 -5 10 23 0 20 4 37 9 37 5 0 28 -22 50 -49 l42 -49 -53 -20 c-29 -11 -75
-26 -103 -35 -27 -8 -67 -22 -87 -30 -27 -11 -38 -12 -41 -4 -4 12 -23 0 -123
-72 l-41 -30 5 24 c6 32 -27 101 -202 425 -79 146 -194 360 -257 475 -200 371
-238 445 -225 445 2 0 44 -46 94 -102z m-312 -57 c-17 -33 -32 -58 -34 -56 -6
6 53 115 63 115 1 0 -12 -27 -29 -59z m3843 -8 c17 -34 31 -66 31 -70 -1 -8
-70 125 -70 135 0 11 9 -4 39 -65z m-3769 37 c6 -11 8 -20 6 -20 -3 0 -10 9
-16 20 -6 11 -8 20 -6 20 3 0 10 -9 16 -20z m79 -174 c-2 -2 -13 8 -23 22
l-19 27 24 -22 c12 -12 21 -24 18 -27z m-47 -21 c3 3 11 -3 19 -12 13 -16 12
-17 -3 -4 -34 26 -17 -5 38 -72 31 -37 59 -65 63 -62 5 2 16 -4 26 -15 20 -22
40 -27 29 -7 -5 9 -4 9 6 0 21 -20 3 -28 -27 -12 -16 7 -31 15 -36 17 -4 2 -4
-3 -1 -12 5 -13 -2 -16 -44 -16 -28 0 -54 -5 -57 -10 -4 -6 18 -39 49 -74 30
-35 52 -66 49 -70 -3 -3 -19 -6 -35 -6 -35 0 -36 -13 -1 -38 30 -22 29 -29 -2
-32 -63 -7 -104 19 -172 113 -33 45 -38 59 -40 111 -1 34 3 63 9 67 5 3 11 18
11 33 1 14 4 26 6 26 2 0 21 -19 42 -42 l38 -43 -21 43 c-20 41 -42 119 -31
108 10 -10 35 33 27 47 -4 6 6 0 23 -16 16 -15 32 -25 35 -22z m-11 28 c13
-16 12 -17 -3 -4 -10 7 -18 15 -18 17 0 8 8 3 21 -13z m3692 -40 c-4 -11 -2
-14 5 -9 8 5 11 0 8 -16 -3 -13 -5 -28 -5 -34 -1 -7 -17 -36 -36 -65 l-35 -54
32 35 c18 19 41 46 50 60 12 17 15 19 11 6 -4 -12 -2 -17 3 -13 13 8 33 -47
35 -99 3 -53 -33 -115 -99 -172 -62 -52 -94 -65 -127 -52 -32 12 -31 16 5 35
36 19 31 35 -11 35 -16 0 -29 3 -29 6 0 3 27 35 60 71 33 36 57 69 54 74 -3 5
-36 9 -74 9 l-69 0 45 46 c25 26 43 53 40 60 -3 8 -2 13 3 11 4 -1 31 22 59
52 43 45 54 52 66 42 8 -7 12 -20 9 -28z m-83 23 c0 -2 -8 -10 -17 -17 -16
-13 -17 -12 -4 4 13 16 21 21 21 13z m-3520 -68 c24 -31 26 -37 9 -20 -14 12
-28 20 -31 17 -3 -3 -11 2 -19 12 -12 14 -12 16 0 8 11 -6 13 -4 8 8 -10 26
-3 21 33 -25z m15 -48 c16 -16 24 -30 19 -30 -6 0 -20 14 -32 30 -13 17 -21
30 -19 30 2 0 16 -13 32 -30z m3405 -34 c0 -2 -8 -10 -17 -17 -16 -13 -17 -12
-4 4 13 16 21 21 21 13z m-49 -166 c-24 -22 -49 -40 -55 -40 -6 1 9 19 33 40
24 22 49 40 55 40 6 -1 -9 -19 -33 -40z m-3495 -81 c63 -66 64 -67 38 -73 -17
-5 -24 -12 -20 -22 3 -8 9 -44 12 -80 7 -65 7 -66 -14 -55 -29 15 -66 66 -96
131 -21 45 -26 70 -26 135 l1 80 20 -25 c12 -14 50 -55 85 -91z m238 74 c19
-21 33 -39 31 -41 -6 -6 -43 22 -65 51 -32 40 -6 33 34 -10z m3558 12 c24 -10
5 -135 -31 -202 -30 -54 -30 -56 -6 -33 14 13 25 18 25 12 0 -6 -4 -13 -9 -17
-5 -3 -21 -26 -35 -50 -14 -25 -21 -43 -15 -40 5 4 18 23 29 43 10 20 19 32
20 27 0 -6 -18 -41 -40 -79 -45 -77 -47 -84 -22 -65 14 11 15 11 5 -1 -19 -20
-16 -35 3 -19 9 7 2 -8 -16 -34 -36 -53 -52 -64 -21 -14 22 36 15 71 -9 42 -7
-8 -16 -15 -20 -15 -18 0 -1 50 38 105 43 63 48 90 7 40 -13 -17 -25 -28 -28
-25 -2 3 2 39 9 79 7 41 11 78 9 82 -3 3 -19 9 -36 13 l-31 6 49 38 c26 21 62
55 78 75 35 42 30 38 47 32z m-409 -182 c-7 -2 -21 -2 -30 0 -10 3 -4 5 12 5
17 0 24 -2 18 -5z m-3388 -148 c33 -48 61 -95 61 -106 1 -18 -2 -17 -35 8 -29
21 -32 22 -17 5 12 -13 14 -22 7 -22 -7 0 -9 -5 -5 -11 5 -8 9 -8 14 1 5 8 9
8 13 -3 3 -9 0 -14 -8 -13 -16 2 -30 14 -30 24 0 4 -12 27 -26 52 -65 113 -79
139 -79 147 0 4 17 -20 39 -55 50 -82 60 -91 25 -22 -15 30 -29 60 -30 65 -1
6 -5 19 -9 30 -6 18 -5 18 7 3 7 -9 40 -56 73 -103z m444 80 c52 -14 101 -31
109 -37 13 -11 82 -140 82 -154 0 -3 -14 -3 -30 1 -59 13 -331 105 -373 126
-52 27 -117 77 -117 91 0 20 225 2 329 -27z m3149 23 c-3 -7 -27 -30 -54 -50
-38 -29 -93 -52 -246 -103 -108 -36 -202 -65 -208 -65 -12 0 50 121 78 153 31
35 211 75 340 76 71 1 93 -2 90 -11z m192 -77 c-12 -28 -28 -55 -35 -61 -7 -6
1 18 18 53 38 76 48 81 17 8z m-3890 4 c0 -5 -5 -3 -10 5 -5 8 -10 20 -10 25
0 6 5 3 10 -5 5 -8 10 -19 10 -25z m-31 -5 c11 -24 11 -24 -3 -6 -9 11 -16 24
-16 30 0 12 5 7 19 -24z m357 -39 c64 -27 250 -87 386 -125 59 -17 73 -32 93
-94 7 -23 6 -23 -53 -16 -61 7 -84 -3 -58 -26 8 -6 27 -15 42 -19 50 -13 40
-31 -18 -31 -93 0 -392 91 -410 124 -10 18 -7 18 31 12 42 -6 52 2 26 24 -37
31 -129 180 -111 180 2 0 35 -13 72 -29z m3336 12 c-10 -25 -102 -162 -113
-169 -23 -14 -6 -24 31 -18 34 6 39 4 34 -9 -18 -48 -478 -163 -462 -115 2 6
23 18 46 26 72 24 45 63 -29 40 -22 -6 -41 -9 -44 -7 -8 9 18 78 34 93 9 7 86
34 171 60 86 25 194 61 240 80 101 41 101 41 92 19z m-1426 -72 c54 -24 59
-29 99 -130 27 -70 31 -91 15 -91 -5 0 -10 -6 -10 -14 0 -9 -8 -12 -27 -8 -24
4 -26 3 -16 -9 7 -8 15 -34 19 -58 l7 -42 -89 63 c-49 35 -117 84 -150 108
l-62 45 -4 95 c-2 52 -2 100 0 107 4 12 116 -22 218 -66z m-656 61 c0 -4 20
-31 46 -59 l45 -52 -32 -68 c-40 -88 -44 -119 -26 -228 8 -49 23 -139 32 -200
l18 -110 -52 -175 -51 -174 22 -31 c29 -40 163 -201 204 -245 l32 -35 -43
-165 c-47 -177 -63 -227 -64 -197 -1 23 -33 85 -131 257 -43 75 -89 158 -102
184 -17 35 -30 48 -53 54 -27 7 -31 13 -36 58 -4 32 -42 127 -107 269 -55 121
-117 261 -137 310 -40 97 -65 145 -77 145 -3 0 -87 -75 -185 -167 -399 -374
-546 -485 -739 -552 l-58 -21 251 248 c138 136 321 327 407 425 86 97 160 177
163 177 3 0 3 -25 -1 -55 -5 -47 -4 -55 10 -55 9 0 96 39 193 86 97 48 214
104 259 125 l84 39 -29 34 c-15 19 -54 63 -85 99 -32 35 -58 67 -58 70 0 4 44
8 98 10 53 1 121 4 150 5 28 1 52 -1 52 -6z m420 -91 l0 -99 -87 -64 c-75 -54
-169 -119 -221 -151 -11 -7 -12 -5 -4 10 5 10 12 38 16 62 6 38 5 43 -10 37
-10 -4 -24 1 -34 12 -16 17 -15 23 21 111 21 51 39 94 41 96 12 9 238 84 256
84 21 1 22 -2 22 -98z m687 85 c1 0 -36 -44 -82 -96 -46 -52 -81 -98 -78 -103
9 -15 484 -247 505 -247 18 0 20 4 15 43 l-6 42 47 -51 c26 -28 92 -102 147
-164 55 -63 215 -228 355 -367 l255 -253 -75 31 c-41 16 -94 41 -117 55 -77
45 -235 183 -467 407 -126 122 -237 228 -246 234 -23 17 -28 10 -73 -102 -19
-49 -77 -182 -127 -295 -107 -238 -129 -294 -130 -333 0 -22 -7 -31 -31 -41
-23 -10 -41 -32 -69 -82 -20 -38 -74 -136 -119 -219 -45 -82 -84 -160 -87
-172 -4 -13 -9 -23 -13 -23 -4 0 -27 75 -51 168 -24 92 -45 172 -47 177 -3 9
61 89 224 282 l35 43 -51 169 c-28 94 -51 187 -51 208 0 21 14 114 31 208 17
93 29 184 26 201 -3 18 -19 60 -36 94 -17 34 -31 68 -31 74 0 7 18 38 41 70
l41 57 131 -7 c73 -4 133 -7 134 -8z m1183 -30 c0 -2 -8 -10 -17 -17 -16 -13
-17 -12 -4 4 13 16 21 21 21 13z m-3630 -100 c0 -26 -6 -18 -14 19 -5 22 -4
26 4 15 5 -8 10 -24 10 -34z m-165 4 c10 -11 16 -20 13 -20 -3 0 -13 9 -23 20
-10 11 -16 20 -13 20 3 0 13 -9 23 -20z m177 -47 c2 -30 4 -37 16 -73 6 -19
13 -47 16 -62 3 -15 7 -32 10 -37 10 -16 35 -134 26 -125 -15 16 -63 191 -71
259 -1 6 -5 20 -10 33 -5 13 -5 22 1 22 6 0 11 -8 12 -17z m1748 -52 c0 -15
-300 -241 -321 -241 -25 0 14 36 113 107 223 158 208 148 208 134z m84 -38
c28 -20 94 -68 146 -105 52 -38 98 -78 102 -89 9 -23 3 -21 -52 21 -19 14 -83
62 -142 106 -94 69 -131 104 -111 104 3 0 29 -17 57 -37z m1516 12 c0 -18 -36
-150 -44 -164 -8 -12 -102 -43 -215 -71 l-84 -21 -25 24 c-32 32 -23 54 25 63
70 12 91 34 54 53 -13 8 -34 6 -71 -5 -38 -11 -56 -12 -63 -5 -18 18 1 26 158
66 83 21 173 46 200 56 63 22 65 22 65 4z m-3121 -34 c75 -21 166 -47 204 -56
46 -12 67 -22 67 -32 0 -16 -3 -16 -93 6 -30 7 -41 6 -53 -7 -15 -14 -15 -17
1 -28 9 -7 33 -15 54 -19 58 -10 63 -16 39 -54 -20 -31 -24 -33 -63 -28 -23 4
-95 23 -159 44 l-116 37 -15 50 c-24 80 -30 126 -15 126 7 0 74 -18 149 -39z
m-633 -38 c15 -27 41 -64 57 -85 20 -25 27 -42 23 -56 -7 -22 37 -117 163
-347 39 -71 71 -137 71 -146 0 -16 -170 -189 -187 -189 -33 0 -233 604 -233
705 0 21 65 165 75 165 2 0 16 -21 31 -47z m2147 -191 l5 -222 -117 80 c-64
44 -122 80 -128 80 -6 0 -20 -18 -29 -40 -22 -50 -32 -37 -36 50 l-3 63 80 59
c144 105 219 158 221 155 1 -1 4 -102 7 -225z m157 143 c204 -151 183 -128
175 -199 -8 -68 -12 -78 -25 -56 -30 52 -34 54 -71 35 -19 -10 -68 -41 -109
-69 -41 -28 -80 -55 -87 -59 -10 -6 -13 35 -13 213 0 121 3 220 8 220 4 0 59
-38 122 -85z m1989 21 c44 -90 43 -99 -26 -346 -39 -140 -151 -450 -162 -450
-5 0 -52 42 -107 94 l-99 94 41 79 c22 43 78 146 123 228 48 85 84 163 85 181
2 31 90 184 106 184 5 0 23 -29 39 -64z m-290 -51 c-23 -31 -52 -61 -63 -67
-20 -10 -20 -10 -7 8 18 23 104 114 108 114 2 0 -15 -25 -38 -55z m-3719 -69
c0 -16 -64 51 -83 86 -15 26 -8 21 32 -22 28 -30 51 -59 51 -64z m3480 47
c-10 -16 -11 -15 -6 7 3 14 6 32 7 40 1 8 4 5 6 -7 2 -12 -1 -30 -7 -40z
m-2997 -114 c21 -12 22 -28 3 -35 -17 -6 -151 48 -186 76 -23 18 -17 17 70 -6
52 -14 103 -30 113 -35z m2861 37 c-38 -27 -132 -66 -158 -66 -16 0 -26 6 -26
15 0 9 25 21 73 35 39 12 77 23 82 25 6 2 19 4 30 4 19 1 19 1 -1 -13z m-3418
-94 c11 -15 46 -72 79 -126 62 -105 86 -180 56 -174 -24 5 -186 329 -163 327
4 0 16 -12 28 -27z m1059 -17 c50 -85 194 -412 211 -478 18 -73 13 -137 -11
-137 -8 0 -79 18 -157 40 -183 52 -335 83 -373 77 -16 -3 -70 -27 -119 -54
-73 -40 -94 -57 -121 -99 -32 -50 -36 -52 -171 -107 -77 -30 -166 -67 -198
-82 l-59 -26 38 48 c160 199 500 555 649 681 111 93 242 178 278 181 4 1 19
-19 33 -44z m2769 23 c-8 -30 -143 -300 -154 -312 -6 -5 -8 3 -7 20 1 18 -2
28 -10 27 -13 -3 -4 25 25 77 10 17 3 13 -24 -14 -21 -22 -34 -31 -30 -20 15
38 14 63 -3 56 -13 -5 -13 -1 3 23 17 27 18 28 2 15 -10 -8 -22 -23 -26 -35
-8 -18 -9 -18 -9 -2 -1 10 4 28 11 40 7 12 13 31 15 41 3 18 2 19 -16 2 -15
-14 -19 -14 -24 -3 -3 9 8 27 26 43 l32 29 -29 -32 c-37 -42 -22 -43 19 -3 21
21 37 28 49 24 16 -6 16 -8 0 -33 l-18 -26 33 28 c18 15 36 27 41 27 5 0 16 3
26 7 15 6 15 1 -6 -33 -27 -45 -20 -39 34 29 42 52 51 58 40 25z m-860 -35
c96 -57 298 -253 604 -589 201 -219 236 -262 211 -252 -8 3 -90 39 -183 79
-161 70 -171 76 -195 117 -20 33 -49 57 -125 104 l-100 61 -70 -12 c-39 -6
-163 -34 -275 -62 -227 -57 -221 -58 -221 23 0 58 28 141 114 334 76 172 118
244 142 244 9 0 53 -21 98 -47z m-2828 -45 c8 -16 17 -28 20 -28 3 0 -3 15
-13 33 -11 17 -22 40 -26 49 -5 15 -4 16 14 5 25 -15 81 -105 74 -118 -4 -5
-1 -9 6 -9 7 0 9 -3 6 -7 -4 -3 -18 4 -32 17 l-26 24 16 -37 c19 -46 19 -56
-1 -31 -13 16 -15 16 -10 2 3 -10 2 -27 -2 -38 -7 -18 -15 -10 -57 55 -27 42
-56 93 -66 114 l-17 38 50 -21 c32 -13 55 -31 64 -48z m1637 21 c23 -16 68
-48 100 -70 58 -40 72 -58 65 -79 -3 -10 -96 44 -146 86 -12 10 -40 33 -62 49
-42 33 -58 75 -19 55 11 -7 39 -25 62 -41z m-1579 9 c-9 -14 -23 2 -17 18 4
12 8 13 14 3 4 -7 5 -17 3 -21z m2006 18 c0 -8 -17 -28 -37 -44 -57 -45 -185
-132 -195 -132 -4 0 -8 10 -8 23 0 16 19 35 72 72 135 94 168 109 168 81z
m-1980 -51 c14 -19 14 -19 -2 -6 -10 7 -18 18 -18 24 0 6 1 8 3 6 1 -2 9 -13
17 -24z m1613 -110 c39 -30 80 -60 90 -67 16 -12 17 -35 15 -312 l-3 -300
-120 135 c-66 74 -148 166 -182 204 l-61 71 34 119 c19 66 43 150 55 187 l20
68 40 -25 c21 -14 72 -50 112 -80z m392 48 c9 -32 31 -107 50 -168 18 -60 36
-120 40 -131 3 -13 0 -28 -7 -35 -34 -36 -279 -311 -304 -343 -16 -20 -32 -36
-36 -36 -5 0 -8 134 -8 298 l0 298 122 87 c67 48 123 87 125 87 1 0 10 -26 18
-57z m-2485 -242 c0 -9 4 -21 9 -26 11 -12 43 -117 37 -122 -2 -2 -20 4 -40
13 -24 12 -32 20 -24 25 16 10 -32 29 -73 29 -47 0 -30 22 32 42 51 17 52 17
14 13 l-40 -4 35 29 c36 30 50 30 50 1z m4365 4 l30 -24 -32 -1 c-18 0 -33 -4
-33 -10 0 -5 16 -10 35 -10 20 0 48 -8 62 -17 l27 -18 -44 -8 c-25 -4 -50 -8
-57 -9 -7 -1 -10 -5 -7 -10 3 -4 0 -8 -6 -8 -6 0 -8 -4 -5 -10 6 -10 -42 -26
-51 -18 -6 6 39 168 46 168 3 0 19 -11 35 -25z m-2504 -147 c24 -24 87 -92
139 -152 52 -60 119 -135 148 -166 30 -33 52 -66 52 -79 0 -13 -4 -19 -10 -16
-12 8 -253 283 -319 365 -25 30 -51 63 -59 73 -30 34 6 16 49 -25z m739 33 c0
-20 -376 -458 -386 -449 -12 12 22 66 89 141 39 45 112 127 161 182 77 86 124
134 134 135 1 0 2 -4 2 -9z m-1478 -65 c64 -14 165 -39 225 -56 59 -17 148
-40 197 -50 48 -10 89 -20 90 -22 2 -2 36 -59 78 -128 126 -211 148 -254 148
-294 0 -41 -27 -127 -68 -219 l-27 -60 -39 99 c-46 118 -125 311 -168 411
l-30 72 -52 5 c-28 3 -75 4 -104 4 -49 -2 -71 7 -252 97 -184 92 -200 98 -217
83 -10 -8 -49 -32 -87 -53 -72 -40 -80 -30 -19 27 32 30 171 108 193 108 8 0
67 -11 132 -24z m2380 -15 c112 -71 138 -91 138 -106 0 -18 -8 -15 -100 41
l-56 33 -198 -100 -199 -100 -98 7 -99 7 -35 -76 c-38 -83 -145 -348 -165
-412 -7 -22 -21 -57 -30 -78 l-17 -38 -43 108 c-30 75 -45 127 -47 168 l-4 60
105 180 c64 111 113 185 128 192 33 17 594 150 640 152 10 1 46 -17 80 -38z
m-3459 9 c14 -11 31 -37 37 -58 7 -20 19 -52 28 -70 13 -29 13 -35 1 -43 -34
-22 -78 -27 -116 -13 -21 7 -66 13 -101 14 -43 0 -61 3 -56 11 3 6 -6 3 -22
-6 -24 -14 -22 -10 11 21 22 21 39 43 37 47 -1 5 1 6 6 4 4 -3 32 21 61 54 29
32 61 59 71 59 9 0 29 -9 43 -20z m4328 -9 c54 -46 76 -67 60 -56 -26 17 32
-51 64 -74 29 -22 29 -22 5 -16 l-25 6 24 -14 c22 -13 19 -14 -45 -10 -44 3
-86 -1 -115 -10 -41 -12 -50 -12 -88 3 -23 9 -42 19 -43 23 0 4 12 38 27 76
21 55 32 72 58 85 41 20 38 21 78 -13z m-3871 -26 c0 -2 -19 -28 -43 -57 -23
-29 -65 -82 -92 -118 -104 -136 -201 -235 -261 -267 -33 -17 -72 -34 -89 -39
-30 -8 -30 -8 13 -13 l43 -6 -53 -35 c-28 -19 -79 -49 -113 -67 -33 -18 -54
-32 -47 -33 37 -1 284 135 337 186 17 16 45 51 63 77 37 55 51 62 372 194 113
46 210 86 216 89 13 6 74 -54 74 -73 0 -15 -153 -228 -199 -276 -58 -62 -152
-103 -298 -132 -371 -71 -460 -89 -712 -140 -151 -31 -280 -54 -287 -53 -7 2
18 30 56 63 38 33 129 114 203 180 73 66 151 135 173 153 l39 33 -40 -27 c-32
-22 -29 -17 15 21 30 27 77 70 103 97 40 38 65 52 140 78 51 17 155 62 232
100 138 67 155 74 155 65z m3473 -51 c110 -56 283 -129 326 -139 19 -4 59 -35
108 -84 43 -42 146 -135 228 -206 242 -208 338 -299 310 -291 -11 3 -74 17
-140 30 -66 14 -222 48 -347 75 -125 28 -283 60 -350 72 -315 52 -362 75 -493
243 -72 93 -125 174 -125 192 0 7 12 26 26 44 30 35 30 35 139 -15 98 -45 405
-175 414 -175 12 0 57 -52 89 -103 24 -38 49 -59 109 -95 113 -66 242 -132
260 -132 8 0 -11 14 -43 31 -70 36 -164 99 -164 110 0 4 19 5 43 3 l42 -4 -37
14 c-21 8 -68 33 -105 55 -70 41 -121 93 -274 277 -45 54 -91 109 -102 122
-11 12 -17 22 -14 22 4 0 49 -21 100 -46z m-2698 -232 c128 -79 173 -126 292
-307 144 -219 176 -266 186 -272 5 -3 19 5 33 18 20 19 24 20 24 6 0 -29 -22
-272 -25 -275 -2 -2 -23 12 -47 30 -24 18 -53 40 -66 48 -16 11 -31 45 -52
120 -17 58 -51 146 -75 196 -37 77 -56 103 -117 158 -136 124 -257 163 -453
146 -55 -5 -101 -7 -102 -6 -2 1 21 50 51 107 30 57 59 121 66 141 l11 38 92
-46 c51 -25 133 -71 182 -102z m2145 112 c0 -27 22 -74 83 -177 22 -37 38 -70
35 -72 -2 -3 -48 -1 -101 4 -111 11 -200 1 -278 -29 -101 -40 -214 -136 -269
-229 -38 -66 -101 -232 -114 -304 -6 -31 -18 -45 -74 -87 -37 -27 -70 -49 -73
-50 -4 0 -10 39 -13 88 -4 48 -9 111 -13 140 -6 55 7 69 32 35 7 -9 17 -13 23
-9 11 6 91 125 224 331 62 96 120 159 191 207 82 56 329 188 339 182 4 -3 8
-16 8 -30z m-1278 -154 c53 -60 58 -69 59 -115 l1 -50 12 51 c8 39 27 71 81
137 39 48 73 87 77 87 3 0 9 -15 13 -32 15 -76 98 -361 116 -402 13 -31 26
-105 41 -252 l21 -207 -26 -81 c-15 -44 -36 -119 -47 -166 -33 -144 -52 -457
-31 -513 9 -22 147 -137 166 -137 12 0 -3 189 -18 219 -7 14 -19 26 -27 26
-12 0 -16 -16 -18 -72 l-3 -72 -27 10 c-56 21 -62 35 -62 133 0 117 17 291 36
381 19 88 53 195 62 195 4 0 18 -34 32 -76 25 -76 40 -101 40 -65 0 33 39 124
70 161 l28 35 6 -25 c2 -14 8 -50 13 -80 l8 -55 19 75 c30 124 65 226 85 252
11 13 44 33 75 43 52 18 56 18 74 2 30 -27 65 -26 72 3 5 21 12 25 41 24 18
-1 51 -5 71 -9 36 -7 37 -6 45 26 8 31 13 34 51 37 34 3 42 7 42 23 0 33 19
59 44 59 32 0 43 17 45 75 1 36 9 60 29 87 15 21 37 51 49 68 12 17 24 27 26
22 13 -19 -48 -272 -92 -387 -36 -92 -66 -145 -126 -218 -90 -111 -247 -196
-362 -197 -57 0 -54 5 -69 -103 -6 -47 -7 -48 -27 -30 -30 27 -77 104 -77 127
0 10 -3 17 -6 13 -10 -9 15 -243 37 -352 11 -55 36 -153 54 -217 19 -65 35
-123 35 -130 0 -7 -17 5 -38 25 -61 60 -58 42 7 -33 61 -71 92 -121 117 -192
13 -38 12 -43 -20 -112 -40 -88 -98 -180 -139 -223 -17 -18 -26 -33 -21 -33
25 0 132 128 165 197 19 39 39 71 44 69 15 -4 28 -91 21 -141 -8 -53 -55 -118
-177 -249 -46 -49 -75 -84 -63 -78 11 6 64 56 117 112 53 55 97 95 97 88 0 -8
-8 -43 -18 -80 -37 -131 -161 -296 -262 -348 -92 -47 -251 -35 -437 32 -103
37 -102 40 52 99 120 46 150 70 191 151 13 26 43 67 67 91 84 84 114 191 94
332 l-12 80 -83 28 c-114 38 -225 51 -319 37 -53 -8 -93 -8 -143 -1 -130 21
-384 -30 -412 -82 -7 -13 -12 -67 -12 -137 -1 -106 1 -119 26 -165 14 -27 43
-66 63 -85 20 -19 50 -61 68 -94 46 -87 71 -106 205 -160 67 -26 122 -52 122
-56 0 -5 -57 -27 -126 -50 -200 -65 -334 -65 -428 -1 -50 35 -141 144 -184
221 -34 61 -69 176 -58 187 4 4 24 -13 44 -37 43 -54 139 -147 167 -162 11 -6
-14 25 -55 68 -108 114 -171 199 -182 247 -10 43 -2 153 12 162 4 2 16 -14 26
-38 38 -83 112 -183 174 -232 27 -22 22 -13 -32 55 -47 59 -135 214 -143 252
-9 38 46 152 108 229 66 81 77 99 41 68 -65 -56 -66 -56 -49 -8 44 123 98 381
115 544 6 55 18 142 27 192 13 75 19 91 29 82 26 -21 58 -83 74 -143 l17 -60
28 78 c15 42 32 79 36 82 10 6 53 -134 74 -246 10 -47 19 -162 22 -257 l6
-173 -38 -16 c-48 -20 -55 -10 -48 61 6 57 -8 78 -34 52 -14 -14 -48 -226 -38
-236 6 -5 44 21 114 79 l61 51 0 120 c0 207 -34 423 -91 581 l-21 56 20 209
c16 159 27 225 45 274 13 35 41 127 61 204 21 77 45 160 54 184 l15 44 21 -29
c12 -16 47 -58 78 -94z m-1192 -265 c28 -39 34 -56 35 -99 0 -50 0 -51 37 -60
33 -8 38 -14 43 -48 6 -36 9 -38 43 -38 45 0 56 -8 60 -39 3 -34 5 -35 60 -21
56 15 82 9 89 -19 8 -30 34 -34 66 -10 26 19 34 20 67 10 95 -28 112 -55 165
-260 28 -108 25 -137 -25 -213 -51 -77 -57 -78 -65 -11 -3 32 -7 65 -8 73 -2
11 -21 17 -72 21 -193 17 -378 169 -469 387 -43 102 -107 355 -106 416 1 12
25 -15 80 -89z m254 89 c12 -4 16 -20 16 -54 0 -39 5 -54 29 -79 37 -39 73
-41 110 -3 15 15 30 34 33 42 4 13 9 12 28 -5 12 -11 28 -32 36 -46 12 -24 11
-28 -9 -46 -49 -44 -71 -53 -130 -53 -33 0 -74 7 -92 16 -47 22 -87 84 -93
143 -7 74 19 105 72 85z m2072 -29 c24 -132 -93 -243 -227 -214 -55 12 -104
57 -95 86 9 28 66 81 66 61 0 -8 12 -27 26 -42 63 -63 143 -10 149 97 2 32 18
47 52 47 17 0 24 -7 29 -35z m151 3 c-3 -7 -5 -2 -5 12 0 14 2 19 5 13 2 -7 2
-19 0 -25z m-2436 3 c6 10 9 3 9 -21 0 -24 -3 -31 -9 -21 -5 7 -13 11 -17 8
-5 -3 -10 9 -11 26 -2 27 -1 29 9 13 8 -15 12 -16 19 -5z m2469 6 c0 -7 -7
-22 -15 -33 -16 -20 -16 -18 0 31 5 18 15 20 15 2z m-2135 -42 c0 -22 -31 -33
-47 -17 -17 17 -1 44 24 40 15 -2 23 -10 23 -23z m1818 19 c9 -10 -12 -44 -27
-44 -22 0 -37 25 -24 38 13 13 41 16 51 6z m274 -26 c-3 -8 -6 -5 -6 6 -1 11
2 17 5 13 3 -3 4 -12 1 -19z m323 -140 c-56 -166 -92 -260 -145 -380 -43 -98
-50 -108 -74 -109 -14 0 -43 -2 -63 -4 l-37 -4 54 76 c82 114 161 295 195 443
6 30 16 72 21 93 l10 37 39 -20 39 -20 -39 -112z m-3030 123 c0 -11 16 -75 35
-142 42 -146 123 -317 195 -413 l51 -69 -32 7 c-17 3 -47 6 -66 6 -33 0 -35 3
-72 83 -39 82 -173 438 -185 489 -5 23 -2 30 21 42 38 21 53 20 53 -3z m-395
-136 c-16 -8 -43 -26 -60 -40 -29 -25 -28 -24 26 5 77 41 88 37 14 -5 -33 -19
-65 -33 -72 -30 -7 2 -15 0 -18 -5 -3 -6 -15 -15 -27 -21 -16 -9 -18 -8 -11 3
16 28 92 90 120 98 44 13 61 10 28 -5z m3775 0 c5 3 32 -11 61 -30 28 -20 53
-35 55 -32 2 2 -14 17 -36 32 -45 31 -48 35 -21 28 20 -5 81 -63 67 -63 -5 0
2 -9 15 -21 13 -11 -21 3 -76 31 -55 29 -104 57 -110 62 -5 6 0 5 13 -1 12 -7
27 -9 32 -6z m340 -21 c30 -3 64 -11 75 -17 33 -17 216 -161 275 -217 50 -46
51 -49 15 -26 -22 14 -49 26 -60 26 -14 0 -7 -7 20 -20 72 -36 118 -67 85 -56
-8 2 -49 7 -90 9 -48 4 -64 3 -45 -3 20 -5 -10 -7 -85 -7 -98 1 -123 -2 -160
-20 -25 -12 -76 -35 -113 -52 l-69 -31 -60 43 c-49 34 -64 52 -83 97 -22 53
-87 168 -122 219 l-17 23 53 -26 c29 -15 89 -40 134 -57 80 -29 126 -50 197
-93 l35 -21 -36 45 c-39 50 -62 86 -72 114 -8 19 1 19 47 0 18 -7 17 -2 -7 40
l-26 47 27 -5 c15 -3 52 -8 82 -12z m-4379 -28 c-28 -45 -27 -47 14 -30 19 8
35 12 35 9 0 -14 -42 -86 -74 -129 l-36 -46 83 45 c46 25 89 45 96 45 7 0 60
18 118 40 59 22 108 40 110 40 1 0 -19 -33 -46 -74 -26 -40 -61 -104 -77 -141
-26 -59 -35 -70 -91 -106 l-63 -39 -80 40 c-101 51 -192 73 -273 65 -43 -4
-56 -2 -42 4 16 8 11 10 -25 10 -25 0 -66 -4 -92 -8 -26 -4 -53 -4 -60 0 -9 6
-8 9 6 9 20 0 128 51 122 58 -2 2 -23 -6 -46 -18 -65 -33 -67 -19 -3 36 69 60
223 178 253 194 27 15 94 28 148 29 l44 1 -21 -34z m3903 -130 c32 -45 62 -90
66 -102 11 -28 -11 -153 -50 -284 -55 -184 -91 -238 -185 -281 -61 -28 -110
-24 -191 16 -148 71 -297 63 -374 -20 l-25 -28 35 19 c50 27 157 24 234 -6 83
-32 114 -63 126 -129 20 -107 17 -117 -66 -221 -42 -52 -102 -135 -134 -183
-50 -77 -67 -94 -130 -133 -40 -24 -86 -56 -102 -69 -40 -34 -49 -31 -43 13 2
20 9 75 15 122 23 175 96 385 167 478 21 28 22 32 6 24 -69 -38 -185 -279
-219 -460 -10 -51 -21 -89 -25 -85 -22 24 -39 125 -39 234 0 185 33 317 120
473 54 99 78 128 162 202 l73 65 118 -3 119 -3 93 207 c51 114 101 231 110
259 l17 51 32 -38 c17 -20 57 -73 90 -118z m-3357 89 c9 -30 18 -44 22 -36 5
7 8 1 8 -16 0 -15 37 -108 82 -205 44 -98 81 -182 81 -188 0 -13 35 -13 121 2
99 16 127 5 225 -89 74 -71 87 -90 143 -203 80 -164 102 -249 108 -422 5 -125
4 -143 -18 -203 l-23 -66 -18 88 c-35 171 -107 336 -190 435 -45 54 -65 59
-24 5 35 -46 100 -187 125 -272 26 -90 51 -244 51 -318 l0 -57 -72 54 c-40 29
-92 63 -115 75 -24 12 -43 25 -43 30 0 16 -104 167 -182 265 l-80 99 12 81
c15 97 33 121 123 162 79 35 192 40 247 10 l35 -19 -24 26 c-50 55 -151 82
-250 66 -30 -5 -88 -24 -129 -44 -91 -43 -128 -44 -209 -6 -74 35 -98 69 -141
192 -32 92 -82 300 -82 342 0 30 175 270 193 264 5 -1 17 -25 24 -52z m4084
-42 c13 -16 12 -17 -3 -4 -10 7 -18 15 -18 17 0 8 8 3 21 -13z m-4984 -199
c-3 -3 -12 -4 -19 -1 -8 3 -5 6 6 6 11 1 17 -2 13 -5z m360 -108 l71 -34 62
29 c34 16 64 29 66 29 19 0 -8 -74 -67 -189 l-71 -136 40 -8 c33 -6 49 -3 102
22 l64 30 37 -67 c48 -85 107 -156 187 -222 34 -28 62 -54 62 -57 0 -3 -7 -30
-16 -60 -9 -30 -14 -57 -11 -59 3 -3 30 28 61 70 57 75 118 136 137 136 11 0
5 -29 -23 -109 -10 -30 -18 -61 -18 -69 0 -8 30 -48 68 -89 89 -99 213 -246
209 -249 -1 -2 -39 3 -82 11 -44 8 -133 14 -197 15 -107 0 -117 1 -111 18 5
13 1 12 -19 -6 -27 -25 -42 -17 -32 15 4 13 -1 10 -19 -9 l-26 -28 4 41 c4 37
3 40 -10 23 -17 -22 -19 -38 -5 -29 6 4 7 -1 3 -12 -6 -14 -9 -12 -20 15 -10
24 -11 38 -3 50 9 14 10 12 4 -8 -7 -29 -2 -26 16 9 8 15 8 21 1 17 -6 -4 -11
-1 -11 6 -1 8 -6 6 -15 -6 -12 -16 -13 -14 -10 25 l4 44 -20 -24 c-10 -13 -19
-20 -19 -16 0 4 -7 2 -15 -5 -8 -7 -15 -9 -15 -6 0 4 -6 4 -12 -1 -24 -14 -40
-12 -34 5 4 9 -3 6 -14 -8 -17 -21 -19 -22 -14 -5 5 17 2 16 -15 -5 l-22 -25
7 30 c3 17 8 37 10 45 8 25 -12 0 -51 -65 -20 -33 -34 -51 -31 -40 3 11 7 31
10 45 26 136 89 359 131 462 11 27 -236 -81 -325 -142 -49 -33 -54 -35 -47
-14 5 14 2 13 -14 -6 -11 -14 -46 -56 -77 -93 -109 -132 -107 -129 -76 -67 15
30 36 68 47 84 12 16 15 26 9 22 -7 -4 -33 -43 -59 -87 -25 -44 -47 -78 -49
-76 -2 1 8 40 21 87 13 46 23 86 23 89 -3 27 19 75 41 88 88 54 163 109 211
153 68 63 51 56 -60 -25 -105 -77 -143 -97 -172 -90 -23 6 -97 -6 -132 -20
-14 -6 -17 -5 -12 3 4 7 1 12 -8 12 -9 0 -16 -4 -16 -8 0 -4 -9 -8 -20 -8 -26
0 -23 11 50 156 114 228 233 430 254 430 6 0 44 -15 83 -34z m4416 -19 c51
-77 198 -353 231 -433 15 -38 32 -77 37 -86 11 -22 12 -22 -42 -3 -39 13 -42
13 -24 0 18 -14 17 -15 -15 -9 -19 4 -42 10 -50 14 -8 4 -33 7 -55 6 -50 -3
-59 2 -180 89 -120 86 -136 96 -116 72 20 -25 165 -137 232 -180 31 -20 59
-43 63 -52 4 -11 2 -14 -7 -9 -9 6 -9 5 0 -8 7 -8 10 -17 8 -20 -3 -3 1 -25 9
-49 7 -24 17 -62 21 -84 3 -22 9 -51 11 -65 l5 -25 -15 25 c-8 14 -15 21 -16
16 0 -12 -27 16 -58 61 -45 63 -112 137 -128 139 -8 1 -43 21 -78 43 -51 33
-273 141 -290 141 -3 0 2 -17 10 -37 16 -38 47 -136 59 -188 20 -86 55 -262
55 -275 -1 -21 -50 61 -50 82 0 9 -4 19 -9 22 -5 4 -3 -17 4 -45 11 -40 11
-48 1 -40 -7 6 -17 7 -21 3 -5 -4 -6 -2 -3 3 3 6 0 16 -8 23 -13 12 -18 8 -15
-12 1 -5 -5 -4 -13 3 -8 7 -20 10 -25 7 -5 -4 -13 -2 -16 4 -4 6 -15 8 -25 5
-12 -4 -24 4 -40 27 -12 18 -19 24 -15 13 12 -35 15 -106 4 -100 -6 4 -8 -4
-4 -22 5 -24 5 -25 -5 -10 -7 10 -9 24 -7 31 3 7 1 19 -3 26 -5 8 -7 -15 -6
-54 3 -61 2 -66 -10 -45 -12 22 -13 22 -14 4 l-1 -20 -8 20 c-5 11 -6 24 -3
29 3 5 0 6 -7 1 -7 -4 -10 -16 -8 -27 5 -16 3 -17 -11 -7 -9 7 -23 20 -31 29
-12 13 -13 13 -8 -2 6 -16 -4 -18 -116 -17 -73 0 -151 -6 -195 -16 -40 -8 -78
-15 -83 -15 -6 0 20 35 56 78 37 42 101 117 143 166 l75 88 -25 99 c-15 55
-22 99 -18 99 14 0 101 -93 149 -160 50 -70 65 -65 38 15 l-16 44 85 77 c77
70 184 208 184 237 0 7 4 18 9 26 8 12 19 10 68 -16 46 -24 67 -29 101 -25 52
5 52 4 -28 157 -88 168 -88 195 -1 150 28 -14 57 -25 65 -25 8 0 43 13 78 30
34 16 68 30 75 30 6 0 27 -24 46 -53z m-4224 -163 c-53 -54 -63 -50 -18 8 39
50 53 61 58 47 2 -6 -16 -31 -40 -55z m3934 -3 c10 -17 15 -31 11 -31 -17 0
-74 65 -74 84 0 19 1 19 23 -2 12 -11 30 -35 40 -51z m-4402 -48 c-11 -21 -20
-35 -21 -31 0 12 33 78 38 74 2 -2 -6 -21 -17 -43z m-40 -90 c-12 -20 -14 -14
-5 12 4 9 9 14 11 11 3 -2 0 -13 -6 -23z m4459 -583 c11 -9 41 -183 47 -274 4
-53 2 -95 -4 -109 -6 -12 -24 -84 -39 -160 l-29 -138 -6 108 -5 108 -2 -124
c-1 -68 -5 -122 -8 -119 -3 4 -12 39 -21 80 -18 91 -57 184 -111 267 -47 72
-56 109 -22 91 25 -14 43 -4 35 19 -3 10 -7 46 -9 79 -5 70 5 78 42 35 13 -16
20 -21 16 -13 -4 9 -3 12 2 7 5 -5 15 -23 22 -40 l12 -32 -5 37 -6 38 37 -22
c57 -34 65 -7 39 137 -17 93 -18 115 -2 65 6 -19 14 -37 17 -40z m-3999 -25
c-7 -37 -11 -89 -10 -115 l3 -49 40 22 c23 12 45 27 49 32 10 11 8 1 -29 -135
-22 -83 -43 -236 -44 -322 0 -16 -4 -28 -10 -28 -5 0 -10 15 -10 33 0 17 -11
85 -25 149 -23 109 -24 126 -14 220 6 57 19 138 30 182 10 43 19 81 19 84 0 3
3 3 6 -1 3 -3 1 -36 -5 -72z m174 -107 c-4 -17 -9 -45 -10 -62 -2 -17 -6 -43
-10 -59 -6 -23 -4 -26 9 -21 12 5 15 2 10 -11 -6 -15 -4 -16 14 -6 35 19 27
-1 -43 -109 -44 -69 -78 -147 -69 -161 3 -5 1 -9 -4 -9 -6 0 -16 -29 -23 -65
-20 -103 -32 -67 -25 76 14 258 77 443 154 458 2 1 0 -13 -3 -31z m2049 2 c76
-16 133 -40 175 -75 32 -28 33 -30 29 -95 -3 -54 -9 -76 -32 -109 -16 -22 -32
-41 -36 -41 -4 0 -10 20 -12 45 -9 77 -43 93 -117 56 -87 -45 -136 -137 -161
-301 -19 -127 -15 -120 -63 -120 l-43 0 -12 89 c-23 175 -75 280 -163 330 -84
48 -126 18 -119 -84 l2 -30 -27 25 c-39 35 -65 97 -65 154 0 43 4 52 37 82 54
50 129 74 273 87 129 13 231 9 334 -13z m1140 -130 c2 0 2 10 0 23 -2 12 7 0
20 -28 33 -68 54 -172 67 -345 10 -128 10 -155 -5 -230 -27 -131 -83 -294
-156 -445 -15 -33 -31 -69 -34 -79 -14 -41 -15 -4 -6 115 19 248 10 438 -36
766 -14 101 -23 189 -21 195 3 7 6 3 6 -9 1 -12 5 -24 11 -28 5 -3 8 7 5 25
-2 16 1 30 6 30 5 0 9 -6 10 -12 0 -7 4 -4 9 7 8 18 9 18 9 -5 1 -18 4 -21 10
-11 16 25 61 -147 86 -331 l14 -103 -5 90 c-2 50 -13 142 -24 205 -11 63 -20
130 -20 148 0 29 2 32 19 23 16 -9 18 -7 14 17 -3 25 -3 26 6 5 6 -13 12 -23
15 -23z m-2694 5 c11 -13 15 -13 21 -3 15 23 10 -34 -15 -194 -14 -84 -27
-191 -30 -238 -5 -96 -2 -82 20 75 18 131 43 230 79 305 14 30 24 48 21 39 -3
-11 1 -16 12 -15 12 1 18 -8 20 -32 2 -20 7 -30 14 -26 7 5 9 -3 5 -22 -59
-274 -91 -707 -68 -924 9 -88 1 -117 -18 -63 -7 21 -24 61 -36 88 -41 92 -94
242 -121 341 -38 145 -34 316 13 544 15 74 25 101 47 126 15 17 21 17 36 -1z
m201 -145 c5 0 4 11 -1 25 -5 14 -6 25 -1 25 17 0 21 -70 11 -201 -5 -74 -17
-228 -25 -344 -8 -115 -21 -246 -29 -290 -8 -44 -17 -106 -21 -138 -4 -35 -10
-55 -17 -51 -7 4 -8 -5 -4 -27 5 -30 5 -31 -4 -10 -18 41 -32 279 -25 411 10
184 41 444 67 555 19 85 23 94 31 71 5 -14 13 -26 18 -26z m2299 46 c0 -2 9
-48 20 -102 52 -252 70 -680 36 -883 -8 -52 -17 -95 -19 -97 -2 -2 -4 27 -5
65 0 38 -10 107 -21 153 -24 98 -36 231 -52 586 -9 198 -8 256 1 267 11 13 40
21 40 11z m-1356 -198 c32 -45 46 -48 46 -10 1 23 2 25 11 9 14 -24 7 -78 -12
-90 -26 -16 -66 0 -114 46 -49 47 -63 82 -19 48 42 -33 56 -28 48 17 -7 40 -4
39 40 -20z m428 13 c-13 -36 -1 -41 36 -15 32 22 40 9 16 -24 -30 -40 -107
-77 -133 -62 -23 12 -29 64 -10 90 8 11 9 7 5 -17 -8 -46 7 -41 51 16 21 26
40 47 42 45 2 -2 -1 -17 -7 -33z m18 -121 c-12 -22 -30 -33 -88 -53 -57 -20
-44 -5 22 26 30 14 57 31 61 36 11 19 16 12 5 -9z m-433 -25 c34 -20 63 -38
63 -40 0 -11 -106 36 -124 55 -30 29 -11 25 61 -15z m-202 -341 c77 -32 165
-64 179 -64 6 0 -16 13 -49 29 l-60 29 105 4 c180 5 518 3 514 -3 -2 -4 -33
-19 -69 -34 -36 -16 -64 -30 -62 -32 6 -5 117 35 157 56 40 21 130 45 138 36
10 -9 -82 -88 -149 -128 -105 -62 -206 -89 -329 -90 -93 0 -115 3 -187 30
-103 38 -180 84 -240 145 -56 57 -43 62 52 22z m-39 -193 c34 -102 36 -128 7
-65 -10 22 -21 40 -25 42 -4 2 -5 9 -2 17 3 8 1 22 -6 32 -9 16 -10 15 -5 -7
6 -23 5 -24 -7 -5 -7 11 -15 44 -18 74 -6 52 -6 53 9 31 9 -13 30 -66 47 -119z
m899 102 c-8 -35 -126 -275 -132 -270 -2 3 17 48 42 101 25 53 43 102 39 108
-4 7 -3 8 4 4 7 -4 13 -1 13 6 3 27 4 34 17 56 17 30 26 28 17 -5z m-880 -31
c-3 -3 9 -13 25 -24 38 -23 66 -68 85 -138 9 -30 26 -92 39 -138 26 -92 18
-94 -39 -8 -79 119 -159 334 -118 319 8 -3 11 -8 8 -11z m799 -64 c-34 -104
-154 -321 -169 -306 -3 2 2 26 10 53 31 114 68 231 76 248 14 25 93 80 97 68
2 -6 -4 -35 -14 -63z m-654 -63 c6 3 7 -1 4 -9 -7 -18 7 -21 23 -5 7 7 12 1
17 -21 3 -17 10 -29 14 -26 10 6 91 -237 128 -382 13 -52 23 -113 23 -136 -1
-27 -3 -33 -6 -16 -9 45 -43 122 -93 206 -54 91 -106 228 -121 314 -5 30 -11
69 -14 85 -5 27 -4 28 5 7 5 -13 14 -21 20 -17z m505 -111 c-20 -69 -49 -151
-64 -183 -15 -31 -46 -92 -68 -136 -22 -44 -49 -100 -61 -125 -21 -44 -21 -44
-22 -14 0 61 140 523 162 532 4 2 8 10 8 18 0 11 4 12 19 5 20 -11 31 -3 46
34 4 12 9 15 12 8 2 -7 -12 -69 -32 -139z m-133 91 c18 -58 7 -152 -37 -308
-49 -174 -75 -290 -75 -336 0 -49 -18 -45 -25 6 -20 138 -48 271 -80 378 -31
102 -36 131 -32 191 2 39 6 75 9 80 4 5 57 9 120 9 104 0 114 -2 120 -20z"/>
<path d="M6869 7443 c-13 -16 -12 -17 4 -4 9 7 17 15 17 17 0 8 -8 3 -21 -13z"/>
<path d="M6800 6870 c-14 -11 -20 -20 -14 -20 6 0 19 9 29 20 23 25 17 25 -15
0z"/>
<path d="M7270 4562 c6 -13 14 -21 18 -18 3 4 -2 14 -12 24 -18 16 -18 16 -6
-6z"/>
<path d="M7408 4448 c11 -18 29 -49 41 -68 11 -19 21 -30 21 -25 0 12 -69 125
-77 125 -2 0 4 -15 15 -32z"/>
<path d="M7027 3995 c3 -22 12 -76 19 -120 l14 -80 -5 65 c-3 36 -12 90 -20
120 -10 39 -13 43 -8 15z"/>
<path d="M4641 3094 c0 -11 3 -14 6 -6 3 7 2 16 -1 19 -3 4 -6 -2 -5 -13z"/>
<path d="M3562 3400 c0 -14 2 -19 5 -12 2 6 2 18 0 25 -3 6 -5 1 -5 -13z"/>
<path d="M3280 3360 c6 -11 13 -20 16 -20 2 0 0 9 -6 20 -6 11 -13 20 -16 20
-2 0 0 -9 6 -20z"/>
</g>
</svg>
