<?xml version="1.0" standalone="no"?>
<!DOCTYPE svg PUBLIC "-//W3C//DTD SVG 20010904//EN"
 "http://www.w3.org/TR/2001/REC-SVG-20010904/DTD/svg10.dtd">
<svg version="1.0" xmlns="http://www.w3.org/2000/svg"
 width="80" height="80" viewBox="0 0 582.606466 665.167931"
 preserveAspectRatio="xMidYMid meet">
<metadata>Created by Svg.la</metadata>
<g transform="translate(-230.146677,865.810107) scale(0.100000,-0.100000)"
fill="#ffffff" stroke="none">
<path d="M4924 8649 c-372 -36 -742 -163 -1035 -357 -324 -213 -399 -282 -613
-561 -316 -412 -568 -974 -655 -1461 -15 -84 -20 -95 -39 -98 -30 -5 -44 -34
-40 -85 2 -32 8 -44 25 -52 20 -8 21 -14 16 -80 -6 -93 -5 -91 -52 -99 -28 -4
-47 -15 -62 -35 -11 -16 -43 -39 -69 -51 -54 -26 -55 -27 -76 -125 -36 -163
-28 -472 17 -671 17 -78 24 -93 45 -103 15 -6 47 -29 73 -51 40 -33 55 -40 92
-40 38 0 46 -4 61 -30 11 -19 28 -33 46 -36 26 -5 29 -11 40 -72 18 -105 98
-399 143 -529 28 -78 43 -138 44 -178 4 -99 155 -521 298 -830 43 -93 63 -124
135 -203 136 -148 363 -339 565 -474 150 -101 341 -201 520 -272 86 -34 145
-64 159 -80 21 -24 31 -26 133 -31 61 -3 144 -10 185 -15 251 -32 476 -31 800
0 156 15 191 24 217 55 13 14 47 34 75 44 332 117 686 340 1003 634 175 162
218 216 284 358 120 254 291 730 296 819 1 31 26 130 57 230 30 96 75 255 98
353 40 162 46 180 70 192 14 7 31 25 38 40 7 14 18 25 24 24 48 -6 77 4 128
46 30 25 60 45 67 45 17 0 27 22 51 115 42 159 53 471 22 640 -20 110 -27 123
-80 150 -26 13 -57 36 -69 51 -14 17 -33 28 -60 31 -45 6 -51 17 -51 107 0 50
4 62 25 82 41 38 31 107 -19 124 -31 10 -31 11 -53 133 -61 339 -234 776 -447
1128 -108 179 -180 279 -323 453 -103 124 -126 145 -272 253 -206 152 -319
224 -458 290 -274 130 -477 187 -778 218 -148 15 -465 18 -601 4z m550 -49
c146 -14 389 -63 506 -102 52 -17 143 -53 201 -79 59 -26 119 -51 134 -55 38
-9 58 -48 109 -209 78 -245 117 -425 92 -425 -6 0 -126 23 -266 50 -140 28
-309 55 -375 60 -66 5 -151 14 -190 19 -116 16 -635 24 -788 12 -239 -18 -544
-61 -771 -107 -121 -24 -220 -43 -222 -41 -5 5 24 143 59 278 70 269 106 350
163 369 20 7 73 29 117 50 183 83 410 143 647 169 52 6 109 13 125 15 70 8
358 5 459 -4z m-1454 -297 c0 -10 -80 -56 -87 -50 -2 3 12 13 31 22 20 10 39
21 42 26 6 11 14 12 14 2z m2497 -64 c116 -82 228 -169 228 -179 0 -5 4 -12 9
-17 5 -5 6 -3 2 5 -4 6 -3 12 2 12 15 0 33 -26 24 -35 -4 -5 -2 -5 4 -2 7 4
23 -2 35 -13 21 -18 22 -19 4 -14 -16 5 -17 4 -5 -4 8 -6 18 -8 22 -6 22 14
270 -275 370 -431 25 -38 62 -96 82 -128 65 -102 213 -388 254 -492 65 -164
112 -294 112 -307 -1 -7 -10 8 -22 35 -11 26 -27 47 -34 47 -7 0 -18 9 -24 21
-7 11 -14 18 -17 16 -2 -3 1 -16 8 -29 20 -38 4 -18 -60 77 -114 171 -141 207
-250 333 -138 161 -301 319 -416 405 -49 37 -94 70 -100 75 -27 21 -177 112
-185 112 -5 0 -14 10 -20 23 -11 21 -10 21 4 3 9 -11 16 -16 16 -10 0 37 -43
261 -60 313 -12 35 -19 72 -17 83 3 10 2 16 -2 13 -5 -2 -13 7 -20 21 -9 22
-9 24 7 22 19 -3 24 24 4 28 -7 1 -8 0 -2 -3 15 -7 12 -23 -4 -17 -15 6 -40
54 -31 62 3 3 5 1 5 -5 0 -6 14 -16 30 -22 41 -14 37 -2 -12 37 -64 51 -37 38
59 -29z m-2513 16 c-7 -16 -24 -21 -24 -6 0 8 7 13 27 20 1 1 0 -6 -3 -14z
m-31 -53 c-3 -12 -11 -22 -19 -22 -7 0 -16 -5 -20 -12 -4 -7 -3 -8 4 -4 15 9
15 -14 1 -51 -7 -15 -13 -41 -15 -57 -3 -17 -9 -46 -14 -65 -5 -20 -14 -92
-20 -161 -9 -96 -15 -127 -28 -135 -150 -93 -376 -265 -501 -381 -168 -155
-483 -560 -594 -764 -25 -45 -32 -51 -23 -20 11 38 12 42 20 78 4 18 14 32 22
32 8 0 17 8 21 18 3 9 13 25 22 35 8 10 17 26 19 35 4 20 10 54 11 65 1 5 5 5
11 2 5 -3 7 0 4 9 -3 8 -1 24 6 35 6 12 8 21 5 21 -6 0 -35 -64 -39 -85 -3
-13 -65 -132 -66 -124 -1 12 60 180 105 289 46 113 123 266 213 425 140 247
356 517 512 643 41 33 102 83 135 111 33 28 65 49 72 46 6 -2 17 4 25 13 12
15 11 16 -4 3 -26 -19 -22 -8 4 15 12 10 18 13 13 5 -5 -9 -3 -12 6 -9 8 3 13
11 11 17 -1 7 2 10 7 7 5 -3 12 1 15 10 3 8 10 13 15 10 5 -3 20 -2 33 3 27
10 40 -5 31 -37z m1527 -347 c85 -4 182 -10 215 -15 33 -5 110 -14 172 -19 61
-6 178 -23 260 -40 81 -16 200 -39 263 -51 139 -26 156 -34 290 -123 273 -182
474 -384 729 -732 91 -124 248 -391 286 -483 76 -186 104 -393 86 -623 -6 -73
-11 -144 -11 -158 0 -13 -2 -22 -5 -19 -3 2 -9 69 -15 149 -23 326 -69 511
-184 744 -109 220 -174 313 -318 457 -240 240 -497 405 -773 496 -394 131
-728 181 -1230 187 -347 4 -527 -10 -852 -65 -135 -23 -417 -105 -528 -155
-59 -26 -263 -141 -355 -200 -150 -96 -352 -278 -462 -414 -123 -152 -243
-351 -293 -486 -58 -153 -114 -461 -116 -630 0 -75 -2 -86 -11 -65 -8 16 -12
113 -12 275 0 229 2 257 22 330 44 158 193 438 339 639 240 328 446 529 786
764 l117 81 163 35 c174 38 255 51 557 92 311 42 432 46 880 29z m-20 -449 c0
-2 -7 -6 -15 -10 -8 -3 -15 -1 -15 4 0 6 7 10 15 10 8 0 15 -2 15 -4z m-1400
-36 c-8 -5 -19 -10 -25 -10 -5 0 -3 5 5 10 8 5 20 10 25 10 6 0 3 -5 -5 -10z
m1379 -18 c23 -3 29 -7 20 -13 -10 -6 -8 -9 9 -9 13 0 21 4 18 8 -3 5 1 9 9 9
8 0 12 -5 8 -10 -3 -5 3 -6 15 -3 11 4 23 2 27 -5 6 -8 10 -7 16 2 6 10 9 11
9 2 0 -7 5 -13 11 -13 5 0 7 6 3 13 -5 8 -2 8 9 -2 11 -9 17 -10 17 -2 0 13
58 8 89 -8 29 -16 26 -23 -4 -11 -16 6 -25 6 -25 0 0 -6 8 -10 18 -11 27 -1
75 -8 100 -14 13 -3 21 -2 18 3 -3 5 6 7 19 4 14 -2 22 -8 19 -13 -3 -5 10 -6
28 -3 21 4 28 2 20 -3 -9 -7 -2 -10 20 -10 18 -1 44 -4 58 -6 14 -3 29 -6 33
-6 5 -1 5 -5 2 -11 -3 -5 -4 -10 -1 -10 2 0 12 -3 22 -7 13 -5 15 -3 9 7 -6
10 -4 11 11 5 10 -4 27 -8 36 -9 9 0 14 -4 12 -8 -3 -4 0 -8 7 -8 11 0 47 -14
212 -86 44 -19 84 -31 89 -27 7 4 8 1 3 -7 -6 -10 -4 -12 11 -6 10 4 15 4 11
0 -10 -10 110 -77 123 -69 6 4 9 1 8 -7 -2 -7 5 -12 15 -11 10 0 16 -2 13 -5
-7 -7 13 -32 26 -32 6 0 4 8 -3 18 -11 15 -11 15 1 4 8 -7 15 -18 15 -24 0 -6
6 -13 14 -16 9 -3 11 0 6 8 -5 9 -4 11 4 6 6 -4 9 -11 7 -15 -8 -12 53 -53 66
-45 6 4 8 3 4 -4 -8 -13 10 -26 24 -17 8 5 7 12 -2 23 -12 15 -11 15 4 4 9 -7
15 -22 13 -32 -2 -10 4 -25 12 -32 9 -7 38 -39 64 -70 26 -31 50 -54 55 -50 4
4 4 2 1 -4 -11 -18 12 -80 43 -119 24 -30 28 -41 18 -52 -8 -11 -8 -17 1 -26
10 -9 11 -8 6 8 -5 15 -3 14 8 -4 8 -13 13 -38 11 -55 -3 -20 -1 -26 5 -17 10
16 16 7 26 -39 7 -35 27 -105 47 -170 21 -66 45 -190 36 -190 -14 0 -9 -28 7
-37 9 -5 18 -36 25 -78 5 -39 14 -90 19 -115 8 -39 9 -33 9 52 -1 102 -21 255
-39 291 -8 16 -4 14 15 -7 27 -30 33 -41 16 -31 -13 8 -13 3 2 -32 6 -15 12
-35 14 -43 2 -8 8 -33 13 -55 11 -40 11 -40 6 13 -2 29 -8 58 -12 65 -8 13
-11 109 -3 100 9 -8 54 -228 63 -303 2 -22 5 -12 6 30 l3 65 15 -70 c17 -81
35 -109 31 -50 -2 22 -7 43 -13 47 -6 5 -3 8 6 8 25 0 29 21 17 97 -5 37 -10
75 -10 83 -1 8 -8 23 -16 33 -8 9 -11 17 -6 17 5 0 4 4 -2 8 -5 4 -18 50 -28
102 -10 52 -29 116 -42 142 -13 26 -26 62 -28 81 -2 19 -9 44 -15 55 -15 28
-14 31 6 28 9 -2 19 -9 21 -16 3 -7 0 -10 -7 -6 -7 5 -9 1 -5 -9 5 -11 10 -13
17 -6 14 14 -10 59 -31 57 -9 0 -26 18 -40 44 -21 39 -21 42 -3 20 11 -14 23
-33 27 -42 5 -17 24 -25 24 -11 0 3 -16 30 -36 58 -19 29 -38 67 -41 86 -2 19
-11 38 -19 42 -20 11 -18 28 3 20 12 -5 14 -3 8 8 -4 8 -5 11 -1 7 4 -3 8 -9
8 -12 0 -3 4 -24 9 -47 9 -41 87 -174 96 -165 3 3 -16 44 -41 92 -25 49 -43
90 -41 92 2 2 13 -14 25 -37 20 -41 38 -57 26 -24 -4 10 -3 14 1 9 4 -4 8 -20
8 -34 0 -15 5 -26 10 -25 6 1 11 -6 12 -15 1 -9 4 -33 6 -52 3 -19 5 -41 6
-48 1 -7 5 -11 10 -7 10 6 41 -32 41 -50 0 -5 -5 -3 -10 5 -6 9 -10 10 -10 3
0 -21 12 -43 21 -37 5 3 6 -2 3 -11 -4 -10 -2 -15 6 -13 19 4 23 -18 7 -34
-13 -12 -13 -18 -1 -39 14 -24 14 -24 8 6 -4 17 -4 27 0 23 4 -3 7 -8 5 -10
-1 -2 8 -23 21 -48 13 -25 25 -39 28 -32 2 7 -2 20 -10 29 -10 13 -10 15 0 9
21 -12 35 -57 22 -70 -8 -8 -9 -6 -4 7 5 13 2 16 -10 11 -14 -6 -18 -23 -6
-34 14 -13 29 -60 20 -60 -6 0 -3 -14 5 -30 9 -17 13 -36 10 -43 -4 -7 1 -3
10 8 17 20 17 19 12 -8 -2 -15 -1 -30 4 -32 4 -3 6 -15 4 -27 -3 -11 -1 -26 3
-32 9 -15 10 -23 22 -151 5 -60 12 -120 14 -132 3 -13 0 -23 -5 -23 -6 0 -7
-5 -3 -12 4 -6 7 -42 7 -80 0 -37 4 -68 9 -68 5 0 6 -5 2 -12 -9 -14 -13 -98
-5 -103 10 -5 -11 -425 -24 -505 -24 -141 -101 -338 -187 -480 -42 -68 -168
-225 -181 -225 -6 0 -11 -9 -13 -19 -1 -11 -15 -31 -30 -45 l-28 -26 19 25
c19 25 19 25 0 7 -11 -10 -20 -25 -20 -34 0 -9 -6 -18 -14 -21 -9 -3 -11 0 -6
9 5 8 -1 6 -13 -5 -12 -10 -20 -22 -17 -26 15 -25 -310 -250 -361 -250 -23 0
-64 -23 -57 -33 3 -5 -3 -6 -17 -2 -17 5 -21 4 -15 -5 5 -8 4 -11 -2 -7 -6 4
-39 -5 -74 -19 -70 -27 -244 -73 -381 -100 l-87 -17 -107 102 c-144 136 -280
224 -347 224 -19 0 -24 3 -15 10 9 6 6 7 -10 4 -14 -3 -20 -1 -15 6 4 6 -2 8
-15 5 -14 -4 -20 -2 -15 4 4 8 -6 9 -31 5 -20 -3 -35 -3 -32 1 8 13 -239 2
-309 -14 -160 -38 -295 -114 -430 -245 l-100 -97 -53 5 c-37 4 -50 9 -40 15 9
6 6 7 -9 3 -13 -3 -28 -3 -35 1 -7 4 -28 9 -48 11 -74 8 -231 56 -398 122 -64
26 -232 110 -232 117 0 3 5 2 12 -2 7 -4 8 -3 4 5 -4 6 -11 9 -15 7 -14 -9
-65 32 -198 156 -207 193 -318 356 -413 603 -44 115 -56 158 -65 235 -4 30 -8
64 -10 75 -1 11 -3 35 -4 53 0 18 -4 31 -8 29 -14 -9 -5 611 11 718 0 5 8 16
16 23 8 8 9 11 3 7 -7 -3 -13 -1 -13 4 0 6 6 11 13 12 10 0 10 2 0 6 -7 2 -13
9 -13 14 0 6 4 8 9 5 10 -6 45 170 36 183 -3 5 -2 23 1 41 4 19 10 27 14 20 4
-7 7 7 7 29 0 53 53 232 66 224 6 -3 7 -1 3 6 -10 16 3 53 16 45 7 -4 8 -2 4
5 -9 14 2 53 14 46 4 -3 11 2 14 11 3 8 2 12 -4 9 -16 -10 -12 12 5 29 8 8 15
22 15 31 0 9 4 14 9 11 5 -4 7 3 4 14 -4 14 -1 20 8 18 9 -2 13 4 11 16 -2 10
1 15 7 11 7 -3 8 0 5 9 -4 10 -1 16 7 16 7 0 9 3 6 6 -9 10 12 46 24 39 5 -4
10 0 10 7 1 7 2 19 3 25 2 24 95 140 116 146 11 3 20 1 20 -5 0 -5 5 -6 11 -2
6 3 4 -7 -5 -24 -8 -16 -12 -33 -8 -37 4 -5 1 -4 -7 0 -11 6 -13 4 -7 -10 9
-24 -3 -63 -14 -45 -7 12 -27 -83 -22 -104 4 -15 -9 -46 -18 -41 -4 3 -6 -5
-3 -17 4 -19 3 -21 -7 -8 -10 13 -11 13 -7 -1 3 -9 1 -36 -5 -60 -6 -24 -11
-50 -11 -56 0 -7 -5 -13 -10 -13 -5 0 -7 -7 -3 -15 3 -8 1 -15 -3 -15 -10 0
-35 -99 -50 -195 -6 -33 -15 -87 -21 -120 -22 -124 -37 -304 -26 -316 8 -9 8
-10 -1 -5 -10 5 -13 -5 -13 -38 0 -25 5 -46 10 -46 6 0 9 -10 9 -22 -1 -17 -2
-19 -6 -5 -5 20 -23 23 -23 4 0 -7 7 -23 16 -35 8 -12 13 -35 11 -50 -4 -25
-4 -25 -6 6 0 17 -5 32 -11 32 -9 0 -6 -277 4 -370 2 -19 7 -73 11 -119 3 -47
8 -88 11 -92 2 -4 7 -45 9 -91 11 -169 101 -444 198 -601 18 -29 39 -65 47
-82 9 -16 21 -29 26 -28 6 1 24 -12 40 -29 16 -17 23 -28 17 -24 -7 4 -13 2
-13 -4 0 -6 -4 -8 -10 -5 -18 11 -11 -1 12 -21 22 -19 23 -19 8 1 -14 18 -14
19 2 6 10 -7 16 -17 13 -21 -10 -16 85 -94 225 -187 30 -20 68 -47 84 -60 28
-23 237 -133 253 -133 13 0 -120 75 -160 90 -38 15 -176 118 -177 133 0 4 29
-17 65 -48 64 -54 102 -73 74 -37 -13 15 -12 16 4 3 9 -8 15 -16 12 -19 -8 -8
153 -84 278 -131 126 -48 165 -54 59 -10 -79 34 -92 49 -21 25 56 -20 74 -20
29 0 -32 14 -67 20 -128 23 -13 1 -20 5 -17 11 4 6 -1 7 -11 3 -11 -4 -15 -3
-11 5 8 11 -100 78 -110 68 -4 -3 -2 -6 3 -6 5 0 20 -10 34 -21 18 -15 11 -13
-25 7 -50 27 -90 57 -47 35 12 -6 22 -9 22 -7 0 3 -18 15 -40 26 -21 11 -64
40 -94 65 -63 51 -81 58 -45 18 l24 -28 -27 24 c-15 13 -25 27 -23 32 3 4 -9
18 -27 30 -48 32 -88 71 -83 79 2 4 -8 5 -23 3 -24 -3 -25 -2 -7 7 20 11 19
12 -15 49 -19 21 -39 36 -43 34 -5 -3 -1 -14 9 -24 9 -10 14 -19 9 -19 -4 0
-14 8 -21 17 -9 14 -10 21 -1 32 9 10 7 16 -8 27 -15 11 -15 14 -4 14 10 0 15
8 14 23 -2 12 -7 21 -13 20 -15 -3 -45 34 -33 42 6 3 11 1 11 -6 0 -7 2 -10 5
-7 3 3 0 17 -6 32 -12 27 -39 36 -39 14 0 -9 -3 -8 -9 2 -6 8 -7 18 -4 22 2 5
-1 15 -7 23 -7 8 -9 15 -4 15 5 0 1 5 -9 11 -9 6 -15 14 -12 18 2 5 -7 32 -21
61 -14 29 -23 55 -20 58 3 2 9 -6 14 -18 l9 -24 5 22 c4 14 2 20 -4 16 -6 -4
-8 2 -3 15 5 16 1 26 -11 36 -27 19 -38 7 -13 -14 17 -14 19 -18 6 -18 -9 0
-14 4 -12 8 3 4 -2 10 -11 13 -12 5 -13 10 -6 19 7 9 2 43 -19 117 -17 58 -34
128 -39 155 -5 28 -12 66 -16 85 -11 53 6 29 22 -32 15 -57 15 -55 -6 101 -5
40 -7 77 -4 82 3 5 1 9 -4 9 -5 0 -14 12 -20 26 -8 16 -8 23 -2 19 8 -5 10 37
9 132 -1 76 2 174 5 218 18 211 19 228 6 220 -9 -5 -11 -4 -6 4 4 6 12 9 17 6
5 -4 9 0 9 7 0 7 7 51 16 98 8 47 22 121 29 165 8 44 22 114 30 155 9 41 14
86 12 100 -2 14 -2 19 0 13 9 -27 21 -11 31 39 5 29 7 55 3 58 -10 7 2 51 14
52 6 0 15 19 22 41 12 41 9 62 -7 52 -5 -3 -5 9 0 26 13 44 22 50 14 9 -5 -24
-4 -31 4 -26 7 4 12 16 12 27 0 11 15 34 33 51 17 17 24 28 15 25 -14 -5 -15
-2 -6 24 5 16 14 29 20 29 6 0 8 7 4 15 -3 10 6 26 26 43 17 15 38 34 47 43 9
9 42 35 73 59 32 23 55 47 51 53 -4 6 -1 7 6 3 7 -5 20 -2 29 6 9 8 38 26 63
41 l46 26 -33 -62 c-84 -158 -230 -564 -210 -584 2 -3 10 15 16 38 64 247 229
608 287 630 13 5 23 11 23 14 0 4 -6 3 -12 0 -7 -4 -4 1 7 10 27 22 117 66
123 60 3 -3 -1 -5 -8 -5 -7 0 -11 -3 -8 -6 3 -3 28 6 55 19 52 27 260 95 363
120 139 34 231 47 505 71 59 5 336 4 374 -2z m-1239 -12 c-8 -5 -19 -10 -25
-10 -5 0 -3 5 5 10 8 5 20 10 25 10 6 0 3 -5 -5 -10z m2055 -70 c3 -6 -1 -7
-9 -4 -18 7 -21 14 -7 14 6 0 13 -4 16 -10z m477 -70 c40 -27 87 -61 103 -75
19 -18 12 -15 -20 8 -27 19 -79 53 -114 76 -35 22 -59 41 -53 41 6 0 43 -22
84 -50z m-2977 21 c-23 -20 -197 -132 -201 -129 -2 2 42 34 99 71 96 63 124
79 102 58z m-105 -155 c0 -2 -8 -10 -17 -17 -16 -13 -17 -12 -4 4 13 16 21 21
21 13z m2881 -23 c13 -16 12 -17 -3 -4 -10 7 -18 15 -18 17 0 8 8 3 21 -13z
m-2945 -26 c-16 -12 -47 -37 -68 -56 -21 -18 -38 -30 -38 -26 0 9 74 75 104
92 33 19 34 14 2 -10z m3438 -23 c3 -8 2 -12 -4 -9 -6 3 -10 10 -10 16 0 14 7
11 14 -7z m54 -59 c-3 -3 -13 7 -23 22 l-17 28 23 -22 c12 -12 20 -25 17 -28z
m-3728 12 c0 -1 -24 -25 -52 -52 l-53 -50 50 53 c46 48 55 57 55 49z m113 -31
c7 4 8 3 4 -1 -14 -16 -35 -13 -32 4 5 26 7 27 12 8 3 -10 10 -14 16 -11z
m3548 -3 c13 -16 12 -17 -3 -4 -10 7 -18 15 -18 17 0 8 8 3 21 -13z m-8 -27
c7 4 9 4 5 0 -4 -5 -3 -19 2 -32 5 -13 8 -24 6 -24 -6 0 -46 70 -46 78 0 4 5
-1 11 -11 6 -9 16 -14 22 -11z m157 -29 c0 -5 -9 2 -21 17 -11 14 -25 23 -31
20 -7 -5 -8 -2 -3 5 5 9 13 7 31 -10 13 -12 24 -27 24 -32z m-105 -27 c10 -11
16 -20 13 -20 -3 0 -13 9 -23 20 -10 11 -16 20 -13 20 3 0 13 -9 23 -20z m135
-25 c13 -14 21 -25 18 -25 -2 0 -15 11 -28 25 -13 14 -21 25 -18 25 2 0 15
-11 28 -25z m-3980 -9 c0 -2 -8 -10 -17 -17 -16 -13 -17 -12 -4 4 13 16 21 21
21 13z m3824 -12 c3 -8 2 -12 -4 -9 -6 3 -10 10 -10 16 0 14 7 11 14 -7z
m-3864 -37 c0 -2 -12 -14 -27 -28 l-28 -24 24 28 c23 25 31 32 31 24z m400
-37 c-6 -11 -13 -20 -16 -20 -2 0 0 9 6 20 6 11 13 20 16 20 2 0 0 -9 -6 -20z
m3781 -7 c13 -16 12 -17 -3 -4 -10 7 -18 15 -18 17 0 8 8 3 21 -13z m229 -33
c6 -11 8 -20 6 -20 -3 0 -10 9 -16 20 -6 11 -8 20 -6 20 3 0 10 -9 16 -20z
m-157 -73 c54 -80 127 -224 107 -212 -6 4 -23 35 -39 70 -16 35 -49 94 -73
132 -58 89 -60 93 -55 93 3 0 30 -37 60 -83z m237 -26 c0 -21 -13 -4 -17 22
-2 17 -1 19 7 7 5 -8 10 -21 10 -29z m-430 -6 c0 -5 -5 -3 -10 5 -5 8 -10 20
-10 25 0 6 5 3 10 -5 5 -8 10 -19 10 -25z m-4214 -40 c-14 -33 -72 -132 -64
-110 6 20 71 145 75 145 2 0 -3 -16 -11 -35z m-121 -66 c-14 -30 -25 -48 -25
-42 0 15 42 104 47 99 2 -2 -8 -27 -22 -57z m4385 1 c6 -11 8 -20 6 -20 -3 0
-10 9 -16 20 -6 11 -8 20 -6 20 3 0 10 -9 16 -20z m35 -99 c3 -5 2 -12 -3 -15
-5 -3 -9 1 -9 9 0 17 3 19 12 6z m-235 -56 c0 -5 -5 -3 -10 5 -5 8 -10 20 -10
25 0 6 5 3 10 -5 5 -8 10 -19 10 -25z m17 -77 c-3 -8 -6 -5 -6 6 -1 11 2 17 5
13 3 -3 4 -12 1 -19z m-4517 -115 c0 -23 -17 -49 -26 -41 -9 10 4 58 16 58 6
0 10 -8 10 -17z m5258 -17 c3 -20 0 -27 -10 -24 -7 3 -14 17 -16 32 -3 20 0
27 10 24 7 -3 14 -17 16 -32z m-605 -56 c3 -11 1 -18 -4 -14 -5 3 -9 12 -9 20
0 20 7 17 13 -6z m-118 -10 c3 -5 1 -10 -4 -10 -6 0 -11 5 -11 10 0 6 2 10 4
10 3 0 8 -4 11 -10z m-4088 -32 c-3 -8 -6 -5 -6 6 -1 11 2 17 5 13 3 -3 4 -12
1 -19z m4260 -20 c-3 -7 -5 -2 -5 12 0 14 2 19 5 13 2 -7 2 -19 0 -25z m-50 0
c-3 -8 -6 -5 -6 6 -1 11 2 17 5 13 3 -3 4 -12 1 -19z m-4225 -40 c-8 -8 -9 -4
-5 13 4 13 8 18 11 10 2 -7 -1 -18 -6 -23z m4278 -18 c0 -5 -5 -10 -11 -10 -5
0 -7 5 -4 10 3 6 8 10 11 10 2 0 4 -4 4 -10z m308 -135 l1 -20 -9 20 c-5 11
-8 34 -8 50 l0 30 8 -30 c4 -16 8 -39 8 -50z m-4851 33 c-3 -8 -6 -5 -6 6 -1
11 2 17 5 13 3 -3 4 -12 1 -19z m4903 -32 c0 -27 -10 -14 -16 20 -3 22 -2 25
6 14 5 -8 10 -24 10 -34z m-4843 2 c-3 -7 -5 -2 -5 12 0 14 2 19 5 13 2 -7 2
-19 0 -25z m-308 -90 c-19 -116 -33 -304 -20 -273 4 11 9 51 10 90 3 94 11 97
12 4 1 -155 1 -195 -1 -229 -1 -33 -2 -33 -11 -11 -5 13 -12 22 -14 19 -8 -8
26 -333 36 -336 5 -2 7 -8 3 -13 -8 -13 6 -50 17 -44 5 3 6 0 3 -8 -8 -21 14
-69 28 -61 6 4 8 3 5 -3 -3 -5 -16 -9 -29 -8 -18 1 -27 12 -41 55 -26 77 -57
285 -64 430 -11 226 35 521 76 496 4 -3 -1 -51 -10 -108z m5406 89 c25 -39 46
-227 46 -417 -1 -96 -3 -186 -5 -200 -2 -14 -7 -47 -11 -75 -18 -135 -82 -332
-82 -251 0 14 4 26 9 26 6 0 8 7 4 15 -3 8 -2 15 3 15 5 0 9 10 9 23 0 12 7
62 16 110 16 86 25 302 12 314 -3 4 -7 -16 -8 -43 -1 -27 -4 -7 -7 46 -3 52
-4 118 -1 145 l4 50 7 -45 c4 -25 6 10 3 77 -2 67 -6 128 -8 135 -8 25 -16 98
-11 98 2 0 11 -10 20 -23z m-5169 -82 c-3 -52 -2 -97 2 -99 15 -9 35 12 29 29
-4 9 -3 14 3 10 6 -3 11 -14 11 -23 1 -9 5 -1 9 18 l7 35 2 -44 c1 -31 -3 -42
-11 -38 -8 3 -14 -5 -14 -19 -2 -25 11 -33 19 -11 3 6 6 2 6 -11 1 -16 -3 -21
-11 -16 -10 6 -10 4 0 -7 6 -7 12 -18 12 -23 0 -6 -5 -4 -10 4 -8 13 -10 12
-10 -2 0 -10 5 -18 10 -18 6 0 10 -18 8 -44 -3 -38 -5 -43 -18 -33 -10 8 -9 5
2 -8 9 -11 19 -41 22 -65 l5 -45 -11 38 c-6 20 -15 37 -19 37 -10 0 7 -60 21
-74 14 -14 13 -39 -1 -30 -25 15 16 -236 67 -416 82 -288 224 -580 353 -725
48 -55 145 -133 244 -198 126 -83 420 -218 608 -280 183 -60 466 -129 599
-146 246 -32 778 -38 1065 -11 107 10 264 37 375 64 30 8 80 17 110 21 216 25
676 254 902 448 158 135 301 382 401 692 48 152 92 350 103 474 7 67 6 68 -20
75 -16 4 -26 13 -26 24 0 15 2 15 10 2 5 -8 10 -10 10 -4 0 6 -3 14 -7 18 -9
9 -4 86 7 106 6 10 8 5 8 -18 -1 -18 2 -35 5 -39 4 -3 7 11 7 33 0 21 3 49 6
62 4 13 2 22 -5 22 -7 0 -9 -4 -6 -10 3 -5 1 -10 -4 -10 -12 0 -13 5 -13 45 0
100 3 158 8 153 8 -9 11 -119 3 -124 -4 -2 -5 -13 -2 -24 8 -32 15 -16 18 42
2 29 8 54 13 56 5 1 8 12 5 22 -3 11 -1 20 5 20 12 0 13 39 1 55 -7 11 -6 52
3 60 5 6 15 -44 24 -125 3 -25 10 -72 15 -105 31 -205 -26 -614 -130 -933 -39
-118 -136 -311 -214 -427 -114 -168 -314 -345 -481 -428 -175 -86 -516 -210
-721 -262 -110 -27 -141 -30 -150 -15 -4 6 -14 8 -24 5 -70 -22 -290 -37 -611
-42 -362 -6 -539 2 -793 33 -96 12 -131 13 -141 5 -11 -9 -52 -2 -177 28 -263
65 -477 153 -711 295 -60 35 -108 61 -108 57 0 -12 200 -133 316 -192 125 -63
356 -143 549 -189 118 -28 130 -29 146 -14 10 9 22 13 27 10 12 -7 150 -24
299 -36 67 -5 287 -10 490 -11 349 -1 535 8 666 32 41 7 62 7 71 0 36 -30 469
98 771 229 142 61 162 73 281 161 215 161 346 329 473 604 28 61 51 105 51 99
0 -6 -13 -51 -29 -100 -17 -49 -32 -107 -35 -129 l-6 -40 11 35 c6 19 17 55
25 80 25 77 43 143 49 188 3 24 14 72 24 105 50 171 87 362 93 482 1 29 4 8 7
-50 3 -55 4 -104 1 -110 -3 -5 -6 -46 -6 -90 -1 -44 -14 -143 -28 -220 -43
-223 -222 -818 -226 -750 -1 10 -23 -48 -65 -166 -20 -58 -21 -69 -10 -97 12
-28 10 -40 -24 -139 -33 -94 -114 -291 -183 -445 -25 -56 -115 -149 -103 -108
5 19 4 21 -4 10 -6 -8 -8 -22 -6 -31 3 -9 -10 -29 -32 -50 -21 -18 -28 -23
-17 -9 34 41 39 58 6 20 -17 -19 -31 -40 -32 -46 -1 -34 -306 -294 -476 -406
-180 -120 -338 -200 -556 -282 l-68 -25 0 72 0 72 38 17 c20 9 91 38 157 64
232 90 320 141 573 332 260 196 507 444 595 597 83 142 107 253 68 304 -27 35
-64 21 -129 -45 -119 -122 -169 -341 -84 -360 15 -3 31 -7 36 -8 5 -1 -35 -51
-90 -111 -135 -148 -302 -290 -527 -449 -65 -46 -68 -47 -54 -19 39 75 28 161
-23 188 -41 21 -111 9 -161 -27 -53 -38 -104 -142 -95 -192 8 -41 44 -76 88
-85 32 -7 29 -8 -65 -49 -84 -38 -325 -132 -335 -132 -2 0 0 4 3 10 3 5 8 191
11 412 l5 403 202 52 c308 78 565 190 737 320 104 78 334 298 380 362 37 53 4
26 -89 -71 -85 -90 -281 -260 -361 -314 -58 -40 -321 -165 -429 -204 -89 -32
-325 -94 -405 -106 -30 -4 -51 -3 -55 4 -3 5 -6 -119 -6 -276 0 -158 -4 -410
-9 -559 l-9 -273 -26 0 c-14 0 -51 -7 -81 -15 -73 -20 -635 -32 -800 -16 -141
13 -317 31 -345 35 -16 2 -21 13 -26 52 -3 27 -2 54 2 60 11 14 9 94 -3 94 -4
0 -8 5 -8 11 0 5 4 8 9 5 16 -10 24 279 17 582 -4 165 -4 292 1 292 5 0 13 -4
19 -9 17 -17 381 -41 549 -36 401 11 623 23 643 34 11 6 22 11 24 11 2 0 -1
-75 -5 -167 -7 -149 -2 -812 7 -820 5 -6 16 455 17 760 1 158 -1 290 -3 293
-3 2 -36 -1 -74 -8 -49 -8 -211 -12 -564 -11 -272 1 -484 -2 -470 -6 30 -10
413 -26 565 -24 61 0 204 8 318 18 115 9 212 14 215 10 3 -3 -3 -15 -14 -26
-18 -18 -41 -21 -215 -31 -362 -20 -930 -9 -986 19 -18 9 -33 23 -33 31 0 12
10 14 55 8 35 -4 55 -2 55 4 0 6 -28 10 -65 10 l-65 0 0 -31 c0 -32 0 -32 -42
-26 -89 12 -456 127 -558 174 -194 90 -247 120 -340 189 -133 100 -323 288
-427 424 -86 113 -203 313 -259 441 -45 107 -105 303 -147 489 -35 151 -50
272 -62 510 -6 104 -10 131 -18 119 -1 -2 0 -92 4 -199 6 -189 15 -278 45
-445 8 -44 14 -91 14 -105 0 -14 5 -32 11 -40 9 -13 10 -12 5 2 -3 10 -1 20 4
23 10 6 15 -27 12 -75 -1 -17 1 -21 7 -12 6 10 10 7 15 -13 4 -14 4 -31 0 -37
-4 -6 -3 -8 2 -5 6 3 25 -40 43 -97 146 -461 574 -961 976 -1143 193 -87 262
-112 550 -198 44 -13 92 -27 106 -29 l26 -6 6 -226 c4 -125 7 -312 7 -417 l0
-189 -27 7 c-52 13 -208 74 -308 121 l-99 46 39 14 c53 18 75 47 75 98 -1 147
-194 274 -278 183 -30 -32 -37 -86 -18 -132 9 -21 14 -40 12 -42 -5 -5 -192
136 -306 231 -152 127 -390 367 -347 350 24 -9 67 39 67 73 0 81 -55 216 -116
283 -54 60 -100 85 -129 72 -58 -26 -46 -138 28 -282 29 -58 58 -104 64 -103
6 1 10 -5 9 -15 0 -9 6 -17 14 -17 8 0 43 -29 76 -65 34 -36 82 -86 105 -111
122 -128 433 -383 628 -515 64 -43 300 -150 419 -189 l82 -27 0 -74 c0 -41 -1
-74 -3 -74 -2 0 -56 20 -121 45 -142 54 -389 180 -507 258 -121 80 -327 248
-442 358 -87 83 -120 123 -84 103 6 -4 2 4 -10 18 -13 13 -23 28 -23 32 0 4
-20 49 -45 100 -25 52 -45 99 -45 105 0 6 -4 11 -10 11 -5 0 -10 -2 -10 -5 0
-12 103 -222 117 -240 10 -11 -9 5 -40 35 -53 52 -64 70 -138 240 -73 167
-174 430 -167 435 2 1 14 9 27 18 21 14 22 17 8 23 -9 3 -17 12 -17 19 0 23
-52 169 -80 225 -30 59 -130 372 -179 560 -55 206 -90 464 -93 675 -2 212 1
291 13 275 9 -12 10 -11 4 5 -7 23 16 235 26 235 4 0 10 25 14 55 10 87 17 64
11 -40z m4867 13 c3 -21 2 -38 -4 -38 -5 0 -9 19 -9 42 0 49 5 47 13 -4z m208
11 c-5 -13 -10 -19 -10 -12 -1 15 10 45 15 40 3 -2 0 -15 -5 -28z m226 -64
c21 -80 34 -281 27 -395 -5 -74 -10 -98 -15 -80 -6 17 -7 4 -6 -37 2 -35 0
-63 -4 -63 -4 0 -5 -9 -2 -20 3 -10 -4 -50 -16 -87 -18 -60 -26 -71 -63 -95
-23 -15 -44 -26 -45 -24 -2 2 9 52 23 112 22 93 27 139 31 318 5 187 -6 388
-24 450 -5 17 -2 17 38 -5 37 -21 45 -31 56 -74z m-5592 68 c-4 -10 -14 -81
-22 -158 -20 -190 -12 -389 22 -568 15 -77 25 -140 23 -143 -11 -10 -70 40
-87 75 -55 106 -75 533 -34 701 17 68 22 77 53 92 45 22 54 22 45 1z m352 -40
c-3 -10 -5 -2 -5 17 0 19 2 27 5 18 2 -10 2 -26 0 -35z m-198 -60 c6 -54 14
-172 17 -263 3 -91 7 -180 9 -198 2 -18 0 -30 -5 -27 -5 3 -5 -9 0 -26 10 -33
11 -147 2 -119 -3 8 -10 18 -16 22 -8 5 -7 8 2 8 14 0 17 56 2 65 -5 3 -10 17
-10 31 0 14 -6 24 -14 24 -17 0 -26 62 -13 86 7 12 6 15 -2 10 -7 -5 -11 5
-12 31 -4 122 11 354 22 328 7 -20 8 -20 8 1 1 11 -2 24 -5 27 -8 8 -11 97 -3
97 3 0 11 -44 18 -97z m5214 -84 c-3 -22 -1 -39 6 -43 6 -4 11 -12 11 -17 0
-6 -3 -8 -7 -6 -5 3 -8 -38 -9 -91 0 -133 -5 -191 -15 -198 -5 -3 -9 3 -10 13
-1 10 -3 36 -5 58 -15 155 -16 199 -5 289 18 148 23 163 32 91 4 -33 5 -76 2
-96z m-186 89 c-3 -8 -6 -5 -6 6 -1 11 2 17 5 13 3 -3 4 -12 1 -19z m-4664 -3
c-3 -9 -8 -14 -10 -11 -3 3 -2 9 2 15 9 16 15 13 8 -4z m-428 -4 c3 -5 1 -12
-5 -16 -5 -3 -10 1 -10 9 0 18 6 21 15 7z m5352 -23 c-3 -8 -6 -5 -6 6 -1 11
2 17 5 13 3 -3 4 -12 1 -19z m-5355 -195 c-4 -259 -9 -268 -11 -20 0 114 3
207 7 207 4 0 6 -84 4 -187z m5185 155 c-3 -8 -6 -5 -6 6 -1 11 2 17 5 13 3
-3 4 -12 1 -19z m140 0 c-3 -8 -6 -5 -6 6 -1 11 2 17 5 13 3 -3 4 -12 1 -19z
m37 7 c3 -8 1 -15 -4 -15 -6 0 -10 7 -10 15 0 8 2 15 4 15 2 0 6 -7 10 -15z
m-24 -77 c0 -39 -9 -32 -15 11 -2 18 0 29 6 26 5 -4 9 -20 9 -37z m-1 -113
c-1 -41 -5 -73 -9 -70 -3 2 -5 32 -4 67 3 80 3 78 10 78 3 0 4 -34 3 -75z
m-140 3 c-1 -68 -6 -61 -11 15 -2 26 0 47 4 47 5 0 7 -28 7 -62z m1 -190 c0
-67 -2 -119 -4 -117 -4 4 -10 201 -7 227 0 6 3 12 6 12 3 0 5 -55 5 -122z
m134 50 c-3 -29 -7 -64 -9 -78 -2 -14 -4 -40 -4 -57 -1 -18 -5 -33 -9 -33 -5
0 -5 26 -1 58 5 31 9 81 10 110 1 28 6 52 10 52 4 0 6 -24 3 -52z m-278 -20
c-3 -18 -10 -69 -16 -113 -29 -204 -60 -324 -125 -496 -70 -183 -177 -385
-197 -372 -7 4 -8 1 -3 -6 9 -15 -33 -63 -48 -54 -6 3 -7 1 -3 -6 9 -13 -12
-44 -24 -36 -4 3 -14 -3 -21 -12 -10 -12 -10 -14 -1 -9 30 18 7 -15 -49 -69
-54 -52 -58 -55 -34 -20 l29 40 -42 -39 c-22 -22 -39 -43 -36 -48 3 -4 1 -8
-3 -8 -5 0 -39 -23 -77 -50 -38 -28 -71 -48 -74 -45 -3 3 5 13 18 23 51 37
205 191 263 262 118 146 230 343 310 545 36 91 75 247 103 410 22 128 24 135
30 135 3 0 3 -15 0 -32z m-4244 -72 c2 -21 0 -32 -6 -29 -5 4 -7 -1 -3 -10 4
-10 10 -24 13 -32 3 -8 1 -15 -5 -15 -6 0 -11 10 -12 23 -4 80 -3 105 2 101 4
-2 9 -19 11 -38z m4555 12 c-3 -8 -6 -5 -6 6 -1 11 2 17 5 13 3 -3 4 -12 1
-19z m-83 -54 c3 -8 2 -12 -4 -9 -6 3 -10 10 -10 16 0 14 7 11 14 -7z m23 -76
c-3 -7 -5 -2 -5 12 0 14 2 19 5 13 2 -7 2 -19 0 -25z m-120 -80 c-3 -7 -5 -2
-5 12 0 14 2 19 5 13 2 -7 2 -19 0 -25z m-4807 -68 c0 -11 -2 -20 -4 -20 -2 0
-6 9 -9 20 -3 11 -1 20 4 20 5 0 9 -9 9 -20z m24 -85 c4 -19 3 -25 -3 -15 -4
8 -11 29 -15 45 -4 19 -3 25 3 15 4 -8 11 -28 15 -45z m393 33 c-3 -8 -6 -5
-6 6 -1 11 2 17 5 13 3 -3 4 -12 1 -19z m-368 -110 c6 -18 7 -28 2 -23 -10 12
-25 55 -18 55 3 0 10 -15 16 -32z m405 6 c3 -8 2 -12 -4 -9 -6 3 -10 10 -10
16 0 14 7 11 14 -7z m-339 -177 c70 -193 295 -480 499 -635 16 -12 24 -22 19
-22 -6 0 -48 29 -94 64 -200 150 -371 386 -444 611 -52 160 -41 150 20 -18z
m369 107 c3 -8 2 -12 -4 -9 -6 3 -10 10 -10 16 0 14 7 11 14 -7z m16 -174 c6
-11 8 -20 6 -20 -3 0 -10 9 -16 20 -6 11 -8 20 -6 20 3 0 10 -9 16 -20z m145
-100 c3 -5 1 -10 -4 -10 -6 0 -11 5 -11 10 0 6 2 10 4 10 3 0 8 -4 11 -10z
m-7 -111 c9 -12 9 -16 -1 -16 -7 0 -14 9 -14 20 -1 11 -1 18 0 16 2 -2 8 -11
15 -20z m111 -93 c10 -12 9 -14 -6 -11 -10 2 -22 4 -28 4 -5 1 -3 6 5 11 19
12 15 12 29 -4z m6 -86 c10 -11 16 -20 13 -20 -3 0 -13 9 -23 20 -10 11 -16
20 -13 20 3 0 13 -9 23 -20z m3275 0 c0 -5 -5 -10 -11 -10 -5 0 -7 5 -4 10 3
6 8 10 11 10 2 0 4 -4 4 -10z m-3044 -137 c-6 -6 -36 9 -36 18 0 5 9 4 20 -3
10 -7 18 -14 16 -15z m1459 -62 c127 -29 208 -68 319 -155 37 -29 170 -185
164 -192 -7 -6 -222 -24 -383 -30 -283 -12 -344 -11 -625 16 -52 5 -127 10
-165 11 -59 2 -71 5 -72 19 -4 44 166 206 274 262 42 22 58 35 50 41 -8 6 -5
7 7 3 10 -4 51 2 90 13 39 11 82 22 96 24 61 10 171 5 245 -12z m-2378 -158
c8 -51 -10 -33 -31 31 -9 26 -21 57 -27 67 -5 11 -7 25 -2 31 9 16 52 -77 60
-129z m4481 52 c-17 -41 -34 -75 -39 -75 -8 0 0 33 20 83 6 15 15 39 21 53 5
14 14 23 19 19 5 -3 -4 -39 -21 -80z m-3338 45 c13 -8 13 -10 -2 -10 -9 0 -20
5 -23 10 -8 13 5 13 25 0z m1500 -16 c0 -2 -9 0 -20 6 -11 6 -20 13 -20 16 0
2 9 0 20 -6 11 -6 20 -13 20 -16z m-930 -88 c0 -2 -8 -10 -17 -17 -16 -13 -17
-12 -4 4 13 16 21 21 21 13z m-1520 -166 c31 -16 46 -34 74 -92 60 -124 71
-206 29 -222 -16 -6 -16 -6 0 12 24 26 21 64 -9 125 -53 106 -98 170 -129 183
-16 7 -24 13 -17 14 7 0 30 -9 52 -20z m4031 -53 c-77 -112 -110 -214 -79
-245 9 -9 8 -12 -4 -12 -9 0 -18 8 -20 18 -11 50 39 197 84 248 42 48 55 42
19 -9z m-4003 -37 c54 -82 77 -153 59 -185 -11 -22 -13 -23 -32 -7 -35 29 -67
81 -91 150 -31 88 -31 114 -1 110 14 -2 36 -25 65 -68z m4086 24 c-1 -79 -107
-240 -140 -213 -23 19 -16 52 26 137 39 78 82 127 104 119 6 -2 11 -22 10 -43z
m-1957 -290 c-3 -3 -12 -4 -19 -1 -8 3 -5 6 6 6 11 1 17 -2 13 -5z m-1201
-459 c33 -26 64 -80 64 -114 0 -32 -17 -25 -29 12 -12 35 -58 89 -101 120
l-25 18 30 -6 c17 -4 44 -17 61 -30z m2182 -12 c-97 -99 -98 -193 -3 -193 14
0 36 5 48 11 21 10 21 10 3 -5 -28 -22 -79 -20 -111 6 -25 19 -27 26 -23 73 5
59 34 107 82 136 52 31 53 22 4 -28z m-2241 -10 c43 -27 83 -86 83 -121 0 -60
-70 -65 -128 -9 -60 57 -76 105 -45 139 22 25 42 23 90 -9z m2353 2 c23 -24
23 -25 6 -69 -30 -79 -107 -126 -147 -90 -51 46 25 182 102 184 8 0 26 -11 39
-25z m-2364 -180 c23 -11 46 -14 67 -10 24 5 28 4 17 -4 -37 -26 -122 5 -159
58 -31 43 -26 47 9 7 17 -18 46 -41 66 -51z"/>
<path d="M4102 8303 c-53 -132 -123 -370 -121 -406 1 -22 20 36 54 163 18 69
45 156 59 194 15 38 25 71 22 73 -2 2 -8 -9 -14 -24z"/>
<path d="M6316 8315 c19 -53 104 -333 114 -377 7 -27 14 -47 17 -45 13 13 -95
374 -127 423 -11 18 -11 18 -4 -1z"/>
<path d="M7259 7307 c8 -9 16 -15 19 -12 3 3 12 -1 21 -8 14 -11 14 -10 2 6
-8 9 -16 15 -19 12 -3 -3 -12 1 -21 8 -14 11 -14 10 -2 -6z"/>
<path d="M7295 7256 c10 -14 19 -26 22 -26 7 0 -17 39 -28 46 -6 3 -3 -5 6
-20z"/>
<path d="M7516 6857 c3 -10 9 -15 12 -12 3 3 0 11 -7 18 -10 9 -11 8 -5 -6z"/>
<path d="M7520 6821 c0 -6 4 -13 10 -16 6 -3 7 1 4 9 -7 18 -14 21 -14 7z"/>
<path d="M7540 6781 c0 -5 5 -13 10 -16 6 -3 10 -2 10 4 0 5 -4 13 -10 16 -5
3 -10 2 -10 -4z"/>
<path d="M7580 6770 c0 -5 5 -10 11 -10 5 0 7 5 4 10 -3 6 -8 10 -11 10 -2 0
-4 -4 -4 -10z"/>
<path d="M3956 8213 c-6 -14 -5 -15 5 -6 7 7 10 15 7 18 -3 3 -9 -2 -12 -12z"/>
<path d="M3921 8134 c0 -11 3 -14 6 -6 3 7 2 16 -1 19 -3 4 -6 -2 -5 -13z"/>
<path d="M3309 7503 c-13 -16 -12 -17 4 -4 16 13 21 21 13 21 -2 0 -10 -8 -17
-17z"/>
<path d="M3254 7448 l-19 -23 23 19 c21 18 27 26 19 26 -2 0 -12 -10 -23 -22z"/>
<path d="M3204 7388 c-40 -43 -108 -128 -102 -128 3 0 35 36 72 80 69 83 83
104 30 48z"/>
<path d="M3085 7209 c-4 -6 -5 -12 -2 -15 2 -3 7 2 10 11 7 17 1 20 -8 4z"/>
<path d="M3025 7189 c-3 -4 2 -6 10 -5 21 3 28 13 10 13 -9 0 -18 -4 -20 -8z"/>
<path d="M2999 7063 c-42 -100 -83 -171 -96 -166 -7 3 -13 1 -13 -5 0 -6 7 -9
16 -8 9 1 31 31 51 67 35 66 75 159 67 159 -3 0 -14 -21 -25 -47z"/>
<path d="M4865 7769 c-213 -19 -464 -52 -709 -94 l-255 -44 -110 -70 c-328
-208 -664 -529 -854 -816 -15 -22 -35 -51 -44 -65 -10 -13 -13 -21 -7 -18 6 4
24 26 40 50 198 293 581 651 889 833 71 42 98 51 255 85 376 82 749 130 1015
130 201 1 604 -19 720 -34 431 -56 746 -119 835 -168 213 -117 440 -310 685
-583 24 -27 24 -25 -4 15 -50 73 -209 242 -306 327 -126 110 -223 181 -347
257 l-107 65 -163 21 c-90 11 -235 32 -323 45 -286 44 -399 55 -657 65 -289
11 -411 11 -553 -1z"/>
<path d="M5518 7303 c7 -3 16 -2 19 1 4 3 -2 6 -13 5 -11 0 -14 -3 -6 -6z"/>
<path d="M3407 6846 c-4 -10 -1 -13 9 -9 7 3 14 9 14 14 0 14 -17 10 -23 -5z"/>
<path d="M3359 6773 c-13 -16 -12 -17 4 -4 9 7 17 15 17 17 0 8 -8 3 -21 -13z"/>
<path d="M7230 6511 c0 -5 5 -13 10 -16 6 -3 10 -2 10 4 0 5 -4 13 -10 16 -5
3 -10 2 -10 -4z"/>
<path d="M7205 6500 c-4 -7 2 -21 14 -33 l21 -21 -5 24 c-6 31 -21 45 -30 30z"/>
<path d="M3721 6374 c0 -11 3 -14 6 -6 3 7 2 16 -1 19 -3 4 -6 -2 -5 -13z"/>
<path d="M3111 6234 c0 -11 3 -14 6 -6 3 7 2 16 -1 19 -3 4 -6 -2 -5 -13z"/>
<path d="M7122 5980 c0 -14 2 -19 5 -12 2 6 2 18 0 25 -3 6 -5 1 -5 -13z"/>
<path d="M7212 5930 c0 -14 2 -19 5 -12 2 6 2 18 0 25 -3 6 -5 1 -5 -13z"/>
<path d="M7131 5924 c0 -11 3 -14 6 -6 3 7 2 16 -1 19 -3 4 -6 -2 -5 -13z"/>
<path d="M7325 5880 c3 -5 8 -10 11 -10 2 0 4 5 4 10 0 6 -5 10 -11 10 -5 0
-7 -4 -4 -10z"/>
<path d="M7335 5794 c5 -61 15 -69 13 -10 0 25 -4 49 -9 51 -4 3 -6 -15 -4
-41z"/>
<path d="M7182 5665 c0 -16 2 -22 5 -12 2 9 2 23 0 30 -3 6 -5 -1 -5 -18z"/>
<path d="M3401 4930 c-1 -9 8 -49 19 -90 26 -94 29 -104 35 -98 3 3 -1 27 -10
54 -8 27 -21 72 -29 99 -8 28 -15 43 -15 35z"/>
<path d="M3455 4720 c-7 -11 14 -55 22 -46 3 3 0 12 -6 20 -7 8 -10 20 -6 26
3 5 4 10 1 10 -3 0 -8 -4 -11 -10z"/>
<path d="M3496 4584 c-4 -9 -1 -23 5 -30 10 -13 49 -85 49 -92 0 -2 -6 0 -12
4 -9 6 -9 3 0 -9 8 -9 11 -20 8 -26 -4 -5 3 -7 16 -3 12 3 17 7 10 10 -6 2
-12 14 -12 27 0 12 -6 28 -14 34 -8 7 -18 26 -21 42 -4 16 -11 29 -15 29 -5 0
-7 7 -4 15 4 8 4 15 1 15 -3 0 -8 -7 -11 -16z"/>
<path d="M6783 4378 c-20 -26 -26 -41 -15 -34 12 7 36 46 29 46 -3 0 -9 -6
-14 -12z"/>
<path d="M6780 4325 c-7 -9 -8 -15 -2 -15 5 0 12 7 16 15 3 8 4 15 2 15 -2 0
-9 -7 -16 -15z"/>
<path d="M6679 4303 l-24 -28 28 24 c15 14 27 26 27 28 0 8 -8 1 -31 -24z"/>
<path d="M6645 4235 c-55 -51 -96 -97 -92 -102 5 -4 24 9 43 30 19 20 37 37
41 37 3 0 -2 -9 -12 -20 -13 -14 -14 -20 -5 -20 9 0 7 -7 -6 -21 -10 -11 -20
-16 -22 -10 -2 5 -30 -11 -63 -36 -33 -25 -58 -48 -54 -51 3 -3 19 4 35 17 17
12 36 19 42 15 6 -4 8 -3 5 3 -7 11 11 31 26 31 16 1 106 92 96 97 -5 4 -14 3
-21 -1 -7 -4 -2 7 11 25 13 18 26 30 29 27 2 -3 -1 -12 -8 -21 -14 -17 -8 -31
10 -20 6 4 10 17 8 30 -2 15 7 35 26 54 17 17 26 31 20 31 -5 -1 -54 -43 -109
-95z"/>
<path d="M3530 4242 c0 -5 7 -15 15 -22 8 -7 15 -8 15 -2 0 5 -7 15 -15 22 -8
7 -15 8 -15 2z"/>
<path d="M3385 4220 c10 -11 20 -20 23 -20 3 0 -3 9 -13 20 -10 11 -20 20 -23
20 -3 0 3 -9 13 -20z"/>
<path d="M3710 4205 c19 -19 36 -35 39 -35 3 0 -10 16 -29 35 -19 19 -36 35
-39 35 -3 0 10 -16 29 -35z"/>
<path d="M6564 4188 l-19 -23 23 19 c12 11 22 21 22 23 0 8 -8 2 -26 -19z"/>
<path d="M6500 4112 c-19 -15 -39 -32 -45 -38 -5 -7 -25 -21 -43 -32 -25 -15
-29 -21 -18 -25 10 -4 33 8 59 31 24 20 57 46 72 58 16 11 24 23 19 27 -5 3
-25 -6 -44 -21z"/>
<path d="M6439 4093 c-13 -16 -12 -17 4 -4 9 7 17 15 17 17 0 8 -8 3 -21 -13z"/>
<path d="M6580 4074 c-55 -43 -86 -75 -45 -46 36 25 102 81 95 81 -3 0 -25
-16 -50 -35z"/>
<path d="M6512 4048 c-6 -6 -20 -12 -30 -13 -20 -1 -115 -66 -107 -73 6 -6 75
40 75 50 0 4 6 5 14 2 7 -3 26 6 42 20 16 14 27 26 24 26 -4 0 -11 -5 -18 -12z"/>
<path d="M6320 4010 c-9 -6 -10 -10 -3 -10 6 0 15 5 18 10 8 12 4 12 -15 0z"/>
<path d="M6339 3992 c-13 -10 -57 -37 -97 -61 -41 -23 -71 -45 -69 -48 3 -2
14 0 25 6 11 6 23 7 27 3 5 -4 5 -1 0 7 -6 10 -2 12 13 6 21 -6 104 34 118 56
3 6 -17 -4 -44 -21 -27 -16 -55 -30 -63 -30 -8 0 15 18 51 40 36 22 70 40 77
40 6 0 15 5 18 10 10 17 -31 11 -56 -8z"/>
<path d="M6443 3978 c-13 -6 -23 -15 -23 -20 0 -5 11 -1 25 8 37 24 35 30 -2
12z"/>
<path d="M6214 3944 c-18 -14 -18 -15 4 -4 12 6 22 13 22 15 0 8 -5 6 -26 -11z"/>
<path d="M6333 3919 c-45 -29 -41 -34 7 -9 38 19 50 30 33 30 -5 0 -23 -10
-40 -21z"/>
<path d="M6145 3910 c-8 -13 5 -13 25 0 13 8 13 10 -2 10 -9 0 -20 -4 -23 -10z"/>
<path d="M6235 3871 c-22 -11 -35 -19 -30 -19 14 -1 93 36 80 37 -5 0 -28 -8
-50 -18z"/>
<path d="M4190 3767 c0 -8 111 -48 123 -44 5 1 -12 10 -39 19 -27 9 -57 19
-66 23 -10 4 -18 5 -18 2z"/>
<path d="M2530 4875 c0 -5 5 -17 10 -25 5 -8 10 -10 10 -5 0 6 -5 17 -10 25
-5 8 -10 11 -10 5z"/>
<path d="M2733 5640 c0 -25 2 -35 4 -22 2 12 2 32 0 45 -2 12 -4 2 -4 -23z"/>
<path d="M2748 5576 c-2 -12 -1 -37 3 -56 l6 -35 2 37 c0 20 6 40 11 43 15 9
12 32 -4 32 -8 0 -16 -10 -18 -21z"/>
<path d="M2788 5458 c7 -28 20 -31 18 -5 0 13 -6 24 -12 24 -6 0 -9 -9 -6 -19z"/>
<path d="M2703 5205 c0 -33 2 -45 4 -27 2 18 2 45 0 60 -2 15 -4 0 -4 -33z"/>
<path d="M2733 4990 c0 -30 2 -43 4 -27 2 15 2 39 0 55 -2 15 -4 2 -4 -28z"/>
<path d="M2736 4903 c-6 -14 -5 -15 5 -6 7 7 10 15 7 18 -3 3 -9 -2 -12 -12z"/>
<path d="M2774 4745 c3 -11 12 -60 21 -110 30 -164 63 -296 92 -367 8 -20 12
-42 8 -49 -6 -8 -4 -10 5 -4 10 6 12 4 6 -11 -4 -10 -4 -15 0 -12 3 4 32 -69
64 -162 32 -94 66 -187 76 -208 9 -20 32 -68 50 -107 18 -38 33 -64 34 -57 0
7 -14 41 -31 75 -59 118 -261 713 -274 805 -8 63 -38 198 -47 212 -7 12 -8 10
-4 -5z"/>
<path d="M7527 4233 c-4 -3 -7 -13 -7 -22 1 -13 3 -13 11 2 11 19 8 33 -4 20z"/>
<path d="M7473 4070 c-13 -27 -23 -55 -22 -62 0 -7 11 11 25 41 13 30 23 58
22 62 -2 4 -13 -15 -25 -41z"/>
<path d="M7425 3957 c-8 -20 -15 -47 -14 -59 1 -14 4 -8 10 16 5 22 14 46 21
53 6 7 8 16 5 20 -4 3 -14 -10 -22 -30z"/>
<path d="M7317 3677 l-18 -32 21 21 c13 12 21 27 19 33 -2 6 -12 -4 -22 -22z"/>
<path d="M3040 3623 c0 -4 5 -15 10 -23 8 -13 10 -13 10 2 0 9 -4 20 -10 23
-5 3 -10 3 -10 -2z"/>
<path d="M5000 3340 c-119 -6 -121 -6 -40 -8 47 -2 117 -7 155 -12 70 -8 453
7 467 19 9 8 -429 9 -582 1z"/>
<path d="M4939 2889 c-9 -5 15 -9 66 -9 44 -1 121 -2 170 -3 156 -3 333 5 300
13 -42 11 -519 10 -536 -1z"/>
<path d="M5025 2511 c-87 -6 -84 -6 85 -14 96 -5 191 -6 210 -3 19 2 77 5 129
5 52 1 92 3 90 5 -8 7 -425 13 -514 7z"/>
<path d="M4652 2442 c-10 -7 -10 -11 2 -21 11 -9 148 -12 563 -13 301 -1 557
1 568 4 11 4 24 7 30 7 5 1 3 7 -4 14 -9 9 -61 11 -219 7 -284 -7 -449 -6
-707 2 -121 5 -226 4 -233 0z"/>
<path d="M5920 2230 c0 -29 3 -50 7 -46 7 7 5 87 -3 95 -2 2 -4 -20 -4 -49z"/>
<path d="M4600 2183 c0 -11 84 -23 145 -22 l40 2 -45 7 c-25 4 -66 10 -92 14
-30 5 -48 5 -48 -1z"/>
<path d="M5725 2172 c-60 -7 -245 -17 -410 -21 l-300 -7 280 -2 c315 -1 576
18 544 41 -2 2 -53 -3 -114 -11z"/>
<path d="M4610 2150 c0 -13 34 -30 61 -30 28 0 23 5 -24 25 -20 8 -37 11 -37
5z"/>
<path d="M5795 2144 l-40 -13 40 5 c40 6 52 11 44 18 -2 2 -22 -3 -44 -10z"/>
<path d="M5802 2119 c-47 -10 -54 -22 -9 -16 36 5 55 13 46 20 -2 2 -19 0 -37
-4z"/>
<path d="M8016 5664 c-4 -10 -1 -21 6 -26 23 -14 29 -9 17 15 -16 30 -16 30
-23 11z"/>
<path d="M8017 5233 c-9 -16 -30 -164 -23 -170 3 -3 6 1 6 11 0 9 3 15 8 12 4
-2 6 12 4 32 -2 21 1 56 6 80 9 40 9 51 -1 35z"/>
<path d="M8040 5210 c-1 -3 -2 -33 -4 -67 -2 -62 -16 -93 -44 -93 -8 0 -13 -2
-10 -5 7 -8 58 5 56 14 -2 22 3 51 10 47 4 -2 6 14 4 37 -3 45 -9 75 -12 67z"/>
<path d="M8021 5134 c0 -11 3 -14 6 -6 3 7 2 16 -1 19 -3 4 -6 -2 -5 -13z"/>
<path d="M2361 5224 c-1 -24 17 -132 26 -154 3 -8 7 -18 7 -22 1 -3 5 -10 10
-15 5 -5 6 -3 2 5 -5 8 0 12 13 12 12 0 21 3 21 8 -1 4 -7 45 -15 92 l-14 85
2 -77 c2 -53 -1 -78 -9 -78 -8 0 -10 15 -7 43 2 23 0 60 -5 82 -8 31 -10 35
-12 15 l-2 -25 -8 25 c-7 22 -8 22 -9 4z m66 -160 c-3 -3 -12 -4 -19 -1 -8 3
-5 6 6 6 11 1 17 -2 13 -5z"/>
<path d="M7139 4093 c-13 -16 -12 -17 4 -4 16 13 21 21 13 21 -2 0 -10 -8 -17
-17z"/>
</g>
</svg>
