<?xml version="1.0" standalone="no"?>
<!DOCTYPE svg PUBLIC "-//W3C//DTD SVG 20010904//EN"
 "http://www.w3.org/TR/2001/REC-SVG-20010904/DTD/svg10.dtd">
<svg version="1.0" xmlns="http://www.w3.org/2000/svg"
 width="80" height="80" viewBox="0 0 641.842185 825.304235"
 preserveAspectRatio="xMidYMid meet">
<metadata>Created by Svg.la</metadata>
<g transform="translate(-191.657815,916.485945) scale(0.100000,-0.100000)"
fill="#ffffff" stroke="none">
<path d="M2436 9145 c-58 -62 -101 -336 -99 -624 4 -367 29 -638 94 -1006 34
-193 47 -245 81 -325 23 -52 56 -130 74 -172 l33 -78 -72 -42 c-40 -23 -88
-48 -107 -55 -48 -17 -231 -16 -305 2 -134 32 -140 17 -42 -117 41 -57 117
-165 170 -242 l97 -138 -141 -149 c-78 -82 -144 -149 -148 -149 -10 0 -101
-89 -101 -98 0 -5 86 -54 191 -108 105 -55 193 -105 196 -112 11 -27 -256
-403 -369 -520 -67 -68 -78 -85 -68 -97 6 -8 150 -85 318 -171 169 -86 311
-160 316 -164 9 -9 -113 -192 -246 -373 -49 -65 -78 -113 -74 -122 4 -12 25
-15 99 -15 115 0 189 -13 264 -47 32 -14 89 -38 128 -53 l70 -29 -4 -36 c-2
-34 3 -42 103 -139 l106 -102 -25 -90 c-69 -251 -86 -379 -64 -486 38 -193
114 -505 125 -517 13 -15 35 3 220 182 l70 68 38 -113 c97 -297 235 -532 489
-836 100 -120 101 -119 107 113 l6 190 71 215 c39 118 81 259 94 313 13 53 26
94 29 90 4 -5 22 -51 39 -103 29 -83 123 -332 206 -542 15 -38 31 -68 36 -68
5 0 46 28 91 63 91 68 138 100 142 95 1 -2 20 -52 41 -113 29 -85 118 -319
151 -401 7 -16 -116 -198 -126 -188 -9 10 -47 135 -74 249 -21 86 -29 100 -51
91 -16 -6 -17 -16 -12 -79 4 -40 22 -135 41 -210 31 -125 43 -152 117 -285 46
-81 119 -208 164 -282 45 -74 103 -172 129 -217 26 -46 52 -86 58 -89 16 -10
30 10 139 196 271 464 300 516 324 595 57 189 78 366 44 373 -12 2 -25 -31
-60 -159 -24 -88 -47 -166 -52 -172 -9 -15 -48 29 -96 108 -40 65 -47 29 62
322 42 112 78 216 82 233 4 16 9 30 12 30 4 0 29 -17 57 -38 125 -94 166 -122
175 -122 11 0 202 488 277 709 2 8 6 12 8 10 2 -2 20 -67 40 -143 20 -76 62
-214 93 -305 l57 -166 4 -193 c5 -260 1 -259 169 -43 150 193 289 407 339 523
35 79 90 234 120 337 3 8 50 -31 124 -100 121 -115 164 -148 175 -138 8 9 109
427 130 541 18 97 18 97 -4 204 -13 58 -38 161 -56 228 l-34 121 107 101 c99
93 106 103 107 139 l0 38 137 59 c135 58 137 59 255 64 137 6 163 10 163 26 0
6 -24 43 -54 82 -91 120 -276 400 -268 407 4 4 141 75 305 159 164 84 308 161
320 171 l22 18 -76 78 c-95 98 -152 172 -266 343 -107 160 -117 180 -106 190
4 5 92 52 196 105 103 53 187 102 187 109 0 7 -30 38 -66 69 -90 78 -314 314
-314 331 0 7 8 24 19 37 86 111 309 443 304 455 -7 18 -18 18 -116 -2 -56 -12
-112 -15 -187 -12 -105 4 -108 5 -194 52 -48 26 -89 53 -92 60 -3 7 22 85 56
172 70 183 70 183 95 630 20 374 20 899 0 1037 -34 232 -70 358 -106 378 -28
15 -63 -24 -133 -149 -72 -128 -83 -141 -287 -327 -211 -192 -484 -377 -807
-545 l-102 -53 -58 11 c-31 6 -111 22 -177 36 -156 33 -379 62 -585 76 -102 7
-203 21 -265 36 -120 29 -136 29 -245 3 -47 -11 -186 -28 -310 -39 -268 -23
-449 -49 -662 -94 l-157 -33 -53 27 c-412 213 -738 411 -904 550 -221 184
-246 211 -341 354 -50 77 -99 143 -107 148 -12 7 -23 2 -40 -17z m131 -310
c131 -211 193 -267 357 -329 37 -14 85 -38 109 -54 52 -35 287 -175 382 -227
39 -21 129 -75 200 -120 151 -95 308 -188 347 -206 l27 -12 -43 -48 c-48 -53
-49 -58 -67 -249 l-12 -125 -316 -323 c-173 -178 -328 -330 -344 -339 -16 -8
-99 -39 -185 -70 -193 -68 -275 -106 -301 -139 l-20 -26 -36 22 c-19 12 -35
25 -35 30 0 7 69 90 346 420 64 77 113 148 352 515 l71 111 -22 74 c-18 56
-28 75 -40 74 -10 -1 -55 -24 -102 -50 -77 -44 -86 -52 -91 -84 -16 -101 -36
-198 -45 -221 -6 -15 -26 -35 -44 -45 l-34 -18 -78 40 c-62 31 -82 47 -100 79
-34 61 -176 403 -270 650 -98 257 -114 338 -116 585 -2 152 4 210 22 210 5 0
45 -56 88 -125z m5083 99 c13 -32 12 -308 0 -436 -10 -101 -25 -160 -117 -468
-93 -313 -161 -521 -178 -547 -20 -30 -108 -73 -151 -73 -54 0 -71 30 -93 169
-11 69 -26 130 -33 137 -30 28 -179 107 -187 98 -5 -5 -19 -40 -30 -77 -15
-50 -18 -74 -11 -88 6 -10 84 -130 174 -266 182 -277 200 -301 519 -671 l77
-91 -33 -25 c-19 -14 -38 -26 -43 -26 -4 0 -25 16 -45 36 -28 27 -69 47 -180
88 -310 114 -253 73 -621 444 l-325 327 -12 144 c-7 79 -17 155 -22 170 -6 14
-28 44 -50 67 l-39 40 95 55 c52 29 152 92 222 138 71 46 198 129 283 184 85
55 186 122 224 149 37 28 114 73 170 100 139 69 215 148 310 322 39 69 74 126
78 126 5 0 13 -12 18 -26z m-5174 -859 c13 -49 52 -173 85 -274 58 -178 61
-189 66 -315 7 -151 7 -152 110 -289 40 -54 73 -104 73 -110 0 -23 -61 -118
-73 -114 -7 2 -49 78 -94 168 -71 141 -85 179 -103 269 -43 217 -70 391 -89
580 -12 107 -23 213 -25 235 -4 39 -4 39 10 -10 8 -27 26 -90 40 -140z m5233
20 c-38 -624 -51 -778 -69 -824 -44 -111 -141 -302 -151 -299 -6 2 -25 29 -42
60 l-32 56 62 89 c113 163 112 160 106 326 l-6 144 62 284 c34 156 64 295 67
308 11 54 13 6 3 -144z m-2503 47 c13 -7 -70 -132 -87 -132 -5 0 -25 24 -44
54 -19 30 -40 58 -46 62 -8 4 -7 9 2 15 17 11 160 12 175 1z m-208 -146 l74
-119 -7 -368 -8 -368 -72 66 c-84 76 -135 111 -135 93 0 -12 125 -199 181
-270 l27 -36 5 -409 c3 -331 7 -423 20 -475 21 -84 24 -459 5 -464 -7 -2 -51
-9 -97 -15 -141 -18 -230 -72 -302 -183 -43 -68 -63 -157 -53 -243 10 -85 27
-62 41 54 14 118 35 162 108 230 62 57 134 89 236 102 216 29 400 -29 486
-154 38 -57 50 -95 63 -201 5 -43 12 -81 15 -84 14 -14 20 18 20 101 0 78 -4
101 -27 149 -66 141 -220 238 -380 238 -57 0 -52 -26 -49 245 2 117 8 216 17
258 11 52 14 161 14 462 0 228 4 396 9 399 11 7 181 249 200 284 12 23 12 23
-11 11 -13 -6 -60 -43 -106 -82 -45 -38 -84 -68 -86 -66 -2 2 -6 166 -9 365
l-7 361 70 110 c38 61 75 115 82 120 9 7 119 3 348 -13 292 -20 350 -27 449
-53 62 -16 118 -34 123 -39 6 -6 -12 -21 -51 -42 -34 -18 -61 -38 -61 -43 0
-6 37 -45 83 -88 l82 -76 3 -176 c4 -206 -12 -368 -63 -623 -60 -300 -73 -319
-288 -405 -73 -28 -157 -64 -187 -79 -74 -37 -196 -163 -204 -211 -3 -19 -11
-63 -17 -99 -13 -80 -24 -491 -15 -554 9 -58 21 -52 30 14 10 73 51 209 102
337 37 93 42 116 34 138 -5 14 -10 30 -10 36 0 11 70 90 204 229 93 97 110
110 209 159 104 53 108 54 148 42 23 -7 43 -11 45 -9 11 12 134 674 134 726 0
76 1 75 309 -230 l296 -293 179 -80 c105 -47 193 -93 212 -110 51 -49 55 -80
52 -447 l-3 -333 -41 -85 c-72 -150 -299 -507 -438 -688 -105 -137 -163 -188
-295 -257 -221 -115 -298 -188 -396 -377 -93 -178 -114 -255 -150 -550 -40
-331 -122 -681 -193 -823 -52 -106 -145 -198 -237 -233 -122 -48 -354 -33
-480 30 -69 35 -85 56 -85 109 0 47 0 47 44 62 80 27 149 80 210 160 31 42 76
90 99 106 55 38 138 125 171 178 35 57 66 154 66 205 0 24 -12 70 -26 103 -60
142 -63 157 -89 538 l-16 217 25 63 c21 54 25 84 30 232 10 313 68 454 238
579 l37 28 63 -30 c105 -49 133 -55 236 -50 86 5 101 9 178 48 194 98 313 294
327 539 5 77 7 80 158 170 122 72 317 213 302 218 -6 2 -55 -17 -109 -42 -190
-89 -240 -102 -455 -119 -107 -9 -225 -19 -264 -22 -38 -3 -88 -14 -111 -24
-56 -24 -175 -138 -237 -227 -28 -40 -52 -71 -55 -69 -6 7 74 199 108 257 37
62 215 319 272 390 25 33 59 59 99 80 34 16 59 32 57 34 -2 3 -33 0 -68 -7
-61 -10 -67 -14 -132 -82 -187 -198 -310 -405 -408 -691 -26 -76 -56 -141 -81
-178 -22 -31 -51 -84 -65 -117 -38 -95 -100 -326 -119 -445 -9 -60 -20 -118
-24 -128 -4 -12 -33 37 -96 162 -49 99 -92 175 -94 169 -2 -5 4 -69 13 -141 8
-73 20 -217 25 -322 7 -157 13 -200 31 -245 17 -44 21 -74 20 -155 -1 -130 14
-265 45 -393 14 -57 25 -105 25 -107 0 -3 -37 12 -82 31 -127 54 -182 64 -370
64 -189 0 -267 -12 -383 -61 -41 -18 -77 -30 -79 -28 -2 2 10 56 26 119 25 98
31 143 37 300 7 155 11 195 30 245 19 50 24 91 32 265 5 113 16 256 24 319 14
101 14 134 1 120 -2 -2 -27 -54 -55 -116 -28 -61 -68 -142 -88 -180 -32 -57
-38 -64 -41 -43 -16 143 -112 511 -154 593 -11 23 -38 67 -59 97 -26 37 -55
104 -89 204 -85 251 -192 436 -360 623 -95 106 -102 110 -202 129 -21 3 -38 4
-38 1 0 -3 29 -20 64 -37 72 -34 92 -58 268 -315 101 -148 142 -223 183 -331
32 -85 32 -99 -2 -49 -81 122 -209 249 -276 274 -28 11 -39 12 -357 37 -201
16 -207 17 -316 59 -61 24 -143 59 -182 79 -40 20 -72 32 -72 27 0 -16 146
-123 302 -222 79 -50 146 -96 150 -103 4 -6 8 -36 8 -66 1 -157 72 -324 184
-435 167 -166 368 -200 569 -98 l49 24 39 -26 c65 -46 139 -132 168 -198 50
-111 63 -178 68 -367 4 -157 7 -182 30 -242 l25 -66 -16 -239 c-22 -309 -31
-373 -69 -458 -28 -63 -31 -80 -32 -170 0 -95 2 -103 34 -162 41 -76 120 -164
193 -217 29 -22 69 -61 88 -88 50 -74 136 -145 202 -170 l58 -21 0 -53 c0 -51
-2 -55 -37 -77 -100 -61 -178 -80 -328 -80 -94 0 -134 5 -185 21 -113 37 -228
160 -281 301 -58 153 -129 486 -163 764 -41 321 -58 384 -157 564 -100 179
-163 240 -358 342 -154 81 -221 138 -328 279 -143 187 -346 504 -445 693 l-33
64 0 350 c0 380 3 405 54 448 15 12 112 61 216 107 l189 84 284 288 c157 158
287 287 288 285 2 -2 10 -48 18 -103 25 -163 122 -672 131 -682 1 -1 22 3 46
9 43 11 46 11 154 -43 107 -54 114 -60 229 -184 66 -71 135 -145 154 -165 33
-36 33 -37 18 -66 -14 -29 -13 -35 46 -189 33 -87 69 -199 79 -248 19 -91 24
-105 37 -92 15 16 6 427 -12 564 -21 151 -37 185 -131 270 -44 40 -80 60 -187
103 -210 85 -269 117 -301 166 -65 99 -147 587 -146 873 0 194 3 202 99 290
91 83 90 76 8 124 -27 15 -48 31 -48 36 0 21 215 68 370 80 394 32 469 38 509
36 l44 -1 75 -119z m-2503 -1271 c11 -3 38 -21 60 -40 l40 -34 -18 -31 c-10
-16 -15 -34 -12 -40 3 -5 33 -28 65 -51 58 -40 60 -44 60 -86 0 -53 22 -64
-230 110 -196 136 -240 168 -240 177 0 6 247 1 275 -5z m5525 6 c0 -10 -377
-277 -457 -325 -10 -5 -13 4 -13 36 0 42 2 45 65 90 62 45 78 69 55 83 -24 15
-8 51 38 85 l48 35 132 0 c73 0 132 -2 132 -4z m-3488 -423 c35 -27 68 -92 54
-106 -7 -7 -136 117 -169 163 l-22 30 50 -29 c28 -16 67 -42 87 -58z m1294 60
c-22 -32 -157 -168 -166 -168 -4 0 -3 18 2 40 11 41 41 70 128 122 55 33 55
33 36 6z m-3165 -68 c47 -34 40 -69 -36 -181 l-66 -96 -192 -17 c-106 -9 -204
-18 -219 -20 -16 -1 -28 0 -28 3 0 3 31 27 68 54 37 26 90 65 117 87 42 33 66
42 150 61 55 11 113 28 128 36 l28 14 -25 44 c-14 24 -26 48 -26 54 0 14 58
-9 101 -39z m5019 46 c0 -3 -11 -26 -25 -52 l-25 -48 28 -17 c15 -10 74 -28
131 -40 101 -22 106 -24 195 -94 50 -40 101 -77 114 -84 38 -20 26 -33 -25
-27 -27 3 -126 13 -220 23 l-173 17 -66 96 c-54 80 -65 102 -62 131 3 29 11
38 58 66 51 31 70 39 70 29z m-3745 -390 c28 -14 44 -25 36 -25 -35 -2 -101
-44 -120 -77 -29 -49 -28 -118 3 -158 88 -117 253 -64 261 83 3 58 2 56 20 41
8 -7 15 -20 15 -30 0 -10 7 -23 15 -30 8 -7 12 -17 9 -22 -3 -5 3 -16 15 -24
22 -16 30 -74 10 -74 -6 0 -9 -5 -7 -12 2 -6 -3 -19 -11 -28 -9 -9 -25 -28
-36 -41 -34 -43 -89 -62 -164 -57 -81 6 -132 31 -195 95 -107 108 -126 249
-46 346 30 35 35 37 88 37 39 0 72 -8 107 -24z m2550 10 c11 -8 31 -35 44 -61
32 -64 26 -162 -12 -228 -66 -113 -170 -177 -283 -177 -57 0 -134 32 -134 55
0 8 -4 15 -9 15 -5 0 -16 15 -24 33 -17 35 -14 106 6 141 12 21 13 27 16 49 1
6 12 25 25 41 l24 29 -5 -46 c-8 -71 4 -113 44 -152 32 -31 42 -35 90 -35 47
0 58 4 93 36 98 88 65 220 -63 255 -36 10 -39 12 -22 22 63 35 176 47 210 23z
m-4120 -37 c55 -6 102 -12 103 -14 4 -4 -48 -95 -54 -95 -2 0 -56 23 -121 51
-65 28 -124 53 -130 56 -7 3 -13 8 -13 12 0 9 68 5 215 -10z m5675 -15 c-65
-31 -210 -94 -216 -94 -2 0 -16 18 -30 40 -19 28 -24 44 -17 51 13 13 122 26
233 28 l85 1 -55 -26z m-5370 -45 c22 -28 40 -61 40 -72 0 -12 -34 -67 -75
-122 -41 -55 -74 -103 -75 -106 0 -4 32 -23 70 -43 39 -21 70 -40 70 -44 -1
-4 -28 -38 -60 -76 -33 -39 -60 -75 -60 -82 0 -18 84 -82 292 -221 l186 -125
-18 -52 c-10 -28 -27 -73 -39 -99 -12 -27 -21 -52 -21 -57 0 -4 31 -32 70 -61
76 -58 75 -67 -5 -68 -22 -1 -46 -5 -54 -10 -17 -11 17 -22 144 -50 108 -23
189 -56 182 -74 -3 -6 -26 -56 -51 -109 -26 -56 -40 -98 -34 -98 7 0 62 50
122 110 l110 111 70 -7 c39 -4 89 -16 111 -27 45 -22 229 -203 268 -263 24
-36 53 -131 43 -141 -2 -2 -48 1 -102 6 -55 6 -222 22 -372 35 -160 14 -279
29 -287 36 -8 7 -31 42 -51 78 -81 146 -175 270 -384 507 -58 66 -116 133
-128 149 -12 16 -45 101 -73 190 -28 88 -56 167 -61 174 -20 23 -164 15 -277
-17 l-103 -29 45 47 c60 62 192 238 252 336 27 44 75 123 108 175 33 52 67
107 76 122 9 16 19 28 23 28 4 0 26 -23 48 -51z m888 -47 c27 -101 58 -167
121 -253 52 -71 113 -117 200 -150 46 -18 84 -23 209 -27 85 -2 150 -8 145
-12 -15 -15 -130 -40 -181 -40 -120 0 -246 47 -328 122 -101 92 -187 267 -201
408 -8 76 9 54 35 -48z m3142 -49 c-39 -143 -130 -283 -227 -349 -112 -77
-289 -102 -418 -59 l-60 20 155 6 c217 9 290 36 389 145 61 67 134 212 151
299 15 83 23 98 28 52 2 -20 -6 -72 -18 -114z m1056 -64 c125 -200 241 -361
318 -443 49 -51 53 -58 34 -51 -141 49 -310 71 -358 45 -11 -6 -24 -29 -30
-53 -6 -23 -29 -98 -51 -167 -44 -139 -25 -111 -277 -402 -133 -153 -240 -300
-302 -416 -17 -33 -39 -64 -49 -67 -9 -4 -83 -13 -166 -20 -238 -22 -475 -44
-532 -51 -51 -6 -53 -6 -53 18 0 70 50 146 184 280 99 99 143 123 242 132 l71
7 57 -65 c62 -71 163 -162 171 -154 3 3 -16 49 -41 103 -35 72 -44 102 -37
114 14 22 83 46 208 73 105 22 139 40 85 46 -14 1 -44 5 -68 8 l-44 5 71 55
c39 31 71 61 71 68 0 8 -12 40 -26 72 -15 33 -32 76 -40 96 l-13 37 127 82
c236 153 352 240 352 265 0 7 -27 42 -60 78 -33 37 -60 71 -60 76 0 5 32 25
70 46 39 20 70 40 70 45 0 5 -23 37 -51 71 -28 35 -62 82 -76 106 -29 49 -26
65 29 134 22 28 33 36 43 28 6 -5 66 -96 131 -201z m-3742 135 c23 -9 40 -68
26 -94 -28 -52 -94 -61 -125 -17 -45 64 23 140 99 111z m2306 -14 c49 -49 3
-139 -65 -126 -39 8 -55 31 -55 77 0 28 6 42 22 53 31 22 74 20 98 -4z m-3405
-495 c131 -205 138 -216 131 -222 -3 -3 -22 7 -43 23 -64 48 -253 206 -253
211 0 7 75 112 80 113 3 0 41 -56 85 -125z m4545 68 l41 -57 -33 -25 c-18 -14
-73 -60 -123 -102 -107 -90 -141 -113 -149 -101 -4 7 209 342 219 342 2 0 22
-26 45 -57z m-5011 -300 c32 -121 35 -143 20 -143 -37 0 -389 145 -389 161 0
4 44 17 98 29 53 12 102 23 107 25 6 2 40 4 76 4 l67 1 21 -77z m5619 47 c50
-12 92 -25 92 -29 0 -19 -393 -176 -399 -159 -2 5 9 57 25 115 l28 106 80 -6
c45 -2 123 -15 174 -27z m-4803 -304 c47 -63 78 -93 142 -136 45 -30 80 -56
78 -58 -1 -2 -42 0 -89 4 -84 7 -89 9 -176 65 -101 66 -102 67 -70 162 26 77
31 85 44 63 6 -10 38 -55 71 -100z m3830 23 c14 -45 24 -83 23 -84 -2 -1 -43
-29 -93 -62 -90 -61 -90 -61 -180 -67 -88 -6 -89 -6 -65 11 106 76 152 119
210 196 36 48 68 87 72 87 4 0 19 -37 33 -81z m-2384 -176 c-5 -65 -14 -129
-19 -143 -9 -23 -11 -21 -27 33 -18 55 -18 59 -1 115 25 80 45 126 52 119 3
-3 1 -59 -5 -124z m877 -30 c5 -47 -16 -139 -29 -126 -13 13 -29 132 -28 208
l1 70 25 -54 c14 -30 28 -74 31 -98z m2104 -69 c57 -76 111 -148 121 -160 18
-23 18 -24 0 -16 -95 40 -313 177 -313 197 0 11 77 115 85 115 2 0 50 -61 107
-136z m-4982 76 c33 -39 40 -53 31 -64 -29 -35 -321 -209 -321 -191 0 4 30 46
68 93 37 48 88 115 112 149 25 34 50 63 57 63 6 0 30 -23 53 -50z m153 -230
c26 -33 47 -64 47 -70 0 -14 -67 -120 -76 -120 -4 0 -77 20 -163 44 -86 25
-178 47 -205 51 -26 4 -44 10 -40 14 20 18 354 141 379 140 6 0 31 -27 58 -59z
m4787 -12 c91 -34 169 -64 174 -69 4 -4 -14 -10 -40 -13 -27 -4 -116 -25 -199
-47 -82 -23 -158 -43 -167 -46 -12 -3 -25 9 -43 37 -53 84 -53 82 6 150 62 72
37 73 269 -12z m-4610 -286 c23 -56 47 -105 52 -108 67 -42 359 -66 547 -45
58 6 108 8 113 3 4 -4 2 -29 -6 -55 l-14 -46 45 -29 c61 -40 166 -144 202
-201 32 -51 47 -91 34 -91 -5 0 -54 31 -110 69 -147 100 -233 128 -471 155
-114 13 -128 17 -185 52 -133 82 -346 240 -347 258 -1 18 83 157 90 149 4 -4
26 -54 50 -111z m4264 44 c20 -35 36 -70 36 -77 0 -21 -108 -107 -277 -221
-109 -74 -113 -76 -200 -87 -304 -40 -368 -61 -529 -167 -54 -35 -102 -64
-106 -64 -12 0 18 68 49 113 32 46 145 153 191 180 l34 20 -7 60 -7 60 33 -6
c19 -4 111 -9 205 -13 141 -6 188 -4 270 11 54 9 113 23 130 30 32 13 31 12
110 203 7 18 18 31 23 28 5 -4 25 -35 45 -70z m-2024 -337 c0 -6 9 -9 20 -6
27 7 150 -31 157 -49 3 -8 14 -14 24 -14 10 0 19 -4 19 -9 0 -5 14 -14 30 -21
36 -15 49 -31 20 -25 -11 2 -20 0 -20 -4 0 -11 -57 -24 -89 -21 -16 1 -21 -2
-16 -10 4 -7 7 -32 7 -56 -1 -27 3 -42 8 -39 6 3 10 2 10 -4 0 -6 -8 -15 -17
-20 -35 -18 -163 -158 -163 -176 0 -6 -8 -22 -17 -35 -10 -14 -18 -29 -18 -35
-3 -32 -20 -93 -33 -112 -12 -20 -23 -23 -81 -23 -36 0 -71 4 -77 8 -6 4 -19
36 -28 72 -10 36 -30 88 -44 115 -25 51 -184 219 -196 208 -3 -4 -6 -1 -6 5 0
7 -12 12 -27 13 -25 0 -26 1 -8 9 11 5 17 9 12 9 -4 1 -1 14 7 30 9 16 13 31
10 34 -9 9 -35 -4 -28 -14 3 -5 -2 -9 -11 -9 -9 0 -14 4 -11 8 2 4 -4 14 -16
21 -11 7 -17 8 -14 2 4 -7 1 -8 -8 -5 -20 8 0 54 24 54 9 0 26 11 38 25 12 14
26 26 32 26 15 2 22 4 55 18 17 7 56 15 88 18 32 3 60 10 63 14 8 14 304 11
304 -2z m-2096 -84 c47 -23 112 -43 195 -60 68 -14 141 -30 162 -35 l38 -11
-23 -52 c-38 -88 -151 -259 -313 -476 -85 -113 -158 -207 -162 -209 -10 -3
-24 263 -23 438 1 69 10 193 21 275 12 83 21 153 21 158 0 12 8 9 84 -28z
m3977 -132 c15 -114 23 -212 22 -304 -1 -187 -13 -411 -23 -407 -12 5 -305
400 -364 491 -71 109 -126 210 -126 230 0 19 25 27 200 63 124 25 186 47 225
78 11 8 25 16 31 16 7 0 20 -65 35 -167z m-3386 -41 c63 -31 138 -88 192 -143
l42 -44 -149 -230 c-265 -410 -315 -485 -320 -485 -15 0 -89 197 -121 323
l-20 78 59 78 c71 94 149 243 192 369 37 104 31 102 125 54z m2820 -57 c41
-123 117 -273 185 -364 l61 -82 -17 -67 c-17 -68 -97 -295 -114 -322 -5 -8
-11 -12 -13 -10 -3 3 -48 73 -102 155 -53 83 -107 166 -120 185 -42 64 -170
264 -203 316 -18 28 -32 55 -32 61 0 14 95 102 155 143 57 39 157 82 167 72 3
-4 18 -43 33 -87z m674 -62 c5 -33 4 -75 -3 -110 l-11 -58 -6 95 c-3 52 -9
122 -12 155 l-7 60 15 -45 c9 -25 19 -69 24 -97z m-4272 -18 c-13 -127 -14
-129 -21 -73 -6 41 -3 78 10 139 10 46 19 79 21 73 1 -5 -3 -67 -10 -139z
m2478 135 c3 -5 1 -10 -4 -10 -6 0 -11 5 -11 10 0 6 2 10 4 10 3 0 8 -4 11
-10z m-1951 -177 c-36 -83 -94 -168 -169 -248 l-66 -70 53 75 c30 41 72 100
94 130 22 30 55 81 73 113 18 31 34 57 37 57 2 0 -8 -26 -22 -57z m1156 31 c0
-8 -5 -12 -10 -9 -6 4 -8 11 -5 16 9 14 15 11 15 -7z m2207 -252 c30 -41 52
-76 50 -78 -7 -7 -114 121 -152 181 -35 54 -85 150 -85 162 0 4 30 -38 67 -92
36 -55 90 -133 120 -173z m-2807 34 l21 -63 -25 -116 c-25 -113 -52 -214 -150
-550 -29 -101 -46 -179 -47 -215 0 -43 -2 -52 -9 -35 -15 36 -31 212 -33 364
l-2 144 97 240 c53 132 100 252 103 268 4 15 11 27 15 27 5 0 18 -29 30 -64z
m2178 -101 c33 -88 81 -212 107 -275 42 -100 48 -123 47 -180 -2 -81 -20 -308
-31 -375 l-7 -50 -8 55 c-5 30 -50 201 -101 380 -115 399 -130 473 -110 529
16 46 35 84 40 79 2 -1 30 -75 63 -163z m155 -132 c19 -32 77 -125 130 -206
53 -81 99 -157 102 -168 5 -13 -8 -45 -40 -99 -26 -44 -50 -82 -55 -85 -4 -2
-3 16 2 41 11 50 6 74 -16 74 -9 0 -21 -21 -31 -57 -9 -32 -23 -78 -31 -103
l-14 -45 5 60 c2 33 10 119 16 190 l12 130 -35 95 c-20 52 -47 125 -61 163
-14 37 -24 67 -22 67 2 0 19 -26 38 -57z m-2564 -5 c-12 -29 -39 -102 -60
-161 l-39 -108 15 -167 c8 -92 17 -183 20 -202 l5 -35 -12 35 c-6 19 -21 71
-33 115 -15 53 -28 81 -39 83 -13 3 -16 -5 -16 -37 0 -22 5 -52 10 -67 6 -15
9 -29 7 -31 -6 -5 -117 179 -117 193 0 6 53 93 118 195 178 277 176 276 141
187z m512 -214 c13 -14 43 -37 67 -51 l42 -25 0 -91 c0 -51 -3 -109 -7 -130
l-6 -38 -29 73 c-40 101 -108 280 -108 284 0 11 20 1 41 -22z m1559 20 c0 -19
-135 -342 -142 -338 -4 3 -8 56 -8 119 l0 113 48 35 c26 20 56 45 66 56 18 20
36 28 36 15z m-390 -203 l75 -6 -50 -29 c-94 -56 -260 -135 -306 -146 l-47
-12 -11 -76 c-21 -143 -65 -352 -72 -345 -8 8 -79 370 -79 401 0 13 -16 23
-57 36 -68 22 -277 125 -313 155 l-25 20 55 2 c30 1 98 5 150 9 99 9 549 3
680 -9z m-907 -101 c-4 -4 -25 -17 -45 -29 l-38 -23 0 40 c0 69 6 75 51 45 22
-14 36 -29 32 -33z m1079 -2 c2 -27 0 -48 -5 -48 -4 0 -22 10 -40 22 -18 13
-34 24 -36 26 -3 1 11 15 30 31 19 16 37 26 41 23 3 -4 8 -28 10 -54z m-862
-89 l68 -40 17 -72 c22 -89 103 -360 144 -482 l31 -90 0 -309 c0 -189 -4 -306
-9 -301 -25 27 -191 478 -191 521 0 12 14 65 32 116 46 138 45 152 -44 373
-96 238 -129 325 -122 325 3 0 36 -18 74 -41z m635 24 c-12 -28 -102 -257
-150 -384 -28 -73 -45 -132 -45 -159 0 -24 16 -91 36 -149 l36 -105 -23 -66
c-44 -128 -147 -398 -162 -426 -15 -27 -16 -6 -17 285 l0 313 66 212 c36 116
77 252 89 301 31 121 28 115 98 157 70 42 82 45 72 21z m-622 -723 c-25 -67
-25 -71 -10 -118 9 -26 19 -57 22 -68 3 -10 -10 11 -30 48 l-35 68 35 70 c19
38 37 70 40 70 2 0 -8 -31 -22 -70z m563 -128 c-30 -60 -45 -66 -21 -9 19 45
19 90 1 125 -7 15 -16 38 -20 52 -4 14 10 -6 30 -44 l36 -70 -26 -54z"/>
<path d="M3604 7981 c25 -48 52 -111 62 -140 16 -51 18 -53 48 -47 49 10 179
60 183 71 1 6 -32 29 -75 53 -42 23 -119 67 -169 97 l-93 54 44 -88z"/>
<path d="M6535 7989 c-77 -45 -152 -89 -167 -98 -16 -9 -27 -20 -25 -25 4 -11
165 -74 192 -75 16 -1 25 13 44 62 13 34 41 97 63 140 21 42 37 77 36 77 -2 0
-66 -37 -143 -81z"/>
<path d="M3343 5883 c19 -332 171 -602 398 -711 46 -22 103 -45 126 -51 32 -9
49 -22 76 -59 49 -66 60 -92 98 -219 18 -62 36 -109 40 -105 15 16 -44 391
-63 403 -7 5 -31 9 -54 9 -85 0 -219 56 -311 129 -28 22 -72 69 -97 104 -95
133 -142 275 -153 464 -5 100 -9 116 -27 129 -11 7 -25 14 -30 14 -5 0 -6 -44
-3 -107z"/>
<path d="M6862 5972 c-15 -15 -20 -41 -25 -133 -13 -255 -119 -471 -289 -592
-77 -54 -157 -85 -256 -97 -41 -6 -77 -12 -79 -14 -14 -14 -63 -418 -49 -405
4 4 18 47 32 98 32 116 56 172 100 232 32 43 42 50 117 74 239 76 404 285 466
592 22 106 28 263 11 263 -5 0 -18 -8 -28 -18z"/>
<path d="M4982 5455 c-78 -17 -136 -50 -189 -108 -59 -64 -89 -114 -108 -179
-17 -60 -17 -134 -1 -93 99 239 193 330 351 343 l65 5 0 -611 c0 -611 2 -644
33 -613 13 13 15 88 16 785 l1 439 64 -5 c79 -7 172 -53 223 -112 34 -40 93
-148 119 -216 l13 -35 0 51 c2 107 -112 269 -223 320 -97 44 -240 56 -364 29z"/>
<path d="M3400 5161 c0 -31 132 -143 229 -195 49 -25 123 -55 165 -66 43 -11
81 -22 86 -25 6 -3 26 -59 46 -123 70 -227 166 -529 225 -707 33 -99 76 -247
95 -330 39 -170 84 -271 164 -372 47 -59 116 -120 125 -112 2 3 -24 47 -59
100 -108 165 -139 241 -186 454 -51 227 -133 522 -185 660 -21 55 -70 174
-110 265 -40 91 -75 175 -79 187 -5 16 -18 24 -44 28 -132 22 -246 80 -376
191 -80 68 -96 76 -96 45z"/>
<path d="M6760 5126 c-117 -105 -225 -165 -351 -194 -57 -13 -73 -22 -84 -42
-7 -14 -56 -128 -108 -255 -129 -309 -169 -442 -272 -894 -39 -172 -83 -271
-186 -421 -63 -92 -62 -116 3 -54 125 121 194 253 237 454 18 80 52 204 76
275 24 72 78 238 120 370 140 437 158 493 165 505 4 6 36 17 71 25 73 15 181
62 245 106 71 48 164 140 164 160 0 30 -15 23 -80 -35z"/>
</g>
</svg>
